<?xml version="1.0" encoding="UTF-8"?>
<svg width="140px" height="140px" viewBox="0 0 140 140" version="1.1" xmlns="http://www.w3.org/2000/svg" xmlns:xlink="http://www.w3.org/1999/xlink">
    <!-- Generator: Sketch 63.1 (92452) - https://sketch.com -->
    <title> illustration02</title>
    <desc>Created with Sketch.</desc>
    <defs>
        <rect id="path-1" x="0" y="0" width="140" height="140"></rect>
    </defs>
    <g id="页面-1" stroke="none" stroke-width="1" fill="none" fill-rule="evenodd">
        <g id="切图" transform="translate(-394.000000, -1270.000000)">
            <g id="-illustration02" transform="translate(394.000000, 1270.000000)">
                <mask id="mask-2" fill="white">
                    <use xlink:href="#path-1"></use>
                </mask>
                <use id="矩形" stroke="#979797" fill="#D8D8D8" opacity="0" xlink:href="#path-1"></use>
                <g id="编组-9" mask="url(#mask-2)">
                    <g transform="translate(1.000000, 31.000000)">
                        <path d="M99.4019608,43.6813725 L88.2068627,43.6813725 C86.1081807,43.6813725 84.4068627,41.9800546 84.4068627,39.8813725 L84.4068627,34.4421569 C84.4068627,32.3434748 82.7055448,30.6421569 80.6068627,30.6421569 L74.3014706,30.6421569 C72.6811646,30.6421569 71.3676471,29.3286393 71.3676471,27.7083333 C71.3676471,26.0880273 72.6811646,24.7745098 74.3014706,24.7745098 L82.125,24.7745098 C83.385238,24.7745098 84.4068627,23.7528851 84.4068627,22.4926471 C84.4068627,21.2324091 83.385238,20.2107843 82.125,20.2107843 L74.3014706,20.2107843 C72.6811646,20.2107843 71.3676471,18.8972668 71.3676471,17.2769608 C71.3676471,15.6566548 72.6811646,14.3431373 74.3014706,14.3431373 L81.7990196,14.3431373 C83.2392916,14.3431373 84.4068627,13.1755661 84.4068627,11.7352941 C84.4068627,10.2950221 83.2392916,9.12745098 81.7990196,9.12745098 L70.0078431,9.12745098 C68.9585021,9.12745098 68.1078431,9.97810996 68.1078431,11.027451 L68.1078431,65.8480392 C68.1078431,66.9282432 67.2321648,67.8039216 66.1519608,67.8039216 C65.0717568,67.8039216 64.1960784,66.9282432 64.1960784,65.8480392 L64.1960784,11.027451 C64.1960784,9.97810996 63.3454195,9.12745098 62.2960784,9.12745098 L49.145098,9.12745098 C48.095757,9.12745098 47.245098,9.97810996 47.245098,11.027451 L47.245098,58.0245098 L47.245098,58.0245098 L36.7713682,58.0245098 C34.6726862,58.0245098 32.9713682,56.3231919 32.9713682,54.2245098 C32.9713682,53.8390383 33.0300195,53.4558107 33.1453086,53.0879837 L44.2135794,17.7749292 C44.816975,15.8498098 43.8108016,13.788732 41.9217889,13.0803522 L40.0735294,12.3872549 L40.0735294,12.3872549 L37.0103263,21.5768642 C36.8444109,22.0746103 36.306407,22.3436123 35.8086608,22.1776969 C35.536702,22.087044 35.3202209,21.8784323 35.2195645,21.6100151 L34.2058824,18.9068627 L34.2058824,18.9068627 L31.8010354,20.281061 C31.3454938,20.5413705 30.7651819,20.3831036 30.5048724,19.927562 C30.3707773,19.6928956 30.3429851,19.4122212 30.4284543,19.1558136 L33.5539216,9.77941176 L33.5539216,9.77941176 L32.0305054,9.20813069 C30.0654481,8.47123422 27.8750819,9.46685525 27.1381854,11.4319125 C27.12172,11.4758202 27.1060688,11.520029 27.0912397,11.564516 L8.12745098,68.4558824 L8.12745098,68.4558824 L2.93382353,68.4558824 C1.31351754,68.4558824 -3.7962323e-15,69.7693999 0,71.3897059 C1.98430255e-16,73.0100119 1.31351754,74.3235294 2.93382353,74.3235294 L39.645098,74.3235294 C43.8424621,74.3235294 47.245098,70.9208935 47.245098,66.7235294 L47.245098,63.2401961 L47.245098,63.2401961 L33.1214341,63.2401961 C31.4433229,63.2401961 29.963896,64.3409351 29.4816942,65.9482741 L28.3382353,69.7598039 L28.3382353,69.7598039" id="路径-29" stroke="#404042" stroke-width="1.9" fill="none"></path>
                        <line x1="30.5686275" y1="30.8823529" x2="23.0196078" y2="53.5294118" id="路径-31" stroke="#ff9d00" stroke-width="2" fill="none"></line>
                        <path d="M53.1127451,14.995098 L58.3284314,14.995098 C59.7687034,14.995098 60.9362745,16.1626692 60.9362745,17.6029412 C60.9362745,19.0432132 59.7687034,20.2107843 58.3284314,20.2107843 L53.1127451,20.2107843 C51.6724731,20.2107843 50.504902,19.0432132 50.504902,17.6029412 C50.504902,16.1626692 51.6724731,14.995098 53.1127451,14.995098 Z" id="矩形" stroke="#404042" stroke-width="1.9" fill="none"></path>
                        <path d="M53.1127451,24.7745098 L58.3284314,24.7745098 C59.7687034,24.7745098 60.9362745,25.9420809 60.9362745,27.3823529 C60.9362745,28.8226249 59.7687034,29.9901961 58.3284314,29.9901961 L53.1127451,29.9901961 C51.6724731,29.9901961 50.504902,28.8226249 50.504902,27.3823529 C50.504902,25.9420809 51.6724731,24.7745098 53.1127451,24.7745098 Z" id="矩形" stroke="#404042" stroke-width="1.9" fill="none"></path>
                        <line x1="129.718137" y1="9.77941176" x2="129.718137" y2="22.8186275" id="路径-34" stroke="#ff9d00" stroke-width="1.9" fill="none"></line>
                        <line x1="129.718137" y1="24.122549" x2="129.718137" y2="28.0343137" id="路径-34" stroke="#ff9d00" stroke-width="1.9" fill="none"></line>
                        <path d="M120.131369,13.1269346 L109.39759,16.9139479 C109.257639,16.9633246 109.105107,16.9633246 108.965155,16.9139479 L86.7989727,9.09343786 C86.4591032,8.97352759 86.2803883,8.59965652 86.399802,8.25837345 C86.4654083,8.07087101 86.6122469,7.92342176 86.7989727,7.85754253 L108.965155,0.0370324863 C109.105107,-0.0123441621 109.257639,-0.0123441621 109.39759,0.0370324863 L131.563772,7.85754253 C131.903642,7.9774528 132.082357,8.35132387 131.962943,8.69260694 C131.897337,8.88010938 131.750498,9.02755863 131.563772,9.09343786 L124.161785,11.7049528 L124.161785,11.7049528" id="路径" stroke="#404042" stroke-width="1.9" fill="none"></path>
                        <path d="M116.689942,11.695721 L109.329636,14.3174994 C109.233669,14.3516832 109.129076,14.3516832 109.033109,14.3174994 L93.8334412,8.90330012 C93.6003878,8.82028532 93.4778405,8.5614515 93.5597241,8.3251786 C93.6047114,8.19536922 93.7054006,8.09328897 93.8334412,8.04768027 L109.033109,2.63348101 C109.129076,2.59929718 109.233669,2.59929718 109.329636,2.63348101 L124.529304,8.04768027 C124.762357,8.13069508 124.884905,8.38952889 124.803021,8.62580179 C124.758034,8.75561117 124.657344,8.85769142 124.529304,8.90330012 L119.453656,10.711272 L119.453656,10.711272" id="路径" stroke="none" fill="#ABBAC4" fill-rule="evenodd" opacity="0.5"></path>
                        <path d="M92.8823529,11.0833333 L92.8823529,24.7745098 C92.8823529,28.3997716 94.5261968,31.6410931 97.1091595,33.7937494 M112.441176,36.5098039 C118.9224,36.5098039 124.176471,31.2557338 124.176471,24.7745098 L124.176471,11.0833333" id="形状" stroke="#404042" stroke-width="1.9" fill="none"></path>
                        <polygon id="路径-32" stroke="none" fill="#ABBAC4" fill-rule="evenodd" opacity="0.5" points="108.117647 36.372549 105.372549 48.7254902 109.490196 54.2156863 113.607843 48.7254902 110.862745 36.372549"></polygon>
                        <path d="M78.5392157,74.3235294 L78.5392157,61.2843137 C78.5392157,59.8440417 79.7067868,58.6764706 81.1470588,58.6764706 C82.5873308,58.6764706 83.754902,59.8440417 83.754902,61.2843137 L83.754902,67.1519608 L83.754902,67.1519608 L88.3186275,67.1519608 L88.3186275,56.254902 C88.3186275,53.6315494 90.4452749,51.504902 93.0686275,51.504902 L97.4460784,51.504902 L97.4460784,51.504902 L99.861851,36.4063236 C99.9447737,35.8882659 100.431942,35.5354886 100.950005,35.6183787 C101.015393,35.6288407 101.079508,35.646111 101.141304,35.6699079 C102.165407,36.0642787 103.196183,36.341268 104.233633,36.5008757 C105.250818,36.6573656 106.281852,36.7021587 107.326735,36.6352549 C107.85031,36.6017798 108.301925,36.9990413 108.335449,37.5226124 C108.340089,37.5950853 108.336404,37.6678512 108.324465,37.7394844 L105.921569,52.1568627 L105.921569,52.1568627 L109.833333,57.372549 L113.745098,52.1568627 L111.789216,37.8137255" id="路径-33" stroke="#404042" stroke-width="2" fill="none"></path>
                        <path d="M118.858477,35.2058824 L122.758205,51.6396046 L136.05721,51.6396046 C137.357119,51.6396046 137.790422,50.7631394 137.357119,49.010209 C136.923816,48.1337439 136.273861,47.6955113 135.407255,47.6955113 C134.107345,47.6955113 133.457391,48.7910927 133.457391,50.9822557 C133.457391,55.8028142 133.457391,60.6233728 133.457391,65.4439313 C133.457391,70.526544 130.383465,74.6468158 125.358024,74.6468158 C124.247002,74.6468158 123.461746,74.6468158 123.002256,74.6468158 M88.9605581,74.8181413 L85.7107843,74.8181413" id="形状" stroke="#ff9d00" stroke-width="1.9" fill="none"></path>
                        <path d="M120.916667,73.997549 C114.107298,73.997549 103.893246,73.997549 90.2745098,73.997549" id="路径" stroke="#404042" stroke-width="1.9" fill="none"></path>
                        <g id="编组-13" stroke="none" stroke-width="1" fill="none" fill-rule="evenodd" transform="translate(60.284314, 61.936275)">
                            <path d="M4.74363903e-12,12.3608289 L19.641486,12.3608289" id="Stroke-983" stroke="#404042" stroke-width="1.805"></path>
                            <path d="M18.0887436,-6.25382099e-14 L18.0887436,11.8486159 L18.048485,13.7977505 C18.0305235,14.6580453 18.7235904,15.3647382 19.5838852,15.3641209 L19.7164289,15.3641209 C20.5197423,15.3634995 21.166357,14.7038782 21.1514923,13.9005647 L21.1502536,13.8423446 C21.1341502,13.0198309 20.4639997,12.3614483 19.641486,12.3608289" id="Stroke-2986" stroke="#404042" stroke-width="1.805"></path>
                        </g>
                        <line x1="49.8529412" y1="73.997549" x2="57.6764706" y2="73.997549" id="路径-30" stroke="#ff9d00" stroke-width="1.9" fill="none"></line>
                    </g>
                </g>
            </g>
        </g>
    </g>
</svg>