<?xml version="1.0" encoding="UTF-8"?>
<svg width="140px" height="140px" viewBox="0 0 140 140" version="1.1" xmlns="http://www.w3.org/2000/svg" xmlns:xlink="http://www.w3.org/1999/xlink">
    <!-- Generator: Sketch 63.1 (92452) - https://sketch.com -->
    <title> illustration03</title>
    <desc>Created with Sketch.</desc>
    <g id="页面-1" stroke="none" stroke-width="1" fill="none" fill-rule="evenodd">
        <g id="切图" transform="translate(-669.000000, -1270.000000)">
            <g id="-illustration03" transform="translate(669.000000, 1292.000000)">
                <line x1="114.207257" y1="31.7594973" x2="114.207257" y2="23.2722842" id="Stroke-2" stroke="#404042" stroke-width="2"></line>
                <g id="编组">
                    <path d="M140,34.4262295 L84.1530055,34.4262295 C82.4630601,34.4262295 81.0928962,35.7963934 81.0928962,37.4863388 C81.0928962,39.1762842 82.4630601,40.5464481 84.1530055,40.5464481 L101.748634,40.5464481 C103.016284,40.5464481 104.043716,41.5738798 104.043716,42.8415301 C104.043716,44.1091803 103.016284,45.136612 101.748634,45.136612 L73,45" id="Stroke-3" stroke="#404042" stroke-width="2"></path>
                    <path d="M51.6773989,58 L51.6773989,34.5590601 L61,34.5590601 L62,37.5590601 L72.7592568,37.5590601 L72.7592568,56.5815738 C72.7592568,57.1338585 72.3115416,57.5815738 71.7592568,57.5815738 L61.4425137,57.5815738 L61.4425137,57.5815738" id="Stroke-5" stroke="#404042" stroke-width="2"></path>
                    <path d="M107.245738,68.6921858 L107.245738,54.7648634 C107.245738,53.2799454 106.04235,52.0757923 104.556667,52.0757923 L84.714918,52.0757923 L84.714918,90.0968852" id="Stroke-7" stroke="#404042" stroke-width="2"></path>
                    <path d="M135.409836,81.7652787 L135.409836,57.3234208 C135.409836,54.4247322 133.060437,52.0753333 130.162514,52.0753333 L121.327978,52.0753333 L121.327978,72.1718361 C121.327978,74.1410164 119.731366,75.7376284 117.762186,75.7376284 L111.693989,75.7376284" id="Stroke-9" stroke="#404042" stroke-width="2"></path>
                    <polyline id="Stroke-11" stroke="#404042" stroke-width="2" points="109.822503 59.3979454 115.695617 59.3979454 115.695617 76.0151038"></polyline>
                    <polyline id="Stroke-15" stroke="#404042" stroke-width="2" points="112.286426 45.0615628 109.522383 43.0281202 103.303475 51.5122732"></polyline>
                    <line x1="115.695464" y1="46.1612896" x2="115.695464" y2="67.5659891" id="Stroke-17" stroke="#404042" stroke-width="2"></line>
                    <line x1="122.431301" y1="43.0279672" x2="129.416" y2="52.2771475" id="Stroke-19" stroke="#404042" stroke-width="2"></line>
                    <path d="M27,47 L26.7759563,37.4480874 C26.7759563,28.5959563 33.9511475,21.420765 42.8025137,21.420765 L49.726776,21.420765 C52.2613115,21.420765 54.3169399,23.4763934 54.3169399,26.010929 C54.3169399,28.5462295 52.2613115,30.6010929 49.726776,30.6010929 C47.1922404,30.6010929 45.136612,28.5462295 45.136612,26.010929 L45.136612,23.3295082 C45.136612,18.8954098 48.7307104,15.3005464 53.1648087,15.3005464 L53.5519126,15.3005464 L53.5519126,13.7704918 C53.5519126,6.58765027 59.3745355,0.765027322 66.557377,0.765027322 C73.7402186,0.765027322 79.5628415,6.58765027 79.5628415,13.7704918 L79.5628415,14.5355191 L81.5473224,14.5355191 C92.2814208,14.5355191 100.983607,23.2377049 100.983607,33.9725683 L100.983607,34.4262295" id="Stroke-31" stroke="#404042" stroke-width="2"></path>
                    <path d="M61.2021858,93.1420765 C61.2021858,94.7264481 59.9177049,96.010929 58.3333333,96.010929 L6.31147541,96.010929 C3.24830601,96.010929 0.765027322,93.5276503 0.765027322,90.4644809 C0.765027322,87.4013115 3.24830601,84.9180328 6.31147541,84.9180328 L10.7103825,84.9180328 C12.823388,84.9180328 14.5355191,86.630929 14.5355191,88.7431694 C14.5355191,90.8561749 12.823388,92.568306 10.7103825,92.568306 L10.6369399,92.568306 C8.55377049,92.568306 6.85311475,90.9005464 6.81256831,88.817377 L6.68480874,82.2106011 L6.68480874,72.1665574 C6.68480874,70.0918033 8.3663388,68.4102732 10.4395628,68.4102732 L11.7538798,68.4102732 L11.7538798,56.1349727 L27,47.0765027 L41.2786885,56.1349727 L41.2786885,68" id="Stroke-32" stroke="#404042" stroke-width="2"></path>
                    <path d="M66.8682077,81.4466448 C66.3296284,81.2194317 65.7367322,81.0932022 65.1155301,81.0932022 L59.6723607,81.0932022 C58.4047104,81.0932022 57.3772787,82.1206339 57.3772787,83.3882842 C57.3772787,84.6559344 58.4047104,85.6833661 59.6723607,85.6833661 C60.9400109,85.6833661 61.9674426,84.6559344 61.9674426,83.3882842 L61.9674426,81.534623 C61.9674426,79.1783388 60.0571694,77.2680656 57.7008852,77.2680656 L55.847224,77.2680656 C55.847224,73.0428197 52.4214317,69.6177923 48.1969508,69.6177923 C43.9717049,69.6177923 40.5466776,73.0428197 40.5466776,77.2680656 L40.5466776,80.3281749 L37.869082,80.3281749 C35.1226339,80.3281749 32.8964044,82.5544044 32.8964044,85.3008525 C32.8964044,88.0465355 35.1226339,90.2735301 37.869082,90.2735301 L58.3335628,90.2735301 C59.9179344,90.2735301 61.2024153,91.5580109 61.2024153,93.1423825" id="Stroke-33" stroke="#ff9d00" stroke-width="2"></path>
                    <path d="M135.89318,96.3934426 L112.77482,96.3934426 C109.051432,96.3934426 105.481049,94.9146448 102.84859,92.2814208 L101.978754,91.4123497 L105.028918,88.3621858 C106.848153,86.5429508 106.939191,83.5203279 105.065639,81.7569399 C103.332087,80.1259016 100.624656,80.1259016 98.8926339,81.7569399 C97.019082,83.5203279 97.1093552,86.5429508 98.9293552,88.3621858 L101.978754,91.4123497 L99.5161311,93.8749727 C97.9034536,95.4876503 95.7162404,96.3934426 93.435694,96.3934426 L89.0222514,96.3934426 L85.0800656,96.3934426 L84.1528525,96.3934426 L77.5055301,96.3934426 C73.1479344,96.3934426 69.6173333,92.8620765 69.6173333,88.5060109 L69.6173333,85.595082 C69.6173333,83.7299454 68.4835628,82.1302732 66.8678251,81.4463388" id="Stroke-34" stroke="#404042" stroke-width="2"></path>
                    <polygon id="Fill-35" fill="#404042" points="18.9672131 61.4262295 20.9672131 61.4262295 20.9672131 58.3661202 18.9672131 58.3661202"></polygon>
                    <polygon id="Fill-36" fill="#ff9d00" points="18.9672131 66.7814208 20.9672131 66.7814208 20.9672131 63.7213115 18.9672131 63.7213115"></polygon>
                    <polygon id="Fill-38" fill="#404042" points="100.218579 61.2021858 101.748634 61.2021858 101.748634 58.1420765 100.218579 58.1420765"></polygon>
                    <polygon id="Fill-39" fill="#404042" points="100.218579 66.557377 101.748634 66.557377 101.748634 63.4972678 100.218579 63.4972678"></polygon>
                    <polygon id="Fill-40" fill="#404042" points="94.0983607 61.2021858 95.6284153 61.2021858 95.6284153 58.1420765 94.0983607 58.1420765"></polygon>
                    <polygon id="Fill-41" fill="#404042" points="94.0983607 66.557377 95.6284153 66.557377 95.6284153 63.4972678 94.0983607 63.4972678"></polygon>
                    <polygon id="Fill-42" fill="#404042" points="128.52459 68.2076503 130.054645 68.2076503 130.054645 65.147541 128.52459 65.147541"></polygon>
                    <polygon id="Fill-43" fill="#404042" points="128.52459 75.8579235 130.054645 75.8579235 130.054645 72.7978142 128.52459 72.7978142"></polygon>
                    <line x1="116.284153" y1="14.1202186" x2="116.284153" y2="8" id="Stroke-46" stroke="#ff9d00" stroke-width="2"></line>
                    <line x1="52" y1="45" x2="40" y2="45" id="Stroke-44" stroke="#404042" stroke-width="2"></line>
                </g>
                <line x1="118.712962" y1="23.2724372" x2="118.712962" y2="31.7596503" id="Stroke-1" stroke="#404042" stroke-width="2"></line>
                <path d="M120.874317,19.0696831 C120.874317,21.6187541 118.807978,23.6858579 116.258907,23.6858579 C113.709071,23.6858579 111.642732,21.6187541 111.642732,19.0696831 C111.642732,16.519847 113.709071,14.4535082 116.258907,14.4535082 C118.807978,14.4535082 120.874317,16.519847 120.874317,19.0696831 Z" id="Stroke-45" stroke="#ff9d00" stroke-width="2"></path>
                <path d="M117.771663,28.3822659 L125.466278,43.071986 C125.978806,44.0504485 125.601092,45.2591351 124.622629,45.7716631 C124.336289,45.921651 124.01786,46 123.694615,46 L108.305385,46 C107.200815,46 106.305385,45.1045695 106.305385,44 C106.305385,43.6767551 106.383734,43.3583266 106.533722,43.071986 L114.228337,28.3822659 C114.740865,27.4038034 115.949551,27.0260888 116.928014,27.5386168 C117.288514,27.7274502 117.58283,28.0217657 117.771663,28.3822659 Z" id="三角形" fill="#D5DCE1"></path>
            </g>
        </g>
    </g>
</svg>