<svg id="Layer_1" data-name="Layer 1" xmlns="http://www.w3.org/2000/svg" width="350" height="150" viewBox="0 0 350 150"><title>Artboard 1 copy 2</title><path d="M48.78,82.57c-.19-.7-2.25-.4-3.93-.55A24.11,24.11,0,0,1,39,80.78a42.75,42.75,0,0,1-6.23-2.66l-.84-.44-.43-.26a2.11,2.11,0,0,0-.33-.18,2.63,2.63,0,0,1-.33-.2l-.39-.22a3.41,3.41,0,0,1-.44-.3l-.29-.18-.3-.17c-.15-.1-.24-.19-.39-.29l-.28-.17-.3-.22a1.24,1.24,0,0,1-.18-.14l-.33-.29c-.11-.08-.21-.18-.31-.25l-.25-.2-.44-.33c-.11-.08-.2-.19-.31-.27l-.35-.28a1.68,1.68,0,0,1-.24-.19c-.08-.1-.16-.17-.24-.26s-.18-.14-.25-.21a1.76,1.76,0,0,0-.39-.38L25,72.54a.83.83,0,0,0-.12-.15l-.12-.11-.15-.15L24.47,72l-.11-.14-.19-.21L24,71.47l-.09-.11a.44.44,0,0,0-.08-.11c0-.06-.08,0-.09,0s-.05.07,0,.15a1.4,1.4,0,0,0,.14.22l0,0a.56.56,0,0,1,0,.08l.07.11a1.5,1.5,0,0,0,.2.23l.06.06a1.58,1.58,0,0,1,.12.15.83.83,0,0,0,.12.16l.06.08a.5.5,0,0,0,.07.08l.11.11a1.57,1.57,0,0,0,.19.18l.14.14c.13.15.27.3.38.44a.92.92,0,0,0,.25.2,1.27,1.27,0,0,1,.21.25c.05.06.16.15.21.21a1.67,1.67,0,0,0,.38.37,2.83,2.83,0,0,1,.25.24c.05.06.19.2.24.27s.2.33.18.34-.32-.18-.45-.27-.13-.1-.24-.18a1.31,1.31,0,0,1-.24-.21,2.18,2.18,0,0,1-.21-.22A4.17,4.17,0,0,0,25.6,74c-.16-.15-.35-.29-.51-.43L25,73.4c-.05-.05-.12-.1-.16-.15a1.72,1.72,0,0,0-.26-.33l-.24-.2s-.06-.07-.1-.09l-.13-.11-.31-.41-.17-.18-.29-.43c-.15-.19-.36-.33-.5-.52s-.23-.43-.36-.63a2.5,2.5,0,0,0-.22-.24,1.29,1.29,0,0,1-.09-.16c-.07-.11-.16-.22-.23-.32s-.16-.3-.26-.45a1.6,1.6,0,0,0-.11-.19,2.12,2.12,0,0,1-.17-.27c-.07-.1-.1-.17-.15-.24a2.19,2.19,0,0,1-.11-.19c0-.06-.1-.15-.12-.19l-.21-.32c-.05-.08-.12-.14-.17-.12s0,.08,0,.11a.91.91,0,0,0,.08.17,3.3,3.3,0,0,0,.18.32c0,.06.1.19.15.26l.14.22a2.12,2.12,0,0,0,.14.31,1,1,0,0,1,.13.23,3.12,3.12,0,0,0,.26.38l.15.3c.11.16.23.31.33.47s.13.22.19.33.15.17.21.27.11.24.19.35l.19.26.29.43c.06.08.14.14.19.22s.15.24.23.33a1.37,1.37,0,0,1,.2.23c.12.14.4.54.35.55s-.49-.34-.62-.48a2.06,2.06,0,0,1-.3-.28c-.1-.14-.18-.31-.29-.44s-.1-.1-.14-.15a2.83,2.83,0,0,0-.23-.28l-.1-.1c-.14-.17-.25-.35-.38-.53S22,71,22,70.94a1.62,1.62,0,0,1-.1-.18c-.05-.08-.12-.15-.17-.23a1.62,1.62,0,0,1-.1-.18c-.07-.11-.17-.2-.23-.3s-.08-.2-.13-.29l-.44-.66c0-.06-.05-.13-.09-.18l-.33-.55c-.05-.07-.06-.15-.11-.21s-.13-.14-.18-.22a1.21,1.21,0,0,1-.09-.2,2.34,2.34,0,0,0-.15-.27.8.8,0,0,0-.08-.16,5.51,5.51,0,0,1-.36-.68c-.06-.13-.14-.24-.2-.36s-.13-.28-.19-.42-.07-.18-.1-.27-.17-.26-.23-.41-.07-.2-.11-.28-.08-.09-.11-.07-.05.07,0,.14a2.19,2.19,0,0,0,.16.41c.08.17.12.35.2.52a2.49,2.49,0,0,0,.15.28c.07.17.15.34.22.49l.12.27a.67.67,0,0,1,.09.14c.05.12.06.23.11.34s.14.2.19.3a15.66,15.66,0,0,0,.84,1.58c.09.14.13.31.22.44s.22.25.31.39.09.28.16.4.24.34.35.52,0,.1.07.15.1.14.14.2.09.2.15.28.16.17.23.26.14.25.22.36.15.14.21.22l.53.68a4.37,4.37,0,0,1,.53.71c0,.07.17.25.14.29s-.4-.31-.45-.37a4.22,4.22,0,0,1-.38-.46L22.58,73l-.09-.12c-.09-.13-.14-.29-.24-.42s-.1-.09-.13-.14a3.13,3.13,0,0,1-.2-.3c-.11-.15-.25-.29-.37-.44s-.2-.37-.33-.53l-.2-.24a.67.67,0,0,0-.06-.12,1.35,1.35,0,0,1-.14-.22.75.75,0,0,0-.1-.2l-.38-.62c-.06-.09-.1-.19-.15-.28s-.22-.29-.32-.44-.18-.39-.29-.57L19.34,68c-.08-.13-.12-.28-.2-.41s-.15-.23-.21-.35-.1-.25-.16-.39a2.25,2.25,0,0,1-.12-.21c0-.09,0-.19-.09-.27-.12-.25-.29-.49-.4-.73s-.16-.36-.23-.55a1.42,1.42,0,0,0-.1-.29c-.1-.23-.23-.47-.33-.69a3.82,3.82,0,0,0-.13-.36s0-.07,0-.11-.11-.21-.15-.31L17.08,63c-.16-.4-.3-.85-.45-1.27,0-.07,0-.17-.06-.25s-.15-.43-.23-.64-.15-.07-.12,0,0,.18.07.3,0,.12,0,.18a1.72,1.72,0,0,0,.07.21c0,.13,0,.25.09.38s.12.33.17.51l.06.27a2.34,2.34,0,0,0,.09.24c.09.21.17.42.25.64l.09.37c0,.06.08.13.11.2s0,.11.06.18.1.28.17.42.11.23.16.35,0,.11,0,.17c.13.36.28.75.43,1.09,0,.09.05.18.09.26l.11.22.05.14c.05.11.13.19.18.29a6.73,6.73,0,0,0,.42.8,4.39,4.39,0,0,1,.35.79,2.33,2.33,0,0,0,.2.34l.09.19a3.41,3.41,0,0,0,.21.38A1.56,1.56,0,0,1,20,70s.08.31.07.31-.16-.06-.2-.11a1.37,1.37,0,0,1-.22-.3l-.13-.27a5,5,0,0,0-.32-.48,1.77,1.77,0,0,1-.15-.31c-.08-.18-.18-.37-.27-.56s-.1-.16-.14-.23-.07-.15-.12-.23-.22-.35-.31-.52-.09-.26-.15-.39a.83.83,0,0,0-.08-.12,1.45,1.45,0,0,1-.09-.22c-.05-.09-.12-.19-.17-.29s-.14-.41-.24-.61-.12-.17-.16-.27-.07-.32-.14-.46c-.18-.4-.38-.81-.53-1.22,0-.07,0-.15-.05-.22s-.15-.35-.22-.52a2.17,2.17,0,0,0-.07-.24c0-.12-.09-.25-.14-.37a.53.53,0,0,0,0-.12C16,62.14,16,62,16,61.89a1.63,1.63,0,0,1-.09-.19c0-.12,0-.27-.08-.38l-.19-.52c0-.1,0-.19-.08-.29s-.08-.23-.12-.34,0-.24-.08-.36a2.14,2.14,0,0,0-.09-.27c-.06-.16-.08-.34-.14-.49A.3.3,0,0,1,15,59s0-.08-.08-.07-.05.07-.05.11a2.62,2.62,0,0,0,.09.33c0,.1.06.21.09.31a1.25,1.25,0,0,0,0,.19,2.29,2.29,0,0,0,.08.28c0,.1,0,.19,0,.26s.13.43.2.62,0,.22.06.31a2.83,2.83,0,0,1,.11.31,2.41,2.41,0,0,0,.08.25,1.69,1.69,0,0,1,.11.27c0,.12,0,.25.08.37s.16.37.22.55,0,.14.06.21.09.33.15.49.19.46.27.68.09.49.19.7.15.17.19.26,0,.14.05.22.07.17.09.25l.06.21a2,2,0,0,0,.13.25,2.3,2.3,0,0,0,.17.39c.05.09.13.18.18.28s.07.22.12.34.16.33.23.51.08.33.15.47.18.26.25.4.1.21.14.31.12.16.17.25a3.18,3.18,0,0,1,.16.32,1.6,1.6,0,0,0,.1.23c.07.11.12.2.19.3a2.71,2.71,0,0,1,.18.34,1.45,1.45,0,0,0,.11.25c.05.08.13.14.17.22a.85.85,0,0,1,.09.36c-.06,0-.22-.14-.26-.19s-.19-.36-.31-.52a3.88,3.88,0,0,1-.3-.48,2.89,2.89,0,0,0-.22-.43c-.06-.09-.14-.19-.2-.3s-.06-.19-.09-.28-.19-.22-.25-.35-.1-.3-.18-.44-.08-.15-.11-.21-.07-.18-.11-.27-.21-.33-.3-.51-.13-.39-.22-.58-.13-.18-.18-.29-.1-.27-.16-.41-.1-.16-.14-.24-.07-.25-.12-.37c-.13-.28-.26-.56-.38-.84,0-.1-.06-.21-.1-.32L15.91,64c-.1-.25-.14-.53-.25-.77l-.18-.38c-.07-.21-.1-.43-.18-.64s-.21-.67-.33-1c0-.1,0-.2-.07-.3s-.07-.19-.11-.28,0-.19-.06-.29c-.09-.28-.18-.55-.26-.83,0-.07,0-.19-.05-.27a.67.67,0,0,0-.06-.15c0-.07,0-.12,0-.18s-.12-.44-.18-.64,0-.16-.05-.23a8.68,8.68,0,0,0-.25-.91c0-.05-.05-.11-.1-.09s0,.07,0,.12.07.24.09.35a1,1,0,0,1,0,.17,1,1,0,0,0,0,.17c.05.17.12.37.16.54s0,.21,0,.3a7.57,7.57,0,0,0,.23.85c.09.22.1.49.17.73s0,.21,0,.32a2,2,0,0,0,.1.26,1,1,0,0,1,0,.18c.05.17.09.35.15.52s.12.24.16.35a1,1,0,0,1,0,.16c0,.13.05.25.09.37l.25.73c.05.13.06.26.11.39L16,65.09l.09.34a3,3,0,0,0,.16.31c.06.14.08.28.13.41s.14.3.2.47a2.6,2.6,0,0,0,.1.25c0,.06.08.12.1.18a3.19,3.19,0,0,1,.11.33c0,.1.14.18.2.28a2.64,2.64,0,0,1,.1.3c.07.16.16.3.23.46s0,.14.07.2.1.15.13.23h0a.08.08,0,0,0,0,0l0,.1a.53.53,0,0,0,.08.15l.08.1a.1.1,0,0,1,0,0,3.19,3.19,0,0,1,.13.37c.05.12.15.21.21.33s.07.31,0,.32c-.23,0-.25-.32-.33-.49s-.15-.24-.22-.37a.39.39,0,0,1-.05-.13.81.81,0,0,0-.06-.13,1,1,0,0,0,0-.1l-.11-.16h0c-.08-.14-.14-.35-.21-.44s-.08-.11-.11-.16S17,68.12,16.9,68s-.11-.18-.15-.28-.06-.26-.11-.37-.08-.12-.11-.18-.1-.28-.17-.41a1.74,1.74,0,0,1-.11-.18c-.06-.11-.08-.23-.14-.34a7.43,7.43,0,0,1-.35-.69c-.06-.13-.08-.27-.14-.4a3.65,3.65,0,0,0-.18-.34c0-.07,0-.15-.07-.23s-.11-.26-.15-.39-.06-.28-.08-.36l-.13-.3c-.06-.14-.08-.28-.15-.43s-.1-.22-.14-.34a2.76,2.76,0,0,1-.08-.27l-.1-.21c0-.09,0-.22-.08-.33s-.09-.24-.13-.36,0-.3,0-.36c-.13-.37-.25-.77-.37-1.14-.05-.18-.08-.35-.13-.52a1.66,1.66,0,0,0,0-.22L13.64,59a1.85,1.85,0,0,1,0-.23,2.18,2.18,0,0,0-.09-.23c-.07-.23-.11-.47-.18-.68a2.34,2.34,0,0,0-.05-.3c-.08-.27-.1-.59-.18-.87,0-.09,0-.17,0-.25-.14-.53-.2-1.13-.36-1.64,0-.1,0-.23,0-.33a2.58,2.58,0,0,0-.1-.33c0-.06,0-.1,0-.15s-.07-.16-.12-.15,0,.07,0,.15a2.36,2.36,0,0,0,0,.31c0,.08,0,.15,0,.22a3.83,3.83,0,0,1,.09.56c0,.06,0,.14,0,.22s.07.17.09.25,0,.26,0,.38l.08.29c0,.08,0,.16,0,.24a1.35,1.35,0,0,1,.08.24,3,3,0,0,0,0,.31c.12.47.15,1,.29,1.48,0,.06,0,.13,0,.2.11.4.2.82.32,1.21,0,.06,0,.12,0,.19s.07.28.1.42a1.25,1.25,0,0,0,0,.19c0,.14.09.28.14.42a1.55,1.55,0,0,1,0,.21c0,.05,0,.11,0,.17s0,.16.05.23,0,.09.06.14,0,.17,0,.25l.13.3c0,.08,0,.16.06.24s.12.3.17.45,0,.24.09.36.07.17.1.25,0,.12,0,.19a1.42,1.42,0,0,0,.13.23,2.54,2.54,0,0,1,0,.29,2.06,2.06,0,0,0,.12.26A2.56,2.56,0,0,1,15,65a1.24,1.24,0,0,0,.1.2,2.09,2.09,0,0,1,.08.23s.07.1.09.15.07.18.11.27a2.5,2.5,0,0,1,.09.43s0,.14,0,.15-.13-.08-.17-.14a1.65,1.65,0,0,1-.18-.32s0-.09-.05-.13-.07-.21-.11-.31l-.09-.19a2.18,2.18,0,0,0-.05-.29c0-.07-.09-.12-.12-.19a1.39,1.39,0,0,0-.06-.19,2.39,2.39,0,0,0-.12-.22,1.42,1.42,0,0,1-.05-.22c0-.09-.06-.19-.1-.28l-.13-.27s0-.1,0-.15a2,2,0,0,0-.08-.22l-.05-.15a2.56,2.56,0,0,1-.11-.24c0-.07,0-.14-.05-.21l-.12-.37a2.61,2.61,0,0,1-.06-.27l-.12-.31a2.61,2.61,0,0,1-.06-.27c0-.11-.1-.22-.14-.34s0-.19,0-.28-.13-.46-.2-.69-.09-.54-.16-.79l-.18-.54c0-.09,0-.18,0-.27s-.13-.47-.19-.68a3.43,3.43,0,0,1-.06-.34c0-.12,0-.26-.07-.39a1.35,1.35,0,0,1-.08-.24c0-.1,0-.22,0-.29s-.14-.52-.16-.6,0-.24,0-.29-.08-.23-.09-.28a.64.64,0,0,0,0-.21c0-.1-.07-.31-.08-.38a2.13,2.13,0,0,0,0-.25c0-.07-.05-.21-.08-.32s0-.26,0-.38l-.09-.26a1.56,1.56,0,0,1-.05-.22,2.44,2.44,0,0,1,0-.26c0-.07,0-.19,0-.3a1.78,1.78,0,0,0-.06-.38s0-.11,0-.16-.07-.27-.14-.26-.07,0-.05.14,0,.19.07.3a2.18,2.18,0,0,1,0,.25c0,.08,0,.1,0,.17s0,.1,0,.13a.47.47,0,0,1,0,.16v.17a.26.26,0,0,0,0,.11.79.79,0,0,1,0,.13.57.57,0,0,0,0,.13.34.34,0,0,0,0,.14.67.67,0,0,1,.06.36,1.1,1.1,0,0,0,0,.41c0,.08,0,.17,0,.25s0,.22.08.34a2.3,2.3,0,0,1,0,.26c0,.13.12.29.13.35s0,.2,0,.3,0,.2,0,.26,0,.09,0,.14.07.25.08.31,0,.09,0,.14.06.29.07.37a1.23,1.23,0,0,0,0,.19c0,.12.07.21.09.32s0,.14,0,.2.06.2.08.29a1.6,1.6,0,0,0,0,.23c0,.17.06.34.1.5s.09.19.12.28,0,.18.05.27.07.14.09.22,0,.13,0,.2a2.17,2.17,0,0,1,.07.24,1.13,1.13,0,0,0,0,.18c0,.07.05.13.07.2A2.3,2.3,0,0,0,13,61c0,.1.07.19.1.28a2.36,2.36,0,0,1,0,.28l.19.61c0,.1,0,.2.06.31l.09.19c0,.06,0,.13,0,.21s.05.28.1.4.12.25.17.38,0,.27.1.42a3.49,3.49,0,0,0,.15.34c0,.1,0,.23.06.33a3.24,3.24,0,0,0,.17.32c.05.13.08.27.12.4a1.36,1.36,0,0,0,0,.17,4.89,4.89,0,0,0,.2.48c0,.07,0,.14,0,.21a3.65,3.65,0,0,0,.14.35c.05.1.11.2.16.31s0,.18.09.28.08.2.12.3a1,1,0,0,0,.05.16c.12.27.26.53.38.78s.09.3.16.44.12.22.17.34,0,.15.07.22.16.28.22.42a.57.57,0,0,1,.05.24s0,0,0,0-.13-.06-.18-.11-.19-.47-.31-.68l-.1-.19,0-.14c-.07-.13-.16-.26-.23-.4a3.18,3.18,0,0,0-.1-.33c-.18-.41-.4-.8-.59-1.21-.08-.19-.1-.4-.17-.6s-.12-.22-.17-.34-.05-.18-.09-.27-.12-.22-.17-.35,0-.17-.07-.25-.1-.16-.14-.25a2.45,2.45,0,0,1-.11-.41,1.55,1.55,0,0,0-.08-.23c0-.07,0-.14-.05-.2s-.15-.3-.21-.46,0-.24-.08-.34-.1-.15-.14-.24,0-.21,0-.32a2.65,2.65,0,0,0-.11-.3,1.06,1.06,0,0,0,0-.19c0-.12-.09-.25-.14-.38a1.21,1.21,0,0,0-.05-.18c0-.08-.09-.15-.12-.23s0-.25-.07-.37-.11-.3-.15-.46a.66.66,0,0,1,0-.15c0-.14-.06-.29-.1-.43s0-.13,0-.19l-.13-.39c0-.08,0-.17,0-.24s-.12-.45-.19-.65,0-.11,0-.18a3.8,3.8,0,0,1-.15-.51c0-.09,0-.18,0-.27s-.07-.21-.09-.32v-.13l0-.22c-.07-.28-.18-.63-.25-.91l0-.31a.93.93,0,0,0,0-.23,2,2,0,0,1-.06-.23c0-.12,0-.24,0-.36v0c0-.14-.1-.44-.12-.56s0-.28-.05-.42a2.66,2.66,0,0,0,0-.28c0-.15-.06-.28-.08-.43A2.53,2.53,0,0,0,11,53c0-.05,0-.14-.08-.14s-.06.07-.06.14a2.68,2.68,0,0,0,0,.44c0,.18,0,.35,0,.53s0,.19.06.29l.06.5h0L11,55v0h0a.29.29,0,0,0,0,.09c0,.07,0,.12,0,.19s0,.4.1.59.11.6.19.87c0,.09,0,.17,0,.26a2.5,2.5,0,0,0,.07.26c0,.1,0,.22,0,.32s.05.2.08.3,0,.23.06.36.08.26.11.39,0,.31.06.46.1.28.13.42,0,.09,0,.14,0,.19.07.29,0,.08,0,.13.1.42.16.6a.8.8,0,0,1,0,.15,2.78,2.78,0,0,1,.09.3c0,.06,0,.13,0,.2a1.34,1.34,0,0,1,.07.27c0,.07,0,.13.05.19a1.7,1.7,0,0,0,.09.24c.06.17.06.34.12.5s.08.19.11.29,0,.2.06.31.12.34.17.5.11.39.18.57,0,.14,0,.22.11.38.17.56a2.29,2.29,0,0,0,.07.28c.06.15.14.28.2.43s.06.27.11.39l.21.51a3.58,3.58,0,0,0,.11.35c0,.1.1.2.14.3l.09.26a1.71,1.71,0,0,0,.14.26c.05.12.06.25.11.38a5.79,5.79,0,0,0,.25.57c0,.07,0,.14.06.21s.14.23.19.35.07.24.11.34a.9.9,0,0,1,.13.48s0,0,0,0-.09-.06-.12-.08a1.23,1.23,0,0,1-.22-.41c-.12-.25-.26-.49-.38-.74s-.09-.27-.15-.41-.09-.16-.13-.24A3.65,3.65,0,0,0,14.2,68a4.88,4.88,0,0,1-.22-.51c0-.06,0-.12-.06-.19s-.08-.12-.11-.19-.07-.23-.11-.34-.2-.43-.28-.65-.11-.39-.18-.59-.07-.17-.1-.26a1.6,1.6,0,0,1-.05-.21c-.07-.18-.16-.38-.24-.55a2.58,2.58,0,0,0-.08-.26c0-.12-.09-.24-.13-.35s-.05-.32-.11-.47c-.12-.33-.27-.68-.37-1,0-.07,0-.16,0-.24s-.11-.36-.16-.55-.06-.42-.12-.62-.18-.54-.26-.79a2,2,0,0,0,0-.24,5.61,5.61,0,0,0-.19-.62c0-.09,0-.19-.06-.28s-.15-.07-.14,0,0,.25,0,.3a1.81,1.81,0,0,1,0,.23c0,.14.08.25.12.38s0,.25.08.39.05.14.07.21,0,.28.08.4a2.45,2.45,0,0,1,.09.32c0,.07,0,.12,0,.19l.12.37a1.37,1.37,0,0,1,0,.19c0,.1.05.2.08.29s0,.21.06.3.11.35.17.51.07.36.13.54.22.69.34,1a2,2,0,0,1,0,.26c0,.14.07.27.12.41a1.74,1.74,0,0,0,.1.19,2.41,2.41,0,0,0,.08.25,1.63,1.63,0,0,1,.09.19c0,.1,0,.23.07.33l.1.24a2,2,0,0,0,.07.26c0,.08.08.15.11.22a1.29,1.29,0,0,1,.07.21c0,.08.07.16.1.23s0,.17.08.26.08.14.11.22,0,.17.06.25.13.24.18.36,0,.19.08.28l.16.31c.06.13.11.28.17.41s.14.48.24.71.19.33.26.5.06.19.1.28.13.18.18.28a1.54,1.54,0,0,0,.11.3c.06.13.14.25.2.37s.05.14.08.22.17.25.23.39.07.18.1.27.18.27.25.42a3.13,3.13,0,0,0,.15.32c.1.16.17.26.26.42a2.53,2.53,0,0,1,.2.36c0,.11.14.21.19.31a3.41,3.41,0,0,0,.17.33l.2.3c.12.18.19.36.3.54l.26.37c.23.32.56.88.71,1.08s.21.34.32.5.19.25.28.36l.21.31,0,.07a34.34,34.34,0,0,0,8.6,7.91h0a11.88,11.88,0,0,0,2.1,1.1c.17.07,0,.2,0,.25l-15.32,9.8c-.05,0-.17.11-.12.21s.19,0,.24,0C27.23,93.58,36.14,90,41.6,87.44s7.38-4.12,7.18-4.87M16.09,68.09a1,1,0,0,1-.09-.18c0-.07,0-.14-.06-.2l-.3-.66a.59.59,0,0,1-.06-.37s0,0,.05,0l.09.08s0,.06,0,.09.11.15.15.23.1.37.18.54.14.21.2.32l.06.19a.92.92,0,0,1,0,.16c0,.06,0,.09,0,.09s-.2-.19-.25-.3m.64,4.69s0,0-.05,0-.21-.25-.28-.36-.11-.19-.17-.29a1.1,1.1,0,0,1-.14-.21,1.31,1.31,0,0,0-.12-.27,1.47,1.47,0,0,0-.1-.13,1.74,1.74,0,0,1-.23-.4s0-.11,0-.16a2.49,2.49,0,0,1-.11-.29.57.57,0,0,1,0-.18s0,0,0,0,.25.32.31.43.17.22.23.34.07.25.13.36.13.15.18.23a2.72,2.72,0,0,1,.16.35c.06.13.15.23.2.36a.44.44,0,0,1,0,.2m3.43-.69A.27.27,0,0,1,20,72a.54.54,0,0,1-.24-.46s0,0,0,0,.31.23.37.34a.44.44,0,0,1,0,.18s0,.06,0,.07m1,0c-.1,0-.35-.25-.42-.36s-.26-.41-.4-.6a1.07,1.07,0,0,1-.3-.58s0-.12,0-.12.27.25.34.35.11.13.15.2.1.23.17.33l.28.34a.8.8,0,0,1,.15.21s.06.21,0,.23m3.61,2c-.15,0-.31-.2-.39-.3s-.1-.2-.08-.23a.43.43,0,0,1,.25.07.72.72,0,0,1,.25.42s0,0,0,0" style="fill:#006659"/><path d="M107.5,94.47l-10-20.77L87.59,94.47c-1.49,2.84-3.13,2.9-3.13,2.9l-.15.16H91.1l-.16-.16s-1.89-.37-.69-2.9L92,90.81h8.51l1.73,3.66c1.2,2.53-.7,2.9-.7,2.9l-.15.16h9.36l-.17-.16s-1.72,0-3.11-2.9M93,88.88l3.51-7.37,3.2,7.37ZM75.7,95.39c-4.88,0-8.25-3.2-8.25-9s3.27-9.65,8.43-9.65a8,8,0,0,1,7.27,4.16l.13.11V76.05a19.23,19.23,0,0,0-7.77-1.57c-8.24,0-13.41,5.08-13.41,11.89,0,5.49,4.27,11.54,13.08,11.54a26.7,26.7,0,0,0,7.19-1.31l1.79-6.09-.2.13s-2.89,4.75-8.26,4.75M195,74.84l.16.16s2,.56.49,2.91c-.74,1.15-3,4.35-5,7.44-2.05-3.09-4.25-6.31-5-7.46-1.51-2.35.5-2.89.5-2.89l.15-.16H177l.15.16s1.35.22,3.13,2.89c.74,1.13,4.54,6.44,6.58,9.54v7.06c0,2.68-1.51,2.9-1.51,2.9l-.16.16h8.12l-.16-.16s-1.51-.22-1.51-2.9c0-1.14,0-4,0-7.06,2.05-3.1,5.85-8.38,6.6-9.52C200,75.24,202,75,202,75l.15-.16ZM179,94.47,169,73.7,159.1,94.47c-1.48,2.84-3.12,2.9-3.12,2.9l-.15.16h6.79l-.15-.16s-1.9-.37-.7-2.9l1.78-3.66h8.51l1.72,3.66c1.22,2.53-.69,2.9-.69,2.9l-.15.16h9.35l-.16-.16s-1.72,0-3.11-2.9m-14.54-5.59L168,81.51l3.2,7.37Zm-53.73-14c-2.68,0-3-.26-3-.26V79.1l.15-.11a4.69,4.69,0,0,1,3.89-2h3.81V94.49c0,2.68-1.5,2.9-1.5,2.9l-.16.16H122l-.16-.16s-1.52-.22-1.52-2.9l0-17.46h3.72a4.89,4.89,0,0,1,4,2l.16.11V74.58s-.37.26-3,.26Zm42.62,19.65c0-2.68,0-14,0-16.63S154.87,75,154.87,75l.16-.15h-8.12l.15.15s1.52.19,1.52,2.87,0,6.52,0,6.52H137.42V77.86C137.42,75.18,139,75,139,75l.14-.16H131l.16.16s1.51.18,1.51,2.86V94.49c0,2.68-1.51,2.9-1.51,2.9l-.16.16h8.11l-.14-.16s-1.53-.22-1.53-2.9V86.61h11.17v7.88c0,2.68-1.51,2.9-1.51,2.9l-.16.16H155l-.15-.16s-1.52-.22-1.52-2.9m94.95,0-10-20.77-9.93,20.77c-1.48,2.84-3.12,2.9-3.12,2.9l-.15.16h6.78l-.14-.16s-1.91-.37-.7-2.9l1.78-3.66h8.5l1.73,3.66c1.21,2.53-.69,2.9-.69,2.9l-.16.16h9.36l-.16-.16s-1.72,0-3.12-2.9m-14.53-5.59,3.5-7.37,3.2,7.37Zm79.35-11V94.52c0,2.67,1.52,2.89,1.52,2.89l.15.16h-8.12l.15-.16s1.52-.22,1.52-2.89V77.89c0-2.68-1.52-2.9-1.52-2.9l-.15-.15h8.12l-.15.15s-1.52.22-1.52,2.9M272.32,90.64l.19-.13-1.78,6.09a26.7,26.7,0,0,1-7.19,1.31c-8.81,0-13.08-6-13.08-11.54,0-6.81,5.17-11.89,13.42-11.89a19.27,19.27,0,0,1,7.76,1.57V81l-.13-.11a8,8,0,0,0-7.27-4.16c-5.16,0-8.43,3.82-8.43,9.65s3.37,9,8.25,9c5.37,0,8.26-4.75,8.26-4.75m28.55-15.8c2.67,0,3.06-.26,3.06-.26v4.06l-.15-.12A4.7,4.7,0,0,0,300,77h-5.75v7.27H299c2.68,0,2.9-1.17,2.9-1.17l.16-.16V87.8l-.16-.15s-.22-1.18-2.9-1.18h-4.78v8h0c0,2.67,1.51,2.89,1.51,2.89l.16.16h-8.12l.15-.16s1.52-.22,1.52-2.89V77.89c0-2.67-1.52-2.89-1.52-2.89l-.15-.16Zm-19,3V94.52c0,2.67,1.53,2.89,1.53,2.89l.15.16h-8.12l.15-.16s1.52-.22,1.52-2.89V77.89c0-2.68-1.52-2.9-1.52-2.9l-.15-.15h8.12l-.15.15s-1.53.22-1.53,2.9m57.27,12.62-1.78,6.09a26.7,26.7,0,0,1-7.19,1.31c-8.81,0-13.09-6-13.09-11.54,0-6.81,5.18-11.89,13.42-11.89a19.35,19.35,0,0,1,7.77,1.57V81l-.13-.11a8,8,0,0,0-7.27-4.16c-5.17,0-8.44,3.82-8.44,9.65s3.38,9,8.25,9c5.39,0,8.27-4.75,8.27-4.75Zm-118.29-1a7.65,7.65,0,0,0,8-7.45c0-2-.75-5.63-5.81-6.91a16.66,16.66,0,0,0-4.05-.3h-8.9l.15.15s1.52.22,1.52,2.9V94.52c0,2.67-1.52,2.89-1.52,2.89l-.15.16h8.11l-.15-.16s-1.52-.22-1.52-2.89v-5.8a10.77,10.77,0,0,0,4.32.79m-4.32-11.62V77h1.07a13,13,0,0,1,3.47.27c2.14.63,3.23,2.27,3.23,4.83a5,5,0,0,1-5,5.23,7.24,7.24,0,0,1-2.74-.68Z" style="fill:#006659"/></svg>