<?xml version="1.0" encoding="UTF-8"?>
<svg width="120px" height="80px" viewBox="0 0 120 80" version="1.1" xmlns="http://www.w3.org/2000/svg" xmlns:xlink="http://www.w3.org/1999/xlink">
    <title>Executive-Insights-icon</title>
    <g id="Executive-Insights-icon" stroke="none" stroke-width="1" fill="none" fill-rule="evenodd">
        <path d="M106.3975,31.252 C106.3975,39.339 99.8315,45.919 91.7595,45.919 L63.7895,45.919 L63.7895,43.919 L91.7595,43.919 C98.7285,43.919 104.3975,38.236 104.3975,31.252 C104.3975,24.267 98.7285,18.585 91.7595,18.585 C91.6405,18.585 91.5245,18.564 91.4155,18.523 C91.3515,18.52 91.2615,18.518 91.1365,18.518 C90.8465,18.518 90.5715,18.392 90.3805,18.172 C90.1915,17.953 90.1055,17.663 90.1465,17.376 C90.2005,17.004 90.0535,15.707 89.8875,14.717 C89.5205,9.443 85.1875,5.388 80.0125,5.388 C78.3675,5.388 76.7375,5.801 75.2995,6.582 C74.9465,6.774 74.5085,6.735 74.1945,6.482 C71.6275,4.41 68.5375,3.315 65.2545,3.315 C60.3225,3.315 55.7995,5.812 53.1555,9.993 L51.4655,8.924 C54.4785,4.16 59.6335,1.315 65.2545,1.315 C68.7825,1.315 72.1145,2.423 74.9345,4.525 C76.5135,3.779 78.2555,3.388 80.0125,3.388 C86.2345,3.388 91.4435,8.261 91.8725,14.482 C91.9265,14.791 92.0785,15.743 92.1335,16.589 C100.0335,16.789 106.3975,23.29 106.3975,31.252 L106.3975,31.252 Z M19.0195,44.118 C18.8465,44.774 18.1695,45.169 17.5145,44.996 C17.1965,44.912 16.9305,44.71 16.7645,44.426 C16.5985,44.142 16.5535,43.81 16.6375,43.492 C16.6375,43.492 16.6375,43.492 16.6375,43.491 C16.7215,43.174 16.9235,42.907 17.2075,42.741 C17.3985,42.63 17.6105,42.573 17.8255,42.573 C17.9315,42.573 18.0375,42.587 18.1415,42.614 C18.4595,42.698 18.7265,42.9 18.8925,43.185 C19.0575,43.469 19.1035,43.801 19.0195,44.118 L19.0195,44.118 Z M19.7295,41.197 C19.4075,40.963 19.0455,40.784 18.6505,40.68 C17.8165,40.462 16.9455,40.58 16.2005,41.014 C15.4545,41.448 14.9225,42.148 14.7035,42.982 L14.7035,42.982 L14.7035,42.983 C14.4835,43.817 14.6025,44.688 15.0365,45.434 C15.4715,46.179 16.1705,46.71 17.0055,46.93 C17.2805,47.002 17.5555,47.037 17.8275,47.037 C19.2595,47.036 20.5715,46.076 20.9535,44.628 C21.1125,44.023 21.0885,43.4 20.9005,42.819 L23.9665,40.757 L22.8505,39.098 L19.7295,41.197 Z M63.6215,12.593 C63.7905,12.042 64.2985,11.687 64.8465,11.687 C64.9695,11.687 65.0955,11.705 65.2195,11.743 C65.5465,11.843 65.8155,12.065 65.9755,12.367 C66.1365,12.669 66.1695,13.015 66.0695,13.342 C65.8625,14.017 65.1475,14.398 64.4705,14.191 C63.7955,13.985 63.4155,13.268 63.6215,12.593 L63.6215,12.593 Z M76.0865,20.278 C76.4335,20.278 76.7835,20.33 77.1245,20.435 C78.0255,20.71 78.7645,21.321 79.2065,22.152 C79.6485,22.984 79.7405,23.939 79.4635,24.839 C79.1885,25.74 78.5785,26.48 77.7465,26.921 C76.9145,27.364 75.9575,27.454 75.0595,27.179 C74.1585,26.903 73.4185,26.293 72.9775,25.461 C72.5355,24.629 72.4445,23.675 72.7195,22.774 C72.9955,21.873 73.6055,21.134 74.4375,20.692 C74.9545,20.418 75.5175,20.278 76.0865,20.278 L76.0865,20.278 Z M77.2725,38.456 C77.1395,38.771 76.8935,39.016 76.5775,39.146 C76.2585,39.275 75.9115,39.273 75.5965,39.141 C75.2815,39.009 75.0365,38.762 74.9075,38.446 C74.7775,38.13 74.7795,37.782 74.9115,37.466 C75.0435,37.151 75.2905,36.906 75.6065,36.776 C75.7635,36.712 75.9275,36.681 76.0915,36.681 C76.2585,36.681 76.4265,36.714 76.5855,36.781 L76.5865,36.781 C76.9025,36.913 77.1475,37.16 77.2765,37.476 C77.4065,37.792 77.4045,38.14 77.2725,38.456 L77.2725,38.456 Z M38.8455,45.88 L38.8455,50.685 C38.8455,51.268 38.3725,51.741 37.7895,51.741 L36.2355,51.741 C35.8065,51.741 35.4255,52.016 35.2885,52.422 C35.0495,53.129 34.3935,53.605 33.6535,53.605 C32.9145,53.605 32.2575,53.13 32.0195,52.422 C31.8825,52.016 31.5015,51.741 31.0715,51.741 L29.7115,51.741 C29.1295,51.741 28.6555,51.268 28.6555,50.685 L28.6555,45.88 C28.6555,45.63 28.7645,45.405 28.9235,45.217 L38.6035,45.217 C38.7565,45.403 38.8455,45.637 38.8455,45.88 L38.8455,45.88 Z M35.6045,35.016 C35.4175,34.914 35.2205,34.826 35.0055,34.769 C34.7945,34.714 34.5845,34.693 34.3755,34.69 L33.5765,32.596 C33.4635,32.3 33.2175,32.075 32.9125,31.99 C32.6065,31.902 32.2805,31.967 32.0305,32.161 L27.4605,35.691 L28.6835,37.274 L32.1875,34.567 L32.5055,35.401 C32.1435,35.735 31.8645,36.169 31.7305,36.68 C31.3545,38.109 32.2115,39.579 33.6415,39.956 C33.8685,40.015 34.0995,40.045 34.3285,40.045 C34.7965,40.045 35.2585,39.921 35.6745,39.679 C36.2935,39.318 36.7345,38.737 36.9175,38.044 C37.0505,37.537 37.0225,37.027 36.8745,36.56 L43.6615,30.982 C43.2375,33.409 41.8785,35.716 40.6435,37.792 C39.5245,39.668 38.4665,41.456 38.1065,43.217 L29.2955,43.217 C28.9385,41.083 27.7165,39.112 26.5225,37.199 C25.0395,34.819 23.5055,32.357 23.5055,29.512 C23.5055,23.915 28.0595,19.361 33.6565,19.361 C38.8545,19.361 43.1475,23.291 43.7325,28.335 L35.6045,35.016 Z M58.6295,35.072 C59.3965,48.174 51.7225,55.114 51.6465,55.182 C51.4295,55.371 51.3055,55.646 51.3055,55.934 L51.3055,76.399 L21.8875,76.399 L21.8875,65.819 C21.8875,65.267 21.4395,64.819 20.8875,64.819 L12.8405,64.819 C8.8625,64.819 8.5535,61.714 8.5535,60.762 L8.5535,53.176 C8.5535,52.683 8.1945,52.264 7.7075,52.188 L2.7495,51.415 C3.2075,47.457 5.1535,32.091 8.4575,25.095 C12.3025,16.953 22.8165,8.766 36.8095,10.032 C44.5625,10.732 50.4185,14.111 54.1215,19.797 L45.5105,26.874 C44.3015,21.439 39.4495,17.361 33.6565,17.361 C26.9565,17.361 21.5055,22.812 21.5055,29.512 C21.5055,32.93 23.1935,35.638 24.8255,38.257 C26.0395,40.204 27.1905,42.05 27.3775,43.909 C26.9145,44.456 26.6555,45.15 26.6555,45.88 L26.6555,50.685 C26.6555,52.37 28.0265,53.741 29.7115,53.741 L30.4315,53.741 C31.0885,54.879 32.3075,55.605 33.6535,55.605 C35.0005,55.605 36.2185,54.879 36.8765,53.741 L37.7895,53.741 C39.4745,53.741 40.8455,52.37 40.8455,50.685 L40.8455,45.88 C40.8455,45.104 40.5465,44.361 40.0245,43.8 C40.2685,42.328 41.2875,40.617 42.3625,38.814 C43.9775,36.103 45.8075,33.029 45.8075,29.512 C45.8075,29.417 45.7945,29.325 45.7935,29.231 L55.1515,21.539 C57.1265,25.245 58.3185,29.769 58.6295,35.072 L58.6295,35.072 Z M86.3295,24.687 C86.5355,24.197 87.0115,23.901 87.5125,23.901 C87.6765,23.901 87.8445,23.933 88.0045,24.001 C88.6565,24.273 88.9635,25.025 88.6905,25.676 C88.5585,25.991 88.3115,26.236 87.9955,26.366 C87.6795,26.496 87.3315,26.494 87.0155,26.361 C86.3645,26.089 86.0565,25.337 86.3295,24.687 L86.3295,24.687 Z M63.8845,16.104 C64.2045,16.201 64.5255,16.248 64.8425,16.248 C65.6335,16.248 66.3855,15.951 66.9745,15.447 L71.9855,20.129 C71.4575,20.719 71.0455,21.409 70.8075,22.189 C70.3755,23.6 70.5185,25.095 71.2105,26.399 C71.9035,27.703 73.0625,28.659 74.4735,29.091 C74.6775,29.154 74.8845,29.193 75.0915,29.232 L75.0915,34.853 C75.0105,34.879 74.9275,34.893 74.8485,34.926 C74.0385,35.257 73.4055,35.885 73.0675,36.693 C72.7285,37.501 72.7235,38.393 73.0555,39.204 C73.3875,40.014 74.0155,40.648 74.8235,40.986 C75.2325,41.157 75.6625,41.242 76.0915,41.242 C76.5125,41.242 76.9335,41.16 77.3345,40.997 C78.1455,40.665 78.7785,40.037 79.1165,39.229 C79.4555,38.421 79.4595,37.529 79.1275,36.718 C78.7955,35.907 78.1675,35.274 77.3585,34.936 C77.2715,34.899 77.1805,34.882 77.0915,34.854 L77.0915,29.235 C77.6405,29.133 78.1775,28.957 78.6845,28.688 C79.8475,28.07 80.7105,27.068 81.1945,25.86 L81.1935,25.943 L84.3455,25.992 C84.5925,26.952 85.2585,27.794 86.2425,28.206 C86.6505,28.377 87.0805,28.463 87.5095,28.463 C87.9305,28.463 88.3515,28.381 88.7525,28.217 C89.5645,27.885 90.1975,27.257 90.5365,26.449 C91.2345,24.781 90.4455,22.855 88.7785,22.156 C87.1095,21.457 85.1855,22.246 84.4855,23.914 C84.4745,23.94 84.4715,23.967 84.4605,23.993 L81.5935,23.949 C81.6205,23.007 81.4265,22.069 80.9725,21.214 C80.2805,19.911 79.1215,18.955 77.7105,18.523 C76.3285,18.098 74.8705,18.235 73.5865,18.889 L68.0285,13.696 C68.2055,12.927 68.1165,12.131 67.7425,11.428 C67.3315,10.655 66.6435,10.087 65.8055,9.831 C64.0735,9.302 62.2395,10.278 61.7095,12.007 C61.5435,12.548 61.5405,13.095 61.6455,13.613 L55.7125,18.489 C51.7005,12.412 45.3675,8.797 36.9885,8.04 C21.9595,6.686 10.9195,15.198 6.6485,24.241 C2.7125,32.576 0.7365,51.357 0.6545,52.153 C0.5995,52.683 0.9695,53.162 1.4955,53.244 L6.5535,54.032 L6.5535,60.762 C6.5535,63.777 8.4975,66.819 12.8405,66.819 L19.8875,66.819 L19.8875,77.399 C19.8875,77.952 20.3345,78.399 20.8875,78.399 L52.3055,78.399 C52.8575,78.399 53.3055,77.952 53.3055,77.399 L53.3055,56.365 C54.9035,54.793 61.3665,47.61 60.6255,34.955 C60.2865,29.165 58.9645,24.234 56.7605,20.216 L62.6415,15.382 C62.9905,15.701 63.4045,15.957 63.8845,16.104 L63.8845,16.104 Z" id="Fill-1" fill="#AAB7B8"></path>
    </g>
</svg>