<?xml version="1.0" encoding="UTF-8"?>
<svg width="48px" height="48px" viewBox="0 0 48 48" version="1.1" xmlns="http://www.w3.org/2000/svg" xmlns:xlink="http://www.w3.org/1999/xlink">
    <!-- Generator: Sketch 63.1 (92452) - https://sketch.com -->
    <title>icon/ Cloud native</title>
    <desc>Created with Sketch.</desc>
    <g id="页面-1" stroke="none" stroke-width="1" fill="none" fill-rule="evenodd">
        <g id="切图" transform="translate(-804.000000, -263.000000)">
            <g id="icon/-Cloud-native" transform="translate(807.000000, 266.000000)">
                <path d="M2,30.6 C2,35.2391919 5.7608081,39 10.4,39 L41,39 L41,39 L41,23.8 C41,18.2771525 36.5228475,13.8 31,13.8 L28.4642857,13.8 L28.4642857,13.8 L28.4642857,20.8 L15.9571429,20.8 C12.8643483,20.8 10.3571429,23.3072054 10.3571429,26.4 C10.3571429,29.4927946 12.8643483,32 15.9571429,32 L25.25,32 C28.5637085,32 31.25,29.3137085 31.25,26 L31.25,20.8 L31.25,20.8 L28.4642857,20.8 L28.4642857,14 C28.4642857,8.4771525 23.9871332,4 18.4642857,4 L13.1428571,4 L13.1428571,4 L13.1428571,12.4 L13.1428571,13.8 L17.3214286,13.8 L11.0535714,13.8 L10.4,13.8 C5.7608081,13.8 2,17.5608081 2,22.2 L2,22.2 L2,22.2" id="Path-6" stroke="#252B3A" stroke-width="2.2"></path>
                <path d="M13.1428571,13.8 L17.3214286,13.8 L11.0535714,13.8 L10.4,13.8 C5.7608081,13.8 2,17.5608081 2,22.2 L2,22.2 L2,22.2" id="Path-6" stroke="#ABBAC4" stroke-width="2.2"></path>
                <path d="M10.3571429,26.4 C10.3571429,29.4927946 12.8643483,32 15.9571429,32 L25.25,32 C28.5637085,32 31.25,29.3137085 31.25,26 L31.25,20.8 L31.25,20.8 L15.9571429,20.8 C12.8643483,20.8 10.3571429,23.3072054 10.3571429,26.4 Z" id="Path-6" stroke="#ff9d00" stroke-width="2.2"></path>
                <path d="M29,24 L16.5,24 C14.0147186,24 12,26.0147186 12,28.5 C12,30.9852814 14.0147186,33 16.5,33 L25,33 C27.209139,33 29,31.209139 29,29 L29,24 L29,24 Z" id="Path-7" fill="#ABBAC4"></path>
                <g id="编组-3" transform="translate(11.357143, 29.800000)" fill="#7F000C" fill-rule="nonzero">
                    <path d="M0.898217883,0.198135479 C1.42653635,0.753683933 2.17282495,1.1 3,1.1 L3,1.1 L15.8928571,1.1 C16.4235314,1.1 16.9209138,0.957460973 17.3488071,0.708580328 C16.753866,2.16939803 15.3187166,3.2 13.6428571,3.2 L13.6428571,3.2 L5.14285714,3.2 C3.22564008,3.2 1.58845587,2.00103683 0.940193618,0.311999602 Z" id="形状结合"></path>
                </g>
            </g>
        </g>
    </g>
</svg>