<?xml version="1.0" encoding="UTF-8"?>
<svg width="48px" height="48px" viewBox="0 0 48 48" version="1.1" xmlns="http://www.w3.org/2000/svg" xmlns:xlink="http://www.w3.org/1999/xlink">
    <!-- Generator: Sketch 63.1 (92452) - https://sketch.com -->
    <title>icon/kunpeng</title>
    <desc>Created with Sketch.</desc>
    <g id="页面-1" stroke="none" stroke-width="1" fill="none" fill-rule="evenodd">
        <g id="切图" transform="translate(-101.000000, -263.000000)">
            <g id="icon/kunpeng" transform="translate(101.000000, 263.000000)">
                <rect id="矩形" stroke="#979797" fill="#D8D8D8" opacity="0" x="0" y="0" width="48" height="48"></rect>
                <g id="编组-48" transform="translate(3.840000, 3.840000)">
                    <path d="M20.16,0 C9.02593944,0 0,9.02593944 0,20.16 C0,31.2940606 9.02593944,40.32 20.16,40.32 C31.2940606,40.32 40.32,31.2940606 40.32,20.16 C40.32,14.8230288 38.2461613,9.97042852 34.8603751,6.36409054" id="形状" stroke="#252B3A" stroke-width="2.2"></path>
                    <g id="编组-74" transform="translate(3.072000, 7.104000)">
                        <path d="M20.7673844,28.9398815 L8.1329149,20.1929411 C8.08750648,20.1615045 8.07618008,20.0992093 8.10761668,20.0538009 C8.11417891,20.0443221 8.12233081,20.0360494 8.13171208,20.0293485 L28.4989355,5.48133177 C28.5438768,5.44923087 28.6063318,5.45964004 28.6384327,5.50458129 C28.6652886,5.54217963 28.6628891,5.59328176 28.6326283,5.62819817 L16.1258323,20.0591166 C16.0983121,20.0908706 16.0935788,20.1364418 16.1139855,20.1731739 L20.9117211,28.809098 C20.9385424,28.8573763 20.921148,28.9182567 20.8728697,28.945078 C20.8395859,28.963569 20.7986895,28.9615543 20.7673844,28.9398815 Z" id="路径-50" stroke="#252B3A" stroke-width="2"></path>
                        <path d="M0.959467924,13.2363683 L4.02231709,16.121661 C4.05611007,16.153495 4.10736843,16.1578844 4.14608183,16.1322595 L26.7450966,1.17364484 C26.7911502,1.14316127 26.8037722,1.08111562 26.7732887,1.03506199 C26.7467037,0.994898207 26.695265,0.979392038 26.6509116,0.998171457 L5.12959487,10.1103886 C5.10315121,10.1215849 5.08279699,10.143609 5.07371611,10.1708517 L4.103496,13.081512 C4.08954651,13.1233605 4.04982395,13.1511253 4.00573033,13.1498473 L1.03093463,13.0636213 C0.975729337,13.0620211 0.929679427,13.1054767 0.928079274,13.160682 C0.927251621,13.189236 0.938675016,13.2167808 0.959467924,13.2363683 Z" id="路径-51" fill="#ABBAC4"></path>
                        <path d="M1.28093529,14.3207482 L5.93860237,18.0468819 C5.97463234,18.0757059 6.02570605,18.0761362 6.06221663,18.0479235 L27.2759236,1.65551356 C27.3196251,1.62174425 27.3276767,1.55894177 27.2939074,1.51524031 C27.2642537,1.47686491 27.2113389,1.4652987 27.1683782,1.48780191 L7.04371717,12.029291 C7.02080202,12.0412942 7.00342988,12.0617104 6.99524954,12.0862514 L6.02791602,14.9882519 C6.01196792,15.0360962 5.96288905,15.0645778 5.91343608,15.0546872 L1.36301641,14.1446033 C1.30886043,14.1337721 1.25617792,14.1688938 1.24534672,14.2230497 C1.23801507,14.259708 1.2517431,14.2973945 1.28093529,14.3207482 Z" id="路径-51" stroke="#ff9d00" stroke-width="2"></path>
                    </g>
                    <path d="M30.5832288,2.900157 C29.3648661,2.16280721 28.0621562,1.55082087 26.6929813,1.08208012" id="路径" stroke="#ABBAC4" stroke-width="2.2"></path>
                </g>
            </g>
        </g>
    </g>
</svg>