<?xml version="1.0" encoding="UTF-8"?>
<svg width="48px" height="48px" viewBox="0 0 48 48" version="1.1" xmlns="http://www.w3.org/2000/svg" xmlns:xlink="http://www.w3.org/1999/xlink">
    <!-- Generator: Sketch 63.1 (92452) - https://sketch.com -->
    <title>icon/LOT</title>
    <desc>Created with Sketch.</desc>
    <defs>
        <rect id="path-1" x="0" y="0" width="48" height="48"></rect>
    </defs>
    <g id="页面-1" stroke="none" stroke-width="1" fill="none" fill-rule="evenodd">
        <g id="切图" transform="translate(-574.000000, -263.000000)">
            <g id="icon/LOT" transform="translate(572.000000, 263.000000)">
                <mask id="mask-2" fill="white">
                    <use xlink:href="#path-1"></use>
                </mask>
                <use id="矩形" stroke="#979797" fill="#D8D8D8" opacity="0" xlink:href="#path-1"></use>
                <path d="M8.34782609,33.7952314 C16.6956522,25.4474053 25.7391304,24.9414765 35.4782609,32.2774449" id="路径-37" stroke="#ABBAC4" stroke-width="2" mask="url(#mask-2)" transform="translate(21.913043, 30.462833) scale(1, -1) translate(-21.913043, -30.462833) "></path>
                <g id="编组-9" mask="url(#mask-2)" stroke-width="2">
                    <g transform="translate(12.616601, 8.442688)">
                        <path d="M0.0948616601,14.4434528 C8.44268775,6.09562667 17.486166,5.58969782 27.2252964,12.9256662" id="路径-37" stroke="#ff9d00" transform="translate(13.660079, 11.111054) scale(-1, 1) translate(-13.660079, -11.111054) "></path>
                        <path d="M8.11067194,0.28458498 C1.56521739,11.1936759 0.837944664,20.6482213 5.92885375,28.6482213" id="路径-27" stroke="#252B3A"></path>
                        <path d="M19.0197628,3.55731225 C12.4743083,14.4664032 11.7470356,23.9209486 16.8379447,31.9209486" id="路径-27" stroke="#252B3A" transform="translate(16.258399, 17.739130) scale(-1, -1) translate(-16.258399, -17.739130) "></path>
                    </g>
                </g>
                <g id="Group-3" mask="url(#mask-2)">
                    <g transform="translate(3.177866, 3.177866)">
                        <path d="M4.89033428,29.2132698 C6.52017149,33.183062 9.44988918,36.4233295 13.1147464,38.3396081 M28.764833,38.2142038 C32.4265737,36.2256675 35.3291617,32.9050867 36.8943427,28.86115 M36.5866227,14.3430729 C34.8639662,10.4070897 31.850112,7.22638201 28.1165218,5.4024887 M12.8964592,5.72746897 C8.92053581,7.88075938 5.83742397,11.6035793 4.38593556,16.118232" id="形状" stroke="#404042" stroke-width="2"></path>
                        <ellipse id="椭圆形" stroke="#404042" stroke-width="2" cx="19.9090909" cy="3.7145829" rx="2.73913043" ry="2.88329519"></ellipse>
                        <ellipse id="椭圆形备份-2" stroke="#404042" stroke-width="1.5" cx="21.7351779" cy="39.2752236" rx="2.73913043" ry="2.88329519"></ellipse>
                        <ellipse id="椭圆形备份-3" stroke="#ABBAC4" stroke-width="2" cx="3.4743083" cy="22.9365509" rx="2.73913043" ry="2.88329519"></ellipse>
                        <ellipse id="椭圆形备份-4" stroke="#ff9d00" stroke-width="2" cx="38.1699605" cy="21.0143541" rx="2.73913043" ry="2.88329519"></ellipse>
                    </g>
                </g>
                <path d="M28.7104897,15.3838231 C29.590374,15.5386712 30.4638197,15.7645494 31.3305039,16.0614558 C31.639055,16.928124 31.8895613,17.8087286 32.0827634,18.7031382 C31.2617975,18.3324971 30.435551,18.0362984 29.6031038,17.8139634 C29.3686799,17.0132423 29.0811297,16.2256394 28.7410394,15.4515065 Z" id="形状结合" fill="#7F000C" fill-rule="nonzero" mask="url(#mask-2)"></path>
                <path d="M17.0911683,19.7472467 L16.9502162,19.8232251 C16.1462886,20.2663516 15.3359195,20.7681217 14.5188312,21.3285336 C14.6959804,20.3315673 14.9330177,19.3201656 15.228736,18.2951471 C16.1499751,17.7558427 17.0668304,17.2855395 17.9786795,16.884149 C17.6270858,17.8540789 17.3317793,18.8080041 17.0911683,19.7472467 Z" id="形状结合" fill="#7F000C" fill-rule="nonzero" mask="url(#mask-2)"></path>
            </g>
        </g>
    </g>
</svg>