<svg xmlns="http://www.w3.org/2000/svg" width="600" height="400" viewBox="0 0 600 400"><title>Netflix</title><path d="M114.77,260.81c-7.69,1.37-15.51,1.78-23.6,2.87L66.49,190.59v76.22c-7.69.82-14.7,1.91-22,3V130.18H65l28.05,79.23V130.18h21.71V260.81Zm42.48-79.49c8.37,0,21.17-.41,28.86-.41v21.81c-9.58,0-20.77,0-28.86.41v32.45c12.68-.81,25.35-1.9,38.17-2.32v21L135.67,259V130.18h59.75V152H157.25v29.32ZM275.66,152H253.27V252.36c-7.28,0-14.56,0-21.58.27V152H209.31V130.18h66.35V152Zm35.06,27.82h29.53v21.81H310.72v49.5H289.55V130.18h60.28V152H310.72v27.82ZM384.89,232c12.27.28,24.68,1.23,36.68,1.91V255.5c-19.28-1.23-38.56-2.46-58.25-2.87V130.18h21.57Zm54.89,25c6.88.41,14.16.82,21.17,1.63V130.18H439.78ZM555.49,130.18l-27.38,66.41,27.38,73.23c-8.09-1.1-16.19-2.59-24.27-4L515.7,225.5l-15.77,37.09c-7.82-1.37-15.38-1.78-23.19-2.87l27.78-64-25.09-65.59h23.19l14.17,36.68,15.1-36.68Z" style="fill:#e52214"/></svg>