<?xml version="1.0" encoding="UTF-8"?>
<svg width="64px" height="64px" viewBox="0 0 64 64" version="1.1" xmlns="http://www.w3.org/2000/svg" xmlns:xlink="http://www.w3.org/1999/xlink">
    <!-- Generator: Sketch 52.5 (67469) - http://www.bohemiancoding.com/sketch -->
    <title>数据可靠</title>
    <desc>Created with Sketch.</desc>
    <defs>
        <path d="M25.2484167,22.6916361 L31.7318452,16.4822521 C32.4115502,15.8312771 33.4834259,15.8312771 34.1631309,16.4822521 C34.8061337,17.0980761 34.8281664,18.1185569 34.2123424,18.7615596 C34.1962946,18.7783157 34.1798869,18.7947233 34.1631309,18.8107711 L26.4640595,26.1844146 C25.7843545,26.8353895 24.7124788,26.8353895 24.0327738,26.1844146 L19.1702024,21.5273766 C18.5271997,20.9115526 18.5051669,19.8910718 19.120991,19.248069 C19.1370387,19.231313 19.1534464,19.2149054 19.1702024,19.1988576 C19.8499074,18.5478826 20.9217831,18.5478826 21.6014881,19.1988576 L25.2484167,22.6916361 Z" id="path-1"></path>
        <filter x="-150.0%" y="-225.1%" width="399.9%" height="550.1%" filterUnits="objectBoundingBox" id="filter-2">
            <feOffset dx="0" dy="0" in="SourceAlpha" result="shadowOffsetOuter1"></feOffset>
            <feGaussianBlur stdDeviation="8" in="shadowOffsetOuter1" result="shadowBlurOuter1"></feGaussianBlur>
            <feColorMatrix values="0 0 0 0 0.904420732   0 0 0 0 0.927057927   0 0 0 0 1  0 0 0 1 0" type="matrix" in="shadowBlurOuter1" result="shadowMatrixOuter1"></feColorMatrix>
            <feOffset dx="0" dy="0" in="SourceAlpha" result="shadowOffsetOuter2"></feOffset>
            <feGaussianBlur stdDeviation="4.5" in="shadowOffsetOuter2" result="shadowBlurOuter2"></feGaussianBlur>
            <feColorMatrix values="0 0 0 0 1   0 0 0 0 1   0 0 0 0 1  0 0 0 1 0" type="matrix" in="shadowBlurOuter2" result="shadowMatrixOuter2"></feColorMatrix>
            <feOffset dx="0" dy="0" in="SourceAlpha" result="shadowOffsetOuter3"></feOffset>
            <feGaussianBlur stdDeviation="1" in="shadowOffsetOuter3" result="shadowBlurOuter3"></feGaussianBlur>
            <feColorMatrix values="0 0 0 0 1   0 0 0 0 1   0 0 0 0 1  0 0 0 1 0" type="matrix" in="shadowBlurOuter3" result="shadowMatrixOuter3"></feColorMatrix>
            <feMerge>
                <feMergeNode in="shadowMatrixOuter1"></feMergeNode>
                <feMergeNode in="shadowMatrixOuter2"></feMergeNode>
                <feMergeNode in="shadowMatrixOuter3"></feMergeNode>
            </feMerge>
        </filter>
    </defs>
    <g id="数据可靠" stroke="none" stroke-width="1" fill="none" fill-rule="evenodd">
        <g id="2">
            <g transform="translate(0.000000, 3.000000)" id="编组-2">
                <g>
                    <path d="M3,-1.42108547e-14 L50.3333333,-1.46549439e-14 C51.9901876,-1.05445565e-14 53.3333333,1.34314575 53.3333333,3 L53.3333333,39.6666667 C53.3333333,41.3235209 51.9901876,42.6666667 50.3333333,42.6666667 L3,42.6666667 C1.34314575,42.6666667 2.98186766e-13,41.3235209 2.9798386e-13,39.6666667 L2.9798386e-13,3 C2.97780954e-13,1.34314575 1.34314575,-1.43505847e-14 3,-1.46549439e-14 Z" id="矩形" fill="#96ADFA"></path>
                    <path d="M19,31.5 L61,31.5 C62.9329966,31.5 64.5,33.0670034 64.5,35 L64.5,55.6666667 C64.5,57.5996633 62.9329966,59.1666667 61,59.1666667 L19,59.1666667 C17.0670034,59.1666667 15.5,57.5996633 15.5,55.6666667 L15.5,35 C15.5,33.0670034 17.0670034,31.5 19,31.5 Z" id="矩形复制-3" stroke="#FAFAFA" fill="#2A3C85"></path>
                    <path d="M53.3333333,32 L53.3333333,39.6666667 C53.3333333,41.3235209 51.9901876,42.6666667 50.3333333,42.6666667 L16,42.6666667 L16,35 C16,33.3431458 17.3431458,32 19,32 L53.3333333,32 Z" id="形状结合" fill="#6581E1"></path>
                    <g id="合并形状">
                        <use fill="black" fill-opacity="1" filter="url(#filter-2)" xlink:href="#path-1"></use>
                        <use fill="#FFFFFF" fill-rule="evenodd" xlink:href="#path-1"></use>
                    </g>
                </g>
            </g>
        </g>
    </g>
</svg>