<svg id="LOGOS_-_Actual_Logos" data-name="LOGOS - Actual Logos" xmlns="http://www.w3.org/2000/svg" xmlns:xlink="http://www.w3.org/1999/xlink" width="200" height="100" viewBox="0 0 200 100"><defs><linearGradient id="New_Gradient_Swatch_1" x1="109373.54" y1="113347.09" x2="110798.36" y2="113347.09" gradientTransform="translate(-3510.45 -3691.31) scale(0.03)" gradientUnits="userSpaceOnUse"><stop offset="0" stop-color="#163d71"/><stop offset="1" stop-color="#008fd0"/></linearGradient><linearGradient id="New_Gradient_Swatch_1-2" x1="109373.37" y1="113195.09" x2="110798.36" y2="113195.09" xlink:href="#New_Gradient_Swatch_1"/><linearGradient id="New_Gradient_Swatch_1-3" x1="109373.49" y1="113485.87" x2="110798.35" y2="113485.87" xlink:href="#New_Gradient_Swatch_1"/><linearGradient id="New_Gradient_Swatch_1-4" x1="109373.54" y1="113611.46" x2="110798.36" y2="113611.46" xlink:href="#New_Gradient_Swatch_1"/><linearGradient id="New_Gradient_Swatch_1-5" x1="109373.3" y1="113722.51" x2="110798.36" y2="113722.51" xlink:href="#New_Gradient_Swatch_1"/><linearGradient id="New_Gradient_Swatch_1-6" x1="109373.27" y1="113183.2" x2="110798.37" y2="113183.2" xlink:href="#New_Gradient_Swatch_1"/><linearGradient id="New_Gradient_Swatch_1-7" x1="109373.35" y1="112996.83" x2="110798.35" y2="112996.83" xlink:href="#New_Gradient_Swatch_1"/><linearGradient id="New_Gradient_Swatch_1-8" x1="109373.64" y1="113534.8" x2="110798.33" y2="113534.8" xlink:href="#New_Gradient_Swatch_1"/><linearGradient id="New_Gradient_Swatch_1-9" x1="109373.42" y1="113430.38" x2="110798.36" y2="113430.38" xlink:href="#New_Gradient_Swatch_1"/><linearGradient id="New_Gradient_Swatch_1-10" x1="109373.42" y1="113372.2" x2="110798.33" y2="113372.2" xlink:href="#New_Gradient_Swatch_1"/><linearGradient id="New_Gradient_Swatch_1-11" x1="109373.39" y1="113311.4" x2="110798.35" y2="113311.4" xlink:href="#New_Gradient_Swatch_1"/><linearGradient id="New_Gradient_Swatch_1-12" x1="109373.31" y1="112996.83" x2="110798.38" y2="112996.83" xlink:href="#New_Gradient_Swatch_1"/><linearGradient id="New_Gradient_Swatch_1-13" x1="109373.3" y1="112996.83" x2="110798.36" y2="112996.83" xlink:href="#New_Gradient_Swatch_1"/><linearGradient id="New_Gradient_Swatch_1-14" x1="109373.26" y1="113275.72" x2="110798.23" y2="113275.72" xlink:href="#New_Gradient_Swatch_1"/><linearGradient id="New_Gradient_Swatch_1-15" x1="109373.31" y1="113169.98" x2="110798.35" y2="113169.98" xlink:href="#New_Gradient_Swatch_1"/><linearGradient id="New_Gradient_Swatch_1-16" x1="124912.06" y1="129173.32" x2="126337.03" y2="129173.32" gradientTransform="translate(-3474.78 -3690.16) scale(0.03)" xlink:href="#New_Gradient_Swatch_1"/><linearGradient id="New_Gradient_Swatch_1-17" x1="124912" y1="129040.94" x2="126337.08" y2="129040.94" gradientTransform="translate(-3474.78 -3690.16) scale(0.03)" xlink:href="#New_Gradient_Swatch_1"/><linearGradient id="New_Gradient_Swatch_1-18" x1="124912" y1="128839.29" x2="126337.05" y2="128839.29" gradientTransform="translate(-3474.78 -3690.16) scale(0.03)" xlink:href="#New_Gradient_Swatch_1"/><linearGradient id="New_Gradient_Swatch_1-19" x1="124912.02" y1="129098.07" x2="126337.03" y2="129098.07" gradientTransform="translate(-3474.78 -3690.16) scale(0.03)" xlink:href="#New_Gradient_Swatch_1"/><linearGradient id="New_Gradient_Swatch_1-20" x1="124912" y1="129222.99" x2="126336.99" y2="129222.99" gradientTransform="translate(-3474.78 -3690.16) scale(0.03)" xlink:href="#New_Gradient_Swatch_1"/><linearGradient id="New_Gradient_Swatch_1-21" x1="124912" y1="129388.52" x2="126337.42" y2="129388.52" gradientTransform="translate(-3474.78 -3690.16) scale(0.03)" xlink:href="#New_Gradient_Swatch_1"/><linearGradient id="New_Gradient_Swatch_1-22" x1="124912.06" y1="129311.79" x2="126336.88" y2="129311.79" gradientTransform="translate(-3474.78 -3690.16) scale(0.03)" xlink:href="#New_Gradient_Swatch_1"/><linearGradient id="New_Gradient_Swatch_1-23" x1="124912.04" y1="128861.86" x2="126336.98" y2="128861.86" gradientTransform="translate(-3474.78 -3690.16) scale(0.03)" xlink:href="#New_Gradient_Swatch_1"/><linearGradient id="New_Gradient_Swatch_1-24" x1="124912.02" y1="129423.11" x2="126337.07" y2="129423.11" gradientTransform="translate(-3474.78 -3690.16) scale(0.03)" xlink:href="#New_Gradient_Swatch_1"/><linearGradient id="New_Gradient_Swatch_1-25" x1="124912.01" y1="129653.36" x2="126337.05" y2="129653.36" gradientTransform="translate(-3474.78 -3690.16) scale(0.03)" xlink:href="#New_Gradient_Swatch_1"/><linearGradient id="New_Gradient_Swatch_1-26" x1="124912.04" y1="129504.39" x2="126336.9" y2="129504.39" gradientTransform="translate(-3474.78 -3690.16) scale(0.03)" xlink:href="#New_Gradient_Swatch_1"/><linearGradient id="New_Gradient_Swatch_1-27" x1="124912" y1="129677.45" x2="126337.2" y2="129677.45" gradientTransform="translate(-3474.78 -3690.16) scale(0.03)" xlink:href="#New_Gradient_Swatch_1"/><linearGradient id="New_Gradient_Swatch_1-28" x1="124912" y1="129533.03" x2="126337.7" y2="129533.03" gradientTransform="translate(-3474.78 -3690.16) scale(0.03)" xlink:href="#New_Gradient_Swatch_1"/><linearGradient id="New_Gradient_Swatch_1-29" x1="124912" y1="129660.91" x2="126337.52" y2="129660.91" gradientTransform="translate(-3474.78 -3690.16) scale(0.03)" xlink:href="#New_Gradient_Swatch_1"/><linearGradient id="New_Gradient_Swatch_1-30" x1="124912" y1="129830.92" x2="126337.59" y2="129830.92" gradientTransform="translate(-3474.78 -3690.16) scale(0.03)" xlink:href="#New_Gradient_Swatch_1"/><linearGradient id="New_Gradient_Swatch_1-31" x1="124912.02" y1="129856.52" x2="126336.97" y2="129856.52" gradientTransform="translate(-3474.78 -3690.16) scale(0.03)" xlink:href="#New_Gradient_Swatch_1"/><linearGradient id="New_Gradient_Swatch_1-32" x1="124912.03" y1="128888.96" x2="126337.04" y2="128888.96" gradientTransform="translate(-3474.78 -3690.16) scale(0.03)" xlink:href="#New_Gradient_Swatch_1"/><linearGradient id="New_Gradient_Swatch_1-33" x1="124912" y1="130041.6" x2="126336.97" y2="130041.6" gradientTransform="translate(-3474.78 -3690.16) scale(0.03)" xlink:href="#New_Gradient_Swatch_1"/></defs><title>200x100_Finra</title><path d="M134.58,40.25V36l-6-.61,1.31,3.56Z" style="fill-rule:evenodd;fill:url(#New_Gradient_Swatch_1)"/><path d="M134.58,35.29v-5h-7.82l1.56,4.18Z" style="fill-rule:evenodd;fill:url(#New_Gradient_Swatch_1-2)"/><path d="M134.58,44.94V41l-4.35-1.22,1.31,3.39Z" style="fill-rule:evenodd;fill:url(#New_Gradient_Swatch_1-3)"/><path d="M134.58,48.86V45.73l-2.69-1.57,1,2.79Z" style="fill-rule:evenodd;fill:url(#New_Gradient_Swatch_1-4)"/><path d="M134.58,51.56V49.9l-1-1.13Z" style="fill-rule:evenodd;fill:url(#New_Gradient_Swatch_1-5)"/><path d="M127.54,34.51,126,30.33h-8.09l3.05,3.4Z" style="fill-rule:evenodd;fill:url(#New_Gradient_Swatch_1-6)"/><path d="M125.8,29.64l-2.52-6.7H111.19l6,6.7Z" style="fill-rule:evenodd;fill:url(#New_Gradient_Swatch_1-7)"/><path d="M130.93,43.64l-2-1.13,2.61,3Z" style="fill-rule:evenodd;fill:url(#New_Gradient_Swatch_1-8)"/><path d="M130.58,42.68l-1.22-3-4.26-1.22,2.35,2.52Z" style="fill-rule:evenodd;fill:url(#New_Gradient_Swatch_1-9)"/><path d="M125.45,39.81,123.8,38l-1.74-.53,2.78,2Z" style="fill-rule:evenodd;fill:url(#New_Gradient_Swatch_1-10)"/><path d="M124.15,37.29l4.95,1.48-1.3-3.57-6.18-.69Z" style="fill-rule:evenodd;fill:url(#New_Gradient_Swatch_1-11)"/><path d="M99.18,26.59c2.79,1,5.48,2,8,3.05h9.13l-6.09-6.7H87.79C91.88,24.16,95.53,25.37,99.18,26.59Z" style="fill-rule:evenodd;fill:url(#New_Gradient_Swatch_1-12)"/><path d="M134.58,29.64v-6.7H124.06l2.43,6.7Z" style="fill-rule:evenodd;fill:url(#New_Gradient_Swatch_1-13)"/><path d="M116.14,33.9l3.92,2.26,2.78.87-2.26-2.61Z" style="fill-rule:evenodd;fill:url(#New_Gradient_Swatch_1-14)"/><path d="M119.8,33.64l-2.87-3.31h-8l5.4,2.61Z" style="fill-rule:evenodd;fill:url(#New_Gradient_Swatch_1-15)"/><path d="M160.07,47.55l7.39-7.82-12.78-1.4-4.35,6.44Z" style="fill-rule:evenodd;fill:url(#New_Gradient_Swatch_1-16)"/><path d="M143,36.94l-7.65-.87v4.44l5.74,1.65Z" style="fill-rule:evenodd;fill:url(#New_Gradient_Swatch_1-17)"/><path d="M135.37,30.33v5.05l7.91.87,2.18-5.92Z" style="fill-rule:evenodd;fill:url(#New_Gradient_Swatch_1-18)"/><path d="M143.72,37l-1.83,5.3,7.74,2.18,4.26-6.35Z" style="fill-rule:evenodd;fill:url(#New_Gradient_Swatch_1-19)"/><path d="M135.37,45.29l3.91,2.26,1.65-4.78-5.56-1.56Z" style="fill-rule:evenodd;fill:url(#New_Gradient_Swatch_1-20)"/><path d="M135.37,46.16v3.48l2.26,2.52,1.39-4Z" style="fill-rule:evenodd;fill:url(#New_Gradient_Swatch_1-21)"/><path d="M141.63,43l-1.74,4.79,5.48,3,3.83-5.74Z" style="fill-rule:evenodd;fill:url(#New_Gradient_Swatch_1-22)"/><path d="M144.06,36.34l10.35,1.21,4.79-7.22h-13Z" style="fill-rule:evenodd;fill:url(#New_Gradient_Swatch_1-23)"/><path d="M146,51.21,152.85,55l6.61-6.87-9.57-2.7Z" style="fill-rule:evenodd;fill:url(#New_Gradient_Swatch_1-24)"/><path d="M152.33,55.47l-6.79-3.65L142.06,57l4.27,4.79Z" style="fill-rule:evenodd;fill:url(#New_Gradient_Swatch_1-25)"/><path d="M141.54,56.51l3.48-5-5.3-3-1.57,4.26Z" style="fill-rule:evenodd;fill:url(#New_Gradient_Swatch_1-26)"/><path d="M137.89,53.56,136.67,57l1.57,4.44,2.87-4.35Z" style="fill-rule:evenodd;fill:url(#New_Gradient_Swatch_1-27)"/><path d="M136.24,56l1-3.13-1.91-2.17v2.87Z" style="fill-rule:evenodd;fill:url(#New_Gradient_Swatch_1-28)"/><path d="M135.89,57l-.52-1.47v2.95Z" style="fill-rule:evenodd;fill:url(#New_Gradient_Swatch_1-29)"/><path d="M136.24,58.08l-.87,2.61v5.13l2.35-3.57Z" style="fill-rule:evenodd;fill:url(#New_Gradient_Swatch_1-30)"/><path d="M141.63,57.64l-3.13,4.61,2.09,5.48,5.21-5.48Z" style="fill-rule:evenodd;fill:url(#New_Gradient_Swatch_1-31)"/><path d="M168.16,39.12l8.43-8.79H160.07l-5,7.31Z" style="fill-rule:evenodd;fill:url(#New_Gradient_Swatch_1-32)"/><path d="M135.37,73.13l4.69-4.79-2-5.39L135.37,67Z" style="fill-rule:evenodd;fill:url(#New_Gradient_Swatch_1-33)"/><path d="M75.85,51.23a10,10,0,0,0-4.34-1H56.89V77.06h4.7V54.79h9.13a3.81,3.81,0,0,1,2.7.79,3.25,3.25,0,0,1,.78,2.26V77.06H79V57.14a7.48,7.48,0,0,0-.79-3.39A6.31,6.31,0,0,0,75.85,51.23ZM46.46,77.06h4.78V50.18H46.46Zm77.58,0V57.14a7.47,7.47,0,0,0-.78-3.39,6.11,6.11,0,0,0-2.44-2.52,9.59,9.59,0,0,0-4.26-1h-10a2.3,2.3,0,0,0-1.74.53,2.55,2.55,0,0,0-.61,1.56L104,54.79h11.74a4.19,4.19,0,0,1,2.78.79,3.17,3.17,0,0,1,.7,2.26V59.4l-9.92,2.7a13.38,13.38,0,0,0-5.91,3,6.65,6.65,0,0,0-2,4.87,6.51,6.51,0,0,0,3.74,6.26,6.47,6.47,0,0,0,3.65.87Zm-4.87-12.79v8.27H109.08a3.2,3.2,0,0,1-2.09-.79,2.64,2.64,0,0,1-.69-1.82,3.21,3.21,0,0,1,.61-1.74,4.2,4.2,0,0,1,2.17-1Zm-34-10.52a8.86,8.86,0,0,0-.78,3.39V77.06h4.87V57.84A3.25,3.25,0,0,1,90,55.58a3.81,3.81,0,0,1,2.7-.79h8l-.35-2.52a2.08,2.08,0,0,0-.52-1.56,2.45,2.45,0,0,0-1.74-.53H91.94a9.62,9.62,0,0,0-4.26,1A6.34,6.34,0,0,0,85.16,53.75Zm-42.1,1-.26-2.52a2.12,2.12,0,0,0-.61-1.56,2.41,2.41,0,0,0-1.74-.53H30.89a10.35,10.35,0,0,0-4.35,1,7,7,0,0,0-2.35,2.52,7.47,7.47,0,0,0-.78,3.39V77.06h4.78V65.49H40.28L40,63a2.11,2.11,0,0,0-2.35-2.09H28.19v-3a3.31,3.31,0,0,1,.87-2.26,3.56,3.56,0,0,1,2.61-.79Z" style="fill:#163d71;fill-rule:evenodd"/></svg>