<?xml version="1.0" encoding="UTF-8"?>
<svg width="140px" height="140px" viewBox="0 0 140 140" version="1.1" xmlns="http://www.w3.org/2000/svg" xmlns:xlink="http://www.w3.org/1999/xlink">
    <!-- Generator: Sketch 63.1 (92452) - https://sketch.com -->
    <title> illustration01</title>
    <desc>Created with Sketch.</desc>
    <g id="页面-1" stroke="none" stroke-width="1" fill="none" fill-rule="evenodd">
        <g id="切图" transform="translate(-136.000000, -1270.000000)">
            <g id="-illustration01" transform="translate(136.000000, 1270.000000)">
                <rect id="矩形" stroke="#979797" fill="#D8D8D8" opacity="0" x="0" y="0" width="140" height="140"></rect>
                <g id="编组-32">
                    <rect id="矩形" stroke="#979797" fill="#D8D8D8" opacity="0" x="0" y="0" width="140" height="140"></rect>
                    <g id="编组-8" transform="translate(0.000000, 26.000000)">
                        <path d="M30.3252735,48.8774382 C35.1661113,48.8774382 39.0903857,53.0307153 39.0903857,58.1540424 C39.0903857,58.8628913 39.2326621,58.142693 39.0903857,58.8059722 L43.4729419,58.8050322 C47.5069734,58.8050322 50.7772021,63.6765743 50.7772021,67.9460135 C50.7772021,72.2154527 47.5069734,77.0869949 43.4729419,77.0869949 L17.1776051,77.0869949 C13.1435735,77.0869949 9.87334485,72.2154527 9.87334485,67.9460135 C9.87334485,63.6765743 13.1435735,58.8050322 17.1776051,58.8050322 L21.5601612,58.8059722 C21.4178848,58.142693 21.5601612,58.8628913 21.5601612,58.1540424 C21.5601612,53.0307153 25.4844356,48.8774382 30.3252735,48.8774382 Z" id="路径" fill="#ABBAC4" opacity="0.5"></path>
                        <path d="M65.3454987,74.4077212 L65.3454987,6 C65.3454987,2.6862915 62.6592072,1.16763846e-15 59.3454987,0 L26.9619221,0 C23.6482136,2.13771539e-13 20.9619221,2.6862915 20.9619221,6 L20.9619221,51.8772424 L20.9619221,51.8772424 L21.0429188,71.2995222 L21.0485607,71.7981261 C21.108506,77.4280484 16.5611255,82.0233852 10.9312032,82.0233852 C4.89435809,82.0233852 0,77.1297323 0,71.092182 C0,65.0553368 4.89435809,60.1609787 10.9312032,60.1609787 L13.5053253,60.1609787 L13.5053253,57.8999828 L13.5053253,57.2723201 C13.5053253,49.1204635 20.1134139,42.5130801 28.2645653,42.5130801 C37.0419689,42.5130801 44.1571244,49.6275303 44.1571244,58.4049338 L44.1571244,58.9888717 L45.7298071,58.9888717 C51.3413932,58.9888717 55.8908895,63.5376627 55.8901842,69.149954 L55.8901842,69.4207657 L55.8901842,70.6415343 C55.8901842,75.7608636 51.7426742,79.9118999 46.6240501,79.9175418 L40.9038572,79.9231837 L32.0883708,79.9231837 C30.335852,79.9231837 28.9147956,78.5021273 28.9147956,76.7496086 L28.9147956,76.7340933 C28.9147956,74.9815746 30.335852,73.5605182 32.0883708,73.5605182 C33.8415947,73.5605182 35.2619459,74.9815746 35.2619459,76.7340933 L35.2619459,82.2427145 C35.2619459,84.0692833 36.7429476,85.6164457 38.5695164,85.6164457 L91.5518528,85.623709" id="Stroke-983" stroke="#404042" stroke-width="2"></path>
                        <path d="M53,37 L27.3098255,37 L27.2747223,37 C27.2553354,37 27.2396191,36.9842838 27.2396191,36.9648968 L27.2396191,10.3494912 C27.2396191,8.69263697 28.5827649,7.34949121 30.2396191,7.34949121 L55.9878957,7.34949121 C57.6447499,7.34949121 58.9878957,8.69263697 58.9878957,10.3494912 L58.9878957,60.1612608 C59.0751607,65.6117452 58.9563675,70.2747578 59,73 M59.2400691,75.9117495 C59.2400691,79.7131988 62.3219632,82.7944229 66.1227425,82.7944229 L80.917174,82.7944229 C82.1150928,82.7944229 83.4594921,81.3702057 83.4594921,79.9636503 C83.4594921,78.5570949 82.1150928,77.0869949 80.917174,77.0869949 L69.0356693,77.0869949 C67.5382708,77.0869949 65.3533902,75.8736666 65.3533902,74.377608" id="形状" stroke="#404042" stroke-width="2"></path>
                        <line x1="46" y1="15" x2="39" y2="29" id="路径-6" stroke="#ff9d00" stroke-width="2"></line>
                        <polyline id="路径-7" stroke="#ff9d00" stroke-width="2" stroke-linecap="round" points="36 19 33 22 36 25"></polyline>
                        <polyline id="路径-7备份" stroke="#ff9d00" stroke-width="2" stroke-linecap="round" transform="translate(51.500000, 22.000000) scale(-1, 1) translate(-51.500000, -22.000000) " points="53 19 50 22 53 25"></polyline>
                        <circle id="椭圆形" fill="#252B3A" cx="30" cy="4" r="1"></circle>
                        <circle id="椭圆形" fill="#ff9d00" cx="33" cy="4" r="1"></circle>
                        <circle id="椭圆形" fill="#252B3A" cx="36" cy="4" r="1"></circle>
                        <path d="M59.0945746,72.1263775 L60.0752473,72.1375483 C65.5977365,72.2004546 70.1255942,67.7745881 70.1885005,62.2520989 C70.1889329,62.2141331 70.1891492,62.1761652 70.1891492,62.138197 L70.1891492,25.009794 C70.1891492,21.6960855 72.8754407,19.009794 76.1891492,19.009794 L93.3422427,19.009794 C96.6559512,19.009794 99.3422427,21.6960855 99.3422427,25.009794 L99.3422427,34.5466955 L99.3422427,34.5466955 L99.3422427,72.252755 C93.0454207,79.9982845 89.8887467,84.2705788 89.8722206,85.069638 L89.8286721,87.1780555 C89.8092427,88.1086536 90.558947,88.8724277 91.489545,88.8724277 L91.63292,88.8724277 C92.5018802,88.8724277 93.2013361,88.1582319 93.1852567,87.2892717 L93.1839167,87.2262939 C93.1664973,86.3365645 92.4415823,85.6243789 91.5518528,85.623709" id="Stroke-2986" stroke="#404042" stroke-width="2"></path>
                        <path d="M132.611027,72.2175245 L132.626838,79.838031 C132.631043,82.9948938 130.073241,85.5555556 126.916378,85.5555556 L113.974384,85.5555556 C111.260741,85.5555556 109.060373,83.3566176 109.060373,80.6429739 L109.060373,68.7418301 L111.91985,68.7418301 C115.078143,68.7418301 117.638804,66.1811683 117.638804,63.0228758" id="Stroke-2036" stroke="#404042" stroke-width="2" transform="translate(120.843606, 74.289216) scale(-1, 1) translate(-120.843606, -74.289216) "></path>
                        <path d="M125.867335,55.2015407 C128.834848,52.3469549 130.682394,48.3353519 130.682394,43.8929739 L130.682394,39.8611111 L123.925449,39.8611111 C121.196078,39.8611111 118.579657,40.9462827 116.64951,42.875 L115.377042,42.875 C113.446895,40.9462827 110.830474,39.8611111 108.101103,39.8611111 L102.169118,39.8611111 L102.169118,43.8929739 C102.169118,45.2269199 102.336397,46.5222631 102.64951,47.7589869 C103.065564,49.404616 103.74326,50.9458742 104.633987,52.3370098 L105.010008,52.8974673 C107.848039,56.9379085 112.543301,59.5786356 117.856209,59.5786356 L117.871936,67.1991422 C117.876225,70.3560049 115.318423,72.9166667 112.16156,72.9166667 M109.861111,72.9166667 C107.712373,72.9166667 103.517043,72.9166667 99.219567,72.9166667 C96.5059232,72.9166667 94.3055556,70.7177288 94.3055556,68.004085 L94.3055556,62.9084967 L94.3055556,29.6111111 C94.3055556,28.0002806 92.9997194,26.6944444 91.3888889,26.6944444 L78.4722222,26.6944444 C76.8613917,26.6944444 75.5555556,28.0002806 75.5555556,29.6111111 L75.5555556,58.0833333" id="形状" stroke="#404042" stroke-width="2"></path>
                        <path d="M134.373979,56.2830882 C132.927083,55.092116 131.129902,54.4444444 129.231209,54.4444444 L125.416667,54.4444444 L125.416667,58.4248366 C125.416667,58.9209559 125.45384,59.4099265 125.513889,59.8917484 C125.89277,62.9056373 127.41973,65.6435866 129.847426,67.5580065 L130.645221,65.3118873 C128.929534,63.9593546 127.818627,62.0578023 127.449755,59.9532271 C127.362541,59.4528186 127.303922,58.9438317 127.303922,58.4248366 L127.303922,56.3316993 L129.231209,56.3316993 C130.635212,56.3316993 131.956291,56.8792892 132.948529,57.8729575 L133.367443,58.2918709 L135.380515,58.2918709 L135.799428,57.8729575 C136.289828,57.3825572 136.863154,56.9993873 137.506536,56.7334559 C138.148489,56.4675245 138.824755,56.3316993 139.518178,56.3316993 L139.518178,54.4444444 C138.448734,54.4444444 137.402165,54.6531863 136.411356,55.0635212 C135.670752,55.3694853 134.988766,55.7783905 134.373979,56.2830882 Z" id="Fill-2034" fill="#ff9d00" transform="translate(132.467422, 61.001225) scale(-1, 1) translate(-132.467422, -61.001225) "></path>
                        <line x1="30.3252735" y1="85.6833535" x2="34.556707" y2="85.6833535" id="直线-2备份-2" stroke="#404042" stroke-width="2"></line>
                        <line x1="2.11571675" y1="85.6833535" x2="28.9147956" y2="85.6833535" id="直线-2备份-3" stroke="#404042" stroke-width="2"></line>
                        <line x1="95.5465557" y1="85.7711788" x2="107.916667" y2="85.5555556" id="直线-2备份" stroke="#404042" stroke-width="2"></line>
                        <line x1="81" y1="35" x2="89" y2="35" id="路径-8" stroke="#404042" stroke-width="2"></line>
                        <line x1="81" y1="41" x2="89" y2="41" id="路径-8" stroke="#ff9d00" stroke-width="2"></line>
                        <line x1="81" y1="47" x2="89" y2="47" id="路径-8" stroke="#404042" stroke-width="2"></line>
                    </g>
                </g>
            </g>
        </g>
    </g>
</svg>