<?xml version="1.0" encoding="UTF-8"?>
<svg width="48px" height="48px" viewBox="0 0 48 48" version="1.1" xmlns="http://www.w3.org/2000/svg" xmlns:xlink="http://www.w3.org/1999/xlink">
    <!-- Generator: Sketch 63.1 (92452) - https://sketch.com -->
    <title>icon/EI</title>
    <desc>Created with Sketch.</desc>
    <defs>
        <rect id="path-1" x="0" y="0" width="44.8" height="44.8"></rect>
    </defs>
    <g id="页面-1" stroke="none" stroke-width="1" fill="none" fill-rule="evenodd">
        <g id="切图" transform="translate(-336.000000, -263.000000)">
            <g id="icon/EI" transform="translate(336.000000, 263.000000)">
                <rect id="矩形" stroke="#979797" fill="#D8D8D8" opacity="0" x="0" y="0" width="48" height="48"></rect>
                <g id="icon/jiqiren-H5" transform="translate(2.000000, 2.000000)">
                    <mask id="mask-2" fill="white">
                        <use xlink:href="#path-1"></use>
                    </mask>
                    <use id="矩形" stroke="#979797" stroke-width="0.8" fill="#D8D8D8" opacity="0" xlink:href="#path-1"></use>
                    <g id="编组-47" mask="url(#mask-2)" stroke-width="2.2">
                        <g transform="translate(2.800000, 2.533333)">
                            <path d="M38.4140351,14.6877193 L38.4140351,9.03859649 L24.3025263,9.06740702 C23.1444561,9.06740702 22.0338386,8.61095789 21.2101965,7.79635439 L17.7868281,4.4114 C16.7982316,3.40133684 16.7982316,1.76422105 17.7868281,0.754157895 C18.7720351,-0.251385965 20.3842947,-0.251385965 21.3695018,0.754157895 C22.3592281,1.76422105 22.3592281,3.40133684 21.3695018,4.4114 L18.1495018,7.73195439 C17.3224702,8.58497193 16.183607,9.06740702 14.9939018,9.06740702 L4.8092231,9.04783733 C2.1582612,9.04274355 0.00510263906,11.1876435 8.86100745e-06,13.8386054 C2.95367051e-06,13.8416797 -1.77673334e-15,13.8447541 0,13.8478285 L0,35.0245614 L0,35.0245614 L33.6140351,35.0245614 C36.2650019,35.0245614 38.4140351,32.8755282 38.4140351,30.2245614 C38.4140351,26.928655 38.4140351,23.6327485 38.4140351,20.3368421" id="Stroke-1505" stroke="#252B3A" transform="translate(19.207018, 17.512281) scale(-1, 1) translate(-19.207018, -17.512281) "></path>
                            <circle id="椭圆形" stroke="#252B3A" cx="11.2982456" cy="21.4666667" r="4.51929825"></circle>
                            <line x1="11.2982456" y1="25.9859649" x2="27.1157895" y2="25.9859649" id="路径-16" stroke="#ff9d00"></line>
                            <circle id="椭圆形备份-5" stroke="#ff9d00" cx="27.1157895" cy="21.4666667" r="4.51929825"></circle>
                            <line x1="10.1684211" y1="40.2035088" x2="28.245614" y2="40.2035088" id="路径-15" stroke="#ABBAC4" stroke-linejoin="round"></line>
                        </g>
                    </g>
                </g>
            </g>
        </g>
    </g>
</svg>