<?xml version="1.0" encoding="UTF-8"?>
<svg width="48px" height="48px" viewBox="0 0 48 48" version="1.1" xmlns="http://www.w3.org/2000/svg" xmlns:xlink="http://www.w3.org/1999/xlink">
    <!-- Generator: Sketch 63.1 (92452) - https://sketch.com -->
    <title>icon/ Software development</title>
    <desc>Created with Sketch.</desc>
    <g id="页面-1" stroke="none" stroke-width="1" fill="none" fill-rule="evenodd">
        <g id="切图" transform="translate(-937.000000, -263.000000)">
            <g id="icon/-Software-development" transform="translate(936.000000, 262.000000)">
                <g id="分组-18" transform="translate(4.878049, 3.750000)">
                    <path d="M8,0 L13.4146341,0 L13.4146341,0 L13.4146341,13.75 L0,13.75 L0,8 C-5.41083001e-16,3.581722 3.581722,8.11624501e-16 8,0 Z" id="矩形" fill="#ABBAC4"></path>
                    <path d="M11.8198874,2.11538462 L19.1369606,2.11538462 L19.1369606,19.6153846 L2.06378987,19.6153846 L2.06378987,12.1153846 C2.06378987,6.59253712 6.43174353,2.11538462 11.8198874,2.11538462 Z M16.6979362,4.61538462 L11.8198874,4.61538462 C7.7787795,4.61538462 4.50281426,7.97324899 4.50281426,12.1153846 L4.50281426,17.1153846 L16.6979362,17.1153846 L16.6979362,4.61538462 Z" id="矩形" fill="#ff9d00" fill-rule="nonzero"></path>
                    <path d="M22.9165103,1.63461538 L35.4990619,1.63461538 C37.580219,1.64361625 39.2626642,3.37544883 39.2626642,5.50865385 L39.2626642,17.9807692 L24.511257,17.9807692 L24.511257,6.53846154" id="路径" stroke="#ABBAC4" stroke-width="2.2"></path>
                    <path d="M18.9296435,24.5192308 L1.38742964,24.5192308 L1.38742964,36.9913462 C1.38742964,39.1309185 3.07959169,40.8653846 5.16697936,40.8653846 L17.3348968,40.8653846" id="路径" stroke="#252B3A" stroke-width="2.2"></path>
                    <path d="M13.4137899,2.11538462 L13.4137899,4.61538462 L11.8198874,4.61538462 C7.7787795,4.61538462 4.50281426,7.97324899 4.50281426,12.1153846 L4.50278987,13.7493846 L2.06378987,13.7493846 L2.06378987,12.1153846 C2.06378987,6.59253712 6.43174353,2.11538462 11.8198874,2.11538462 L13.4137899,2.11538462 Z" id="形状结合" fill="#7F000C"></path>
                    <path d="M23.1219512,24.5192308 L39.6613508,24.5192308 L39.6613508,36.9913462 C39.6613508,39.1309185 37.9691888,40.8653846 35.8818011,40.8653846 L24.511257,40.8653846 L24.511257,29.4230769" id="路径" stroke="#252B3A" stroke-width="2.2"></path>
                    <line x1="17.3348968" y1="42.0915148" x2="17.3348968" y2="29.4230769" id="路径" stroke="#252B3A" stroke-width="2.2"></line>
                </g>
            </g>
        </g>
    </g>
</svg>