<?xml version="1.0" encoding="UTF-8"?>
<svg width="48px" height="48px" viewBox="0 0 48 48" version="1.1" xmlns="http://www.w3.org/2000/svg" xmlns:xlink="http://www.w3.org/1999/xlink">
    <!-- Generator: Sketch 63.1 (92452) - https://sketch.com -->
    <title>icon/shenteng</title>
    <desc>Created with Sketch.</desc>
    <g id="页面-1" stroke="none" stroke-width="1" fill="none" fill-rule="evenodd">
        <g id="切图" transform="translate(-216.000000, -263.000000)">
            <g id="icon/shenteng" transform="translate(216.000000, 263.000000)">
                <rect id="矩形" stroke="#979797" fill="#D8D8D8" opacity="0" x="0" y="0" width="48" height="48"></rect>
                <g id="编组-48" transform="translate(3.840000, 3.840000)">
                    <path d="M20.16,0 C9.02593944,0 0,9.02593944 0,20.16 C0,31.2940606 9.02593944,40.32 20.16,40.32 C31.2940606,40.32 40.32,31.2940606 40.32,20.16 C40.32,14.8230288 38.2461613,9.97042852 34.8603751,6.36409054" id="形状" stroke="#252B3A" stroke-width="2.2"></path>
                    <path d="M30.5832288,2.900157 C29.3648661,2.16280721 28.0621562,1.55082087 26.6929813,1.08208012" id="路径" stroke="#ABBAC4" stroke-width="2.2"></path>
                    <g id="编组-35" transform="translate(7.104000, 6.912000)">
                        <path d="M1.11254715,20.365283 L19.3469127,0.915293135 C19.5735508,0.673545772 19.9532523,0.661297337 20.1949997,0.88793549 C20.2885862,0.975672887 20.351589,1.09109541 20.3747633,1.2172669 L22.0387788,10.2769068 C22.0986415,10.6028257 21.8829603,10.9155634 21.5570414,10.975426 C21.5110194,10.9838791 21.4641665,10.9869195 21.4174379,10.9844853 L16.6472727,10.736 L16.6472727,10.736 L3.0349018,23.144174 C2.45839026,23.6696853 1.56502421,23.6283415 1.03951286,23.0518299 C0.994857381,23.0028407 0.953705928,22.9507687 0.916363636,22.896 C0.380876835,22.1106194 0.462418435,21.0587537 1.11254715,20.365283 Z" id="路径-48" stroke="#ff9d00" stroke-width="2"></path>
                        <path d="M24.0246152,25.0283074 L18.505765,17.7848165 C18.3049399,17.5212336 18.3558152,17.1447566 18.6193981,16.9439315 C18.6557446,16.9162389 18.6951357,16.8927889 18.7368052,16.8740377 L25.1754638,13.9766413 C25.477648,13.8406584 25.8328526,13.9753912 25.9688355,14.2775754 C26.0111971,14.3717123 26.0285545,14.4751864 26.0192296,14.5779935 L25.0994212,24.7188808 C25.0694878,25.0488969 24.7776911,25.292162 24.4476749,25.2622285 C24.2800924,25.2470283 24.1265944,25.1621552 24.0246152,25.0283074 Z" id="路径-49" fill="#ABBAC4"></path>
                        <path d="M22.1046152,25.0283074 L16.585765,17.7848165 C16.3849399,17.5212336 16.4358152,17.1447566 16.6993981,16.9439315 C16.7357446,16.9162389 16.7751357,16.8927889 16.8168052,16.8740377 L23.2554638,13.9766413 C23.557648,13.8406584 23.9128526,13.9753912 24.0488355,14.2775754 C24.0911971,14.3717123 24.1085545,14.4751864 24.0992296,14.5779935 L23.1794212,24.7188808 C23.1494878,25.0488969 22.8576911,25.292162 22.5276749,25.2622285 C22.3600924,25.2470283 22.2065944,25.1621552 22.1046152,25.0283074 Z" id="路径-49" stroke="#252B3A" stroke-width="2"></path>
                    </g>
                </g>
            </g>
        </g>
    </g>
</svg>