<?xml version="1.0" encoding="UTF-8"?>
<svg width="60px" height="60px" viewBox="0 0 60 60" version="1.1" xmlns="http://www.w3.org/2000/svg" xmlns:xlink="http://www.w3.org/1999/xlink">
    <!-- Generator: Sketch 64 (93537) - https://sketch.com -->
    <title>市场营销</title>
    <desc>Created with Sketch.</desc>
    <g id="页面-1" stroke="none" stroke-width="1" fill="none" fill-rule="evenodd">
        <g id="新风格图标" transform="translate(-78.000000, -283.000000)">
            <g id="icon/服务图标/60/市场营销" transform="translate(78.000000, 283.000000)">
                <g>
                    <g id="大图/盾" fill="#252B3A" fill-rule="nonzero">
                        <g id="编组-8">
                            <path d="M21.7392829,0.890041975 C18.793567,2.6000283 15.6257527,4.11535936 12.2358398,5.43603516 C8.99909147,6.69703962 5.68795536,7.73224182 2.3024315,8.54164176 C0.952336701,8.86441502 0,10.0712718 0,11.4594139 C0,12.5923064 0,14.1255252 0,16.0590703 C0,29.4766883 7.20347035,40.785542 21.6104111,49.9856314 C22.6041542,50.6202241 23.8774796,50.6138654 24.8648358,49.9693802 C38.9549453,40.7722256 46,29.468789 46,16.0590703 C46,14.104776 46,12.5594461 46,11.4230804 C46,10.050459 45.0683924,8.85291336 43.737946,8.51527163 C40.4560656,7.6823935 37.2808535,6.65598134 34.2123098,5.43603516 C30.9725978,4.14803842 27.8109466,2.62807771 24.7273562,0.876153053 C23.7997193,0.349132426 22.6619787,0.354417581 21.7392829,0.890041975 Z M32.7345523,9.15305448 C35.72911,10.3435864 38.8178832,11.3583106 42,12.1972991 L42,16.0590703 C42,27.8494945 35.8784291,37.8355308 23.2190076,46.2634631 C10.2595789,37.8256934 4,27.8372147 4,16.0590703 L4,12.2445415 C7.29637904,11.4222261 10.5260036,10.3950112 13.6878941,9.16317056 C17.0777757,7.84250695 20.2657253,6.33343059 23.2502658,4.635166 C26.3356799,6.35986784 29.4974061,7.86607781 32.7345523,9.15305448 Z" id="合并形状"></path>
                        </g>
                    </g>
                    <g id="三角" transform="translate(24.000000, 23.000000)" fill="#ABBAC4" fill-rule="nonzero">
                        <path d="M30.1649095,2.4774303 C33.2752927,5.46567337 33.5993065,8.65294221 31.3798814,11.0002005 L33,11 C34.6568542,11 36,12.3431458 36,14 L36,34 C36,35.6568542 34.6568542,37 33,37 L3,37 C1.3431458,37 0,35.6568542 0,34 L0,14 C0,12.3431458 1.3431458,11 3,11 L4.43294448,11.0002005 C2.21351937,8.65294221 2.53753333,5.46567337 5.6479165,2.4774303 C8.1848263,0.040141 11.1491475,-0.3099878 13.9198849,1.5906733 C15.2880676,2.52921464 16.6071171,4.01291791 17.9061841,6.04741713 C19.2057088,4.01291791 20.5247584,2.52921464 21.892941,1.5906733 C24.6636785,-0.3099878 27.6279996,0.040141 30.1649095,2.4774303 Z M32,15 L4,15 L4,33 L32,33 L32,15 Z M15.606445,10 C12.6847107,4.4991043 10.4510375,3.4098188 8.4191416,5.3619252 C6.702058,7.0115815 6.676302,7.7050273 7.5645937,8.4649844 C8.585683,9.3385534 10.6860605,10 12.1161559,10 L12.1161559,10 Z M20.2063809,10 L23.69667,10 L23.69667,10 C25.1267654,10 27.2271429,9.3385534 28.2482322,8.4649844 C29.1365239,7.7050273 29.1107679,7.0115815 27.3936843,5.3619252 C25.3617884,3.4098188 23.1281152,4.4991043 20.2063809,10 Z" id="形状结合"></path>
                    </g>
                    <path d="M44.7339808,25.5265287 C43.5006202,29.9537746 41.3661012,34.1115984 38.3304237,38 L28,38 L28,47.8032292 C26.9968729,48.5378148 25.9518182,49.2598651 24.8648358,49.9693802 C24.5941644,50.1460578 24.302002,50.2747793 24,50.3554865 L24,37 C24,35.3431458 25.3431458,34 27,34 L28.4327553,34 C26.2135382,31.6527607 26.5376222,28.4655883 29.6479168,25.4774303 C32.1848267,23.040141 35.1491478,22.6900122 37.9198853,24.5906733 C39.2881482,25.5292697 40.6072723,27.013092 41.9064131,29.0477752 C42.8351717,27.5931759 43.7741433,26.4201134 44.7339808,25.5265287 Z M36.1161563,33 C37.8803392,33 38.6881693,33 39.6064454,33 C36.6847111,27.4991043 34.4510379,26.4098188 32.419142,28.3619252 C30.7020584,30.0115815 30.6763024,30.7050273 31.5645941,31.4649844 C32.5856834,32.3385534 34.6860609,33 36.1161563,33 Z" id="合并形状" fill="#ff9d00" fill-rule="nonzero"></path>
                </g>
            </g>
        </g>
    </g>
</svg>