<?xml version="1.0" encoding="UTF-8"?>
<svg width="200px" height="100px" viewBox="0 0 200 100" version="1.1" xmlns="http://www.w3.org/2000/svg" xmlns:xlink="http://www.w3.org/1999/xlink">
    <!-- Generator: Sketch 54 (76480) - https://sketchapp.com -->
    <title>矩形复制 7</title>
    <desc>Created with Sketch.</desc>
    <g id="页面1" stroke="none" stroke-width="1" fill="none" fill-rule="evenodd">
        <g id="1复制" transform="translate(-461.000000, -222.000000)">
            <g id="编组-22" transform="translate(461.000000, 222.000000)">
                <path d="M94.6878125,64.1549618 L94.6878125,11.9274809 L100.454167,11.9274809 C105.424729,11.9274809 109.454167,15.9569182 109.454167,20.9274809 L109.454167,50.3206107 L119.199479,50.3206107" id="路径" stroke="#404042" stroke-width="1.6"></path>
                <path d="M146.662812,67.9767176 L146.662812,50.5675573 L131.671875,50.5675573 C126.900998,50.5675573 123.033437,54.4324335 123.033437,59.2 L123.033437,85.6824427" id="路径" stroke="#404042" stroke-width="1.6"></path>
                <path d="M176.1875,85.6824427 L176.1875,59.0477099 C176.1875,54.3642509 172.38817,50.5675573 167.701458,50.5675573 L161.421146,50.5675573 L161.421146,75.3587786 L151.322917,75.3587786" id="路径" stroke="#404042" stroke-width="1.6"></path>
                <polyline id="路径" stroke="#404042" stroke-width="1.6" points="146.951562 58.2461832 155.517812 58.2461832 155.517812 75.6553435"></polyline>
                <ellipse id="椭圆形" fill="#ABBAC4" opacity="0.570033482" cx="156.111354" cy="35.2263359" rx="9.15177083" ry="9.14541985"></ellipse>
                <path d="M54,87 L54,89.0668945 L32,89.0668945 L32,69.125 L37,69.125 L37,40 L54,40 L54,87 Z" id="形状结合" fill="#ABBAC4" opacity="0.570033482"></path>
                <path d="M181,31.1755725 L119.239583,31.1755725 C117.46767,31.1755725 116.03125,32.6109955 116.03125,34.3816794 L116.03125,34.3816794 C116.03125,36.1523633 117.46767,37.5877863 119.239583,37.5877863 L140.895833,37.5877863 C142.224769,37.5877863 143.302083,38.6643535 143.302083,39.9923664 L143.302083,39.9923664 C143.302083,41.3203794 142.224769,42.3969466 140.895833,42.3969466 L128.864583,42.3969466" id="路径" stroke="#404042" stroke-width="1.6"></path>
                <path d="M158.686042,21.5656489 L158.686042,30.4625954" id="路径" stroke="#404042" stroke-width="1.6"></path>
                <path d="M153.95375,30.4625954 L153.95375,21.5656489" id="路径" stroke="#404042" stroke-width="1.6"></path>
                <polyline id="路径" stroke="#404042" stroke-width="1.6" points="151.940521 43.2255725 149.045 41.0935115 142.524062 49.9824427"></polyline>
                <path d="M155.517812,44.3717557 L155.517812,66.7984733" id="路径" stroke="#404042" stroke-width="1.6"></path>
                <path d="M162.584167,41.0935115 L169.097083,49.9824427" id="路径" stroke="#404042" stroke-width="1.6"></path>
                <rect id="矩形" fill="#404042" fill-rule="nonzero" x="39.0520833" y="60.9312977" width="1.60416667" height="3.20610687"></rect>
                <rect id="矩形" fill="#404042" fill-rule="nonzero" x="39.0520833" y="52.9160305" width="1.60416667" height="3.20610687"></rect>
                <rect id="矩形" fill="#404042" fill-rule="nonzero" x="39.0520833" y="44.9007634" width="1.60416667" height="3.20610687"></rect>
                <rect id="矩形" fill="#404042" fill-rule="nonzero" x="43.8645833" y="60.9312977" width="1.60416667" height="3.20610687"></rect>
                <rect id="矩形" fill="#404042" fill-rule="nonzero" x="43.8645833" y="52.9160305" width="1.60416667" height="3.20610687"></rect>
                <rect id="矩形" fill="#404042" fill-rule="nonzero" x="43.8645833" y="44.9007634" width="1.60416667" height="3.20610687"></rect>
                <rect id="矩形" fill="#404042" fill-rule="nonzero" x="48.6770833" y="60.9312977" width="1.60416667" height="3.20610687"></rect>
                <rect id="矩形" fill="#404042" fill-rule="nonzero" x="48.6770833" y="52.9160305" width="1.60416667" height="3.20610687"></rect>
                <rect id="矩形" fill="#404042" fill-rule="nonzero" x="48.6770833" y="44.9007634" width="1.60416667" height="3.20610687"></rect>
                <path d="M58,52 L58,46.4482721 C57.9999736,37.2653422 65.5332535,29.8149676 74.8405055,29.7931034 L80.5075969,29.7931034 C83.1712974,29.7931034 85.3306533,31.9236105 85.3306533,34.5517241 C85.3306533,37.1798378 83.1712974,39.3103448 80.5075969,39.3103448 C77.8438963,39.3103448 75.6845404,37.1798378 75.6845404,34.5517241 L75.6845404,31.767931 C75.6845394,29.5600465 76.5740443,27.4427068 78.1571483,25.8822406 C79.7402522,24.3217744 81.887109,23.4461711 84.1248892,23.4482759 L94.6878125,23.4482721" id="路径" stroke="#404042" stroke-width="1.6"></path>
                <path d="M92.5729167,90.5935115 C92.5729167,92.2535276 91.2262731,93.5992366 89.5651042,93.5992366 L24.8151042,93.5992366 C21.6053426,93.5948216 19.0044181,90.995702 19,87.7881679 C19.0044181,84.5806339 21.6053426,81.9815143 24.8151042,81.9770992 L32.6354167,81.9770992 C34.8503086,81.9770992 36.6458333,83.7713779 36.6458333,85.9847328 C36.6458333,88.1980877 34.8503086,89.9923664 32.6354167,89.9923664 L32.5552083,89.9923664 C30.3712653,89.9928029 28.5884705,88.2468765 28.5447917,86.0648855 L28.4084375,79.1396947 L28.4084375,64.7122137 L33.7182292,64.7122137 L33.7182292,37.0916031 L50.2732292,37.0916031" id="路径" stroke="#404042" stroke-width="1.6"></path>
                <path d="M98.5163542,78.3381679 C97.9351243,78.093131 97.3104174,77.9677311 96.6795833,77.9694656 L90.96875,77.9694656 C89.6398148,77.9694656 88.5625,79.0460329 88.5625,80.3740458 L88.5625,80.3740458 C88.5625,81.7020587 89.6398148,82.778626 90.96875,82.778626 L90.96875,82.778626 C92.2976852,82.778626 93.375,81.7020587 93.375,80.3740458 L93.375,78.4343511 C93.375,75.9642471 91.3711944,73.9618321 88.899375,73.9618321 L86.9583333,73.9618321 C86.9583333,69.5351222 83.3672839,65.9465649 78.9375,65.9465649 L78.9375,65.9465649 C74.5077161,65.9465649 70.9166667,69.5351222 70.9166667,73.9618321 L70.9166667,77.1679389 L68.109375,77.1679389 C65.2300154,77.1679389 62.8958333,79.5005012 62.8958333,82.3778626 L62.8958333,82.3778626 C62.8958333,85.255224 65.2300154,87.5877863 68.109375,87.5877863 L89.5651042,87.5877863 C91.2262731,87.5877863 92.5729167,88.9334953 92.5729167,90.5935115" id="路径" stroke="#ff9d00" stroke-width="1.6"></path>
                <path d="M179.378906,94.0000186 L146.641354,94 C142.731533,94.0062087 138.979909,92.4575749 136.214271,89.6958015 L135.299896,88.7820611 L138.508229,85.5759542 C139.441871,84.6696297 139.972009,83.4264781 139.97955,82.1257689 C139.987091,80.8250596 139.471403,79.575853 138.548333,78.6587786 C136.729648,76.9496988 133.894206,76.9496988 132.075521,78.6587786 C131.147186,79.5704891 130.624287,80.8166641 130.624287,82.1173664 C130.624287,83.4180688 131.147186,84.6642437 132.075521,85.5759542 L135.283854,88.7820611 L132.701146,91.3629771 C131.009732,93.0523157 128.715966,94.0009013 126.324583,94 L109.625208,94 C105.059934,93.9955815 101.360151,90.2983659 101.355729,85.7362595 L101.355729,82.6824427 C101.352842,80.7888522 100.219883,79.0795555 98.47625,78.3381679" id="路径" stroke="#404042" stroke-width="1.6"></path>
                <rect id="矩形" fill="#404042" fill-rule="nonzero" x="99.1875" y="19.0610687" width="1.60416667" height="3.20610687"></rect>
                <rect id="矩形" fill="#404042" fill-rule="nonzero" x="99.1875" y="24.6717557" width="1.60416667" height="3.20610687"></rect>
                <rect id="矩形" fill="#404042" fill-rule="nonzero" x="99.1875" y="31.0839695" width="1.60416667" height="3.20610687"></rect>
                <rect id="矩形" fill="#404042" fill-rule="nonzero" x="139.291667" y="56.9236641" width="1.60416667" height="3.20610687"></rect>
                <rect id="矩形" fill="#404042" fill-rule="nonzero" x="139.291667" y="62.5343511" width="1.60416667" height="3.20610687"></rect>
                <rect id="矩形" fill="#404042" fill-rule="nonzero" x="132.875" y="56.9236641" width="1.60416667" height="3.20610687"></rect>
                <rect id="矩形" fill="#404042" fill-rule="nonzero" x="132.875" y="62.5343511" width="1.60416667" height="3.20610687"></rect>
                <rect id="矩形" fill="#404042" fill-rule="nonzero" x="168.96875" y="70.5496183" width="1.60416667" height="3.20610687"></rect>
                <rect id="矩形" fill="#404042" fill-rule="nonzero" x="168.96875" y="78.5648855" width="1.60416667" height="3.20610687"></rect>
                <ellipse id="椭圆形" stroke="#ff9d00" stroke-width="1.6" cx="156.111354" cy="17.1652672" rx="4.8365625" ry="4.83320611"></ellipse>
                <path d="M156.135417,12.4122137 L156.135417,7.63671875" id="路径" stroke="#ff9d00" stroke-width="1.6"></path>
                <rect id="矩形复制-7" x="0" y="0" width="200" height="100"></rect>
            </g>
        </g>
    </g>
</svg>