<?xml version="1.0" encoding="UTF-8"?>
<svg width="200px" height="100px" viewBox="0 0 200 100" version="1.1" xmlns="http://www.w3.org/2000/svg" xmlns:xlink="http://www.w3.org/1999/xlink">
    <!-- Generator: Sketch 54 (76480) - https://sketchapp.com -->
    <title>矩形</title>
    <desc>Created with Sketch.</desc>
    <g id="页面1" stroke="none" stroke-width="1" fill="none" fill-rule="evenodd">
        <g id="1复制" transform="translate(-156.000000, -222.000000)">
            <g id="编组-21" transform="translate(156.000000, 222.000000)">
                <rect id="矩形" fill="#ABBAC4" opacity="0.570033482" x="97" y="21" width="10" height="20" rx="1"></rect>
                <path d="M77.3570576,51.6411765 L77.3570576,28.9289916 L83.6815974,28.9289916 C84.6003709,28.9333606 85.3441038,29.6778146 85.3484686,30.597479 L85.3484686,47.2584034 C85.3484581,48.1767749 86.0898929,48.9224966 87.0073643,48.9268908 L87.6773029,48.9268908 C88.5960764,48.9225217 89.3398093,48.1780677 89.3441741,47.2584034 L89.3441741,25.0651261 L92.3349717,25.0651261 C92.7763184,25.0630021 93.2003168,25.2370095 93.5131472,25.5486449 C93.8259775,25.8602804 94.0018479,26.2838505 94.0018428,26.7256303 L94.0018428,32.5932773 C93.9997091,33.036439 94.1746402,33.4620673 94.4877029,33.7754336 C94.8007656,34.0887998 95.2259816,34.2639005 95.668714,34.2617647 C96.1100658,34.2617698 96.5332256,34.0857289 96.8445592,33.7725952 C97.1558927,33.4594615 97.3297316,33.035052 97.3276097,32.5932773 L97.3276097,18 L108.285892,18 C109.203363,18.0043941 109.944798,18.7501159 109.944788,19.6684874 L109.944788,40.2252101 C109.944788,41.1422812 109.202075,41.8857143 108.285892,41.8857143 L106.95399,41.8857143 C106.512643,41.8878382 106.088645,41.7138308 105.775815,41.4021954 C105.462984,41.0905599 105.287114,40.6669899 105.287119,40.2252101 L105.287119,31.5953782 L118.717794,31.5953782 C119.491966,31.5953782 120.234429,31.9032149 120.781851,32.4511678 C121.329274,32.9991208 121.636812,33.7423044 121.636812,34.5172269 L121.636812,39.1277311 C125.103872,39.1277311 128.881433,39.1277311 132.969494,39.1277311 C134.048652,39.1277311 134.923482,39.8101321 134.923482,40.8903361 L134.923482,51.6411765" id="路径" stroke="#404042" stroke-width="1.6"></path>
                <path d="M54.3872189,91.923796 L35.7369232,91.923796 C32.6142719,91.9196603 29.6216788,90.7051583 27.4196701,88.5483552 C25.2176613,86.3915521 23.987281,83.4697753 24.0000992,80.4279205 L24.0000992,80.1381743 C23.9979644,77.1945637 25.1974145,74.3709182 27.3341325,72.2894706 C29.4708505,70.2080231 32.3694747,69.0395992 35.3912496,69.0416787 L37.7466533,69.4410586 C37.7466533,63.1223364 43.0050076,58 49.4915163,58 C55.9748853,58.0043228 61.2283418,63.1253933 61.2283403,69.4410586 L61.2283403,70.6078743 C65.8026778,70.9827023 69.0438238,72.1557623 70.9517781,74.1270545 C73.8137096,77.0839927 73.2254,82.9724823 71.9065656,86.3470769 C70.2627402,90.5532489 64.4229579,92.4121553 54.3872189,91.923796 Z" id="路径复制-2" fill="#ABBAC4" opacity="0.425571987"></path>
                <path d="M96.3558282,95.8084034 L38.7206422,95.9323381 C35.0987307,95.9344577 28.4921875,95.4616699 25.0957031,92.1984863 C21.6992187,88.9353027 21.0666544,86.489481 21.0666544,82.2651113 C21.0666544,70.3542017 31.0940553,68.789481 38.5292311,68.789481 L39.0237097,68.789481 C39.9762097,68.7873552 40.8903095,69.1651603 41.5638304,69.8393343 C42.2373513,70.5135083 42.6147905,71.4284943 42.6126667,72.381918 C42.6147905,73.3353416 42.2373513,74.2503277 41.5638304,74.9245017 C40.8903095,75.5986756 39.9762097,75.9764808 39.0237097,75.974355 L38.6648139,75.974355 C33.7832031,75.974355 32.7595215,72.7848739 33.2587891,69.121621 C33.7580566,65.458368 33.2587891,63.03125 36.1369629,58.199596 C39.0151367,53.3679419 44.1096191,49.838623 52.6862793,49.838623 C61.2629395,49.838623 70.0276097,57.2470609 70.0276097,64.610084 L70.0276097,65.144958 L72.4202477,65.144958 C79.6380391,65.152476 83.8494272,73.121621 83.8570576,76.7848739 L109.390071,76.7848739 C110.830416,76.7848739 111.998047,75.6161114 111.998047,74.1743697 C112.000166,73.4806388 112.034912,72.4730225 111.523315,71.642334 C111.011719,70.8116455 110.083134,70.3541984 109.390071,70.3542017 L63.4000023,70.3542017 C53.8373444,70.3542017 46.6291504,62.8500814 46.6291504,53.2781513 C46.6291499,48.6822821 47.909757,44.0193022 51.1571271,40.7702806 C54.4044972,37.5212591 58.8085856,35.6970418 63.4000023,35.6991597 L68.3926404,35.6991597 C69.3649091,35.6970394 70.2980819,36.0821607 70.986329,36.7695775 C71.6745761,37.4569943 72.0613543,38.3902316 72.061352,39.3634454 L72.061352,39.4752101 C72.0569543,41.4385039 70.4656938,43.027736 68.5042968,43.0277311 L68.3926404,43.0277311 C66.3726913,43.0233404 64.7362906,41.385353 64.7319042,39.3634454 L64.7319042,31.9428571 C64.7318881,16.8620296 80.392638,5 99.1779164,5 C118.319021,5 129.412883,15.2380518 129.412883,30.3344538 L136.486431,30.3344538 C143.463516,30.3344538 149.11956,35.9959824 149.11956,42.9798319 L149.11956,43.0436975 C149.11956,50.3097227 143.234989,56.2 135.976002,56.2 L82.3570576,56.2 C79.5956338,56.2 77.3570576,53.9614237 77.3570576,51.2 L77.3570576,50" id="路径" stroke="#404042" stroke-width="1.6"></path>
                <path d="M96.3558282,95.6818939 C102.650658,95.8939646 106.59998,95.8939646 108.203796,95.6818939 C110.609519,95.3637879 114.797546,92.6128412 114.797546,89.8056882 C114.797546,86.9985352 112.849792,85.1680672 110.696472,85.1680672 C108.543151,85.1680672 106.184997,85.7470703 105.798073,89.1547852 C105.411148,92.5625 110.696472,95.8483185 112.362487,95.8483185 C113.473165,95.8483185 131.823671,95.8483185 167.414006,95.8483185 C174.304015,95.8483185 179.889471,92.2586951 179.889471,85.3635451 C179.90273,82.047192 178.596951,78.8618292 176.260227,76.5102456 C173.923504,74.158662 170.747869,72.8341122 167.433966,72.8288325 L162.942799,72.8288325 C161.289197,72.8288325 159.948687,74.1703422 159.948687,75.8251782 C159.948687,77.4800142 161.289197,78.8215238 162.942799,78.8215238 C164.596401,78.8215238 165.936911,77.4800142 165.936911,75.8251782 L165.936911,71.8300507 C165.936911,65.1374046 159.268011,58.7822266 151,58.7822266 C141.986816,58.7822266 135.995795,64.5258789 135.995795,70.8312688 L135.995795,73.8276144 L130.257084,73.8276144 C125.574158,73.8331182 121.779267,78.6296219 121.773768,83.3160422 C121.779267,88.0024626 125.574158,91.8001844 130.257084,91.8056882" id="路径" stroke="#ff9d00" stroke-width="1.6"></path>
                <rect id="矩形" fill="#ff9d00" fill-rule="nonzero" x="80.4355852" y="33.3462185" width="1.59509202" height="3.19327731"></rect>
                <rect id="矩形" fill="#ff9d00" fill-rule="nonzero" x="80.4355852" y="38.9344538" width="1.59509202" height="3.19327731"></rect>
                <rect id="矩形" fill="#404042" fill-rule="nonzero" x="80.4355852" y="44.5226891" width="1.59509202" height="3.19327731"></rect>
                <rect id="矩形" fill="#404042" fill-rule="nonzero" x="101" y="23" width="1.59509202" height="3.19327731"></rect>
                <rect id="矩形" fill="#404042" fill-rule="nonzero" x="114" y="35.9344538" width="1.59509202" height="3.19327731"></rect>
                <rect id="矩形" fill="#404042" fill-rule="nonzero" x="114" y="41.5226891" width="1.59509202" height="3.19327731"></rect>
                <rect id="矩形复制-5" fill="#404042" fill-rule="nonzero" x="127" y="43" width="1.59509202" height="3.19327731"></rect>
                <path d="M82,80.3991597 L96.3558282,80.3991597" id="路径" stroke="#404042" stroke-width="1.6"></path>
                <g id="编组-10" transform="translate(129.000000, 68.000000)">
                    <path d="M0.595092025,23.9579832 L33.9386503,23.9579832 L33.9386503,21.9579832 C33.9386503,18.6442747 31.2523588,15.9579832 27.9386503,15.9579832 L20.1386503,15.9579832" id="路径" stroke="#404042" stroke-width="1.6"></path>
                    <path d="M19.9386503,19.9579832 L19.9386503,10.2521008 L14.5386503,4.95798319 L14.5386503,11.1344538 L14.5386503,11.1344538 C12.5504252,11.1344538 10.9386503,12.7146253 10.9386503,14.6638655 L10.9386503,19.0756303" id="路径" stroke="#404042" stroke-width="1.6"></path>
                    <rect id="矩形" fill="#404042" fill-rule="nonzero" x="15.392638" y="15" width="1.59509202" height="2.39495798"></rect>
                    <rect id="矩形" fill="#404042" fill-rule="nonzero" x="23" y="19" width="1.59509202" height="2"></rect>
                    <rect id="矩形复制-4" fill="#404042" fill-rule="nonzero" x="27" y="19" width="1.59509202" height="2"></rect>
                    <path d="M14.4386503,4.95798319 L14.4386503,0.957983193" id="路径" stroke="#404042" stroke-width="1.6"></path>
                </g>
                <path d="M80.392638,24.789916 L80.392638,28.7815126" id="路径" stroke="#404042" stroke-width="1.6"></path>
                <path d="M99.1779164,17.8815126 L99.1779164,11" id="路径" stroke="#404042" stroke-width="1.6"></path>
                <path d="M104.760739,17.8815126 L104.760739,14.1932773" id="路径" stroke="#404042" stroke-width="1.6"></path>
                <rect id="矩形" x="0" y="0" width="200" height="100"></rect>
            </g>
        </g>
    </g>
</svg>