<?xml version="1.0" encoding="UTF-8"?>
<svg width="40px" height="40px" viewBox="0 0 40 40" version="1.1" xmlns="http://www.w3.org/2000/svg" xmlns:xlink="http://www.w3.org/1999/xlink">
    <!-- Generator: Sketch 63.1 (92452) - https://sketch.com -->
    <title>icon/API-a</title>
    <desc>Created with Sketch.</desc>
    <defs>
        <rect id="path-1" x="0" y="0" width="40" height="40"></rect>
    </defs>
    <g id="页面-1" stroke="none" stroke-width="1" fill="none" fill-rule="evenodd">
        <g id="切图" transform="translate(-104.000000, -509.000000)">
            <g id="icon/API-a" transform="translate(104.000000, 509.000000)">
                <mask id="mask-2" fill="white">
                    <use xlink:href="#path-1"></use>
                </mask>
                <use id="矩形" stroke="#979797" fill="#D8D8D8" opacity="0" xlink:href="#path-1"></use>
                <g id="编组-43" mask="url(#mask-2)">
                    <g transform="translate(0.833333, 4.166667)">
                        <polyline id="Path-4" stroke="#252B3A" stroke-width="2" fill="none" points="3.33333333 6.16666667 3.33333333 0.0555555556 10 0"></polyline>
                        <circle id="椭圆形" stroke="#252B3A" stroke-width="2" fill="none" cx="3.16666667" cy="9.22222222" r="2.55555556"></circle>
                        <circle id="椭圆形备份" stroke="#ABBAC4" stroke-width="2" fill="none" cx="35.0555556" cy="20.7777778" r="2.55555556"></circle>
                        <path d="M3.33333333,31.6666667 L3.33333333,23.8750193 C3.33333333,21.1190179 5.56345376,18.8826941 8.3194445,18.8750386 L23.3333333,18.8333333 L23.3333333,18.8333333" id="Path-4-Copy-2" stroke="#252B3A" stroke-width="2" fill="none" transform="translate(13.333333, 25.250000) scale(1, -1) translate(-13.333333, -25.250000) "></path>
                        <path d="M28.3653846,20.8333333 L28.3653846,10 L30,10 L30,20.8333333 L28.3653846,20.8333333 Z M18.75,10 L24.8397436,10 C25.8814103,10 26.7628205,11 26.7628205,12.1666667 L26.7628205,13.3333333 C26.7628205,14.5 25.8814103,15.8333333 24.8397436,15.8333333 L20.3846154,15.8333333 L20.3846154,20.8333333 L18.75,20.8333333 L18.75,10 Z M25.2564103,12.3166667 C25.2564103,11.7833333 24.8189103,11.25 24.3814103,11.25 L20.2564103,11.25 L20.2564103,14.5833333 L24.3814103,14.5833333 C24.8189103,14.5833333 25.2564103,13.7833333 25.2564103,13.25 L25.2564103,12.3166667 Z M13.3814103,10 C14.9839744,10 15.4647436,11.5 15.7051282,12 L17.5480769,20.8333333 L15.8333333,20.8333333 L14.7115385,15.8333333 L11.1698718,15.8333333 L10.0480769,20.8333333 L8.33333333,20.8333333 L10.2564103,12 C10.4166667,11.5 10.8974359,10 12.5,10 L13.3814103,10 Z M14.6073718,14.5833333 L14.1702133,12.45 C13.9516341,11.5833333 13.6237652,11.25 13.0773172,11.25 L12.7494483,11.25 C12.2030002,11.25 11.8751314,11.5833333 11.6565521,12.3833333 L11.2740385,14.5833333 L14.6073718,14.5833333 Z" id="形状" stroke="none" fill="#ff9d00" fill-rule="evenodd"></path>
                        <path d="M12.5,12.8333333 L12.5,5.043164 C12.5,2.28658421 14.7310218,0.0500195213 17.4875931,0.043179394 L34.8888889,0 L34.8888889,0" id="Path-4-Copy" stroke="#252B3A" stroke-width="2" fill="none" transform="translate(23.694444, 6.416667) scale(-1, 1) translate(-23.694444, -6.416667) "></path>
                        <polyline id="Path-4-Copy-3" stroke="#ABBAC4" stroke-width="2" fill="none" transform="translate(30.416667, 27.722222) scale(-1, -1) translate(-30.416667, -27.722222) " points="25.9444444 31.6111111 25.9444444 23.8333333 34.8888889 23.8333333"></polyline>
                    </g>
                </g>
            </g>
        </g>
    </g>
</svg>