<svg width="90" height="50" viewBox="0 0 90 50" xmlns="http://www.w3.org/2000/svg"><defs><radialGradient cx="155.075%" cy="-8.834%" fx="155.075%" fy="-8.834%" r="203.184%" gradientTransform="matrix(1 0 0 .78495 0 -.019)" id="a"><stop stop-color="#F8C797" offset="0%"/><stop stop-color="#E6211A" offset="42.7%"/><stop stop-color="#E4211A" offset="67.46%"/><stop stop-color="#DD211B" offset="77.4%"/><stop stop-color="#D1201C" offset="84.68%"/><stop stop-color="#BF1F1E" offset="90.66%"/><stop stop-color="#A91E20" offset="95.78%"/><stop stop-color="#901D22" offset="100%"/></radialGradient><radialGradient cx="173.241%" cy="-542.641%" fx="173.241%" fy="-542.641%" r="686.677%" gradientTransform="matrix(.34127 0 0 1 1.141 0)" id="b"><stop stop-color="#F8C797" offset="0%"/><stop stop-color="#E6211A" offset="42.7%"/><stop stop-color="#E4211A" offset="67.46%"/><stop stop-color="#DD211B" offset="77.4%"/><stop stop-color="#D1201C" offset="84.68%"/><stop stop-color="#BF1F1E" offset="90.66%"/><stop stop-color="#A91E20" offset="95.78%"/><stop stop-color="#901D22" offset="100%"/></radialGradient><radialGradient cx="154.595%" cy="-122.971%" fx="154.595%" fy="-122.971%" r="301.967%" gradientTransform="matrix(.59394 0 0 1 .628 0)" id="c"><stop stop-color="#F8C797" offset="0%"/><stop stop-color="#E6211A" offset="42.7%"/><stop stop-color="#E4211A" offset="67.46%"/><stop stop-color="#DD211B" offset="77.4%"/><stop stop-color="#D1201C" offset="84.68%"/><stop stop-color="#BF1F1E" offset="90.66%"/><stop stop-color="#A91E20" offset="95.78%"/><stop stop-color="#901D22" offset="100%"/></radialGradient><radialGradient cx="167.525%" cy="16.162%" fx="167.525%" fy="16.162%" r="340.877%" gradientTransform="matrix(1 0 0 .37662 0 .1)" id="d"><stop stop-color="#F8C797" offset="0%"/><stop stop-color="#E6211A" offset="42.7%"/><stop stop-color="#E4211A" offset="67.46%"/><stop stop-color="#DD211B" offset="77.4%"/><stop stop-color="#D1201C" offset="84.68%"/><stop stop-color="#BF1F1E" offset="90.66%"/><stop stop-color="#A91E20" offset="95.78%"/><stop stop-color="#901D22" offset="100%"/></radialGradient><radialGradient cx="53.881%" cy="16.666%" fx="53.881%" fy="16.666%" r="338.878%" gradientTransform="matrix(1 0 0 .37991 0 .103)" id="e"><stop stop-color="#F8C797" offset="0%"/><stop stop-color="#E6211A" offset="42.7%"/><stop stop-color="#E4211A" offset="67.46%"/><stop stop-color="#DD211B" offset="77.4%"/><stop stop-color="#D1201C" offset="84.68%"/><stop stop-color="#BF1F1E" offset="90.66%"/><stop stop-color="#A91E20" offset="95.78%"/><stop stop-color="#901D22" offset="100%"/></radialGradient><radialGradient cx="10.08%" cy="-528.358%" fx="10.08%" fy="-528.358%" r="692.719%" gradientTransform="matrix(.34127 0 0 1 .066 0)" id="f"><stop stop-color="#F8C797" offset="0%"/><stop stop-color="#E6211A" offset="42.7%"/><stop stop-color="#E4211A" offset="67.46%"/><stop stop-color="#DD211B" offset="77.4%"/><stop stop-color="#D1201C" offset="84.68%"/><stop stop-color="#BF1F1E" offset="90.66%"/><stop stop-color="#A91E20" offset="95.78%"/><stop stop-color="#901D22" offset="100%"/></radialGradient><radialGradient cx="8.897%" cy="-122.944%" fx="8.897%" fy="-122.944%" r="303.834%" gradientTransform="matrix(.59394 0 0 1 .036 0)" id="g"><stop stop-color="#F8C797" offset="0%"/><stop stop-color="#E6211A" offset="42.7%"/><stop stop-color="#E4211A" offset="67.46%"/><stop stop-color="#DD211B" offset="77.4%"/><stop stop-color="#D1201C" offset="84.68%"/><stop stop-color="#BF1F1E" offset="90.66%"/><stop stop-color="#A91E20" offset="95.78%"/><stop stop-color="#901D22" offset="100%"/></radialGradient><radialGradient cx="17.113%" cy="-8.845%" fx="17.113%" fy="-8.845%" r="203.514%" gradientTransform="matrix(1 0 0 .78919 0 -.019)" id="h"><stop stop-color="#F8C797" offset="0%"/><stop stop-color="#E6211A" offset="42.7%"/><stop stop-color="#E4211A" offset="67.46%"/><stop stop-color="#DD211B" offset="77.4%"/><stop stop-color="#D1201C" offset="84.68%"/><stop stop-color="#BF1F1E" offset="90.66%"/><stop stop-color="#A91E20" offset="95.78%"/><stop stop-color="#901D22" offset="100%"/></radialGradient></defs><g fill-rule="nonzero" fill="none"><path d="M10.848 15s.061-.062 0-.124C7.88 8.411 3.8 3.438 3.8 3.438S1.576 5.55 1.76 7.665c.062 1.616 1.298 2.549 1.298 2.549 1.916 1.865 6.614 4.289 7.727 4.848-.062 0 0 0 .062-.062z" fill="url(#a)" transform="translate(1.97 11.017)"/><path d="M10.125 16.564c0-.064-.123-.064-.123-.064l-7.752.255c.861 1.532 2.276 2.744 3.753 2.361 1.046-.255 3.322-1.914 4.06-2.488l.062-.064z" fill="url(#b)" transform="translate(1.97 11.017)"/><path d="M10.285 15.938c.062-.063 0-.126 0-.126C6.893 13.5.233 9.875.233 9.875c-.617 1.875.185 3.438.185 3.438.864 1.812 2.467 2.374 2.467 2.374.74.313 1.48.313 1.48.313h5.797c.123 0 .123-.063.123-.063z" fill="url(#c)" transform="translate(1.97 11.017)"/><path d="M10.81 0c-.31 0-1.236.249-1.236.249-2.04.56-2.534 2.427-2.534 2.427-.371 1.182 0 2.49 0 2.49.68 3.048 4.079 8.151 4.82 9.21l.062.062c.062 0 .062-.125.062-.125C13.158 2.987 10.81 0 10.81 0z" fill="url(#d)" transform="translate(1.97 11.017)"/><path d="M13.364 14.313c.062 0 .123-.062.123-.062.737-1.054 4.112-6.072 4.787-9.108 0 0 .368-1.487 0-2.479 0 0-.491-1.92-2.578-2.416L14.47 0s-2.27 2.974-1.166 14.189c0 .123.061.123.061.123z" fill="url(#e)" transform="translate(1.97 11.017)"/><path d="M15.25 16.5s-.063 0-.063.062v.125c.745.562 3.039 2.122 4.093 2.435 0 0 2.046.686 3.782-2.372l-7.812-.25z" fill="url(#f)" transform="translate(1.97 11.017)"/><path d="M25.229 9.875s-6.633 3.563-10.042 5.938c0 0-.062.062-.062.124l.062.063H21.2s.62 0 1.363-.313c0 0 1.674-.5 2.542-2.437-.062 0 .682-1.563.124-3.375z" fill="url(#g)" transform="translate(1.97 11.017)"/><path d="M14.465 14.972s.062.062.124 0c1.113-.558 5.752-2.914 7.67-4.775 0 0 1.237-.992 1.298-2.542.124-2.171-2.04-4.218-2.04-4.218S17.433 8.4 14.464 14.848c0 0-.062.124 0 .124z" fill="url(#h)" transform="translate(1.97 11.017)"/><path d="M6.026 37.977h-.998v-2.068H3v2.068h-.998V33H3v2.14h2.027V33h.998v4.977zM10.886 33v3.257c0 .56-.186 1-.557 1.316-.371.317-.853.475-1.446.475-.59 0-1.07-.158-1.437-.475-.368-.316-.552-.755-.552-1.316V33h1.001v3.257c0 .333.09.587.267.763.178.175.418.263.721.263.308 0 .552-.088.732-.263.18-.176.27-.43.27-.763V33h1.001zm3.46 3.903h-1.614l-.335 1.074h-1.043L13.033 33h1.022l1.671 4.977h-1.043l-.338-1.074zm-1.368-.782h1.124l-.55-1.754h-.02l-.554 1.754zm7.154.256h.02l.66-3.377h1.029l-1.162 4.977h-.927l-.916-3.278h-.02l-.913 3.278h-.926L15.815 33h1.029l.663 3.374h.02L18.423 33h.806l.903 3.377zm5.082-.588H23.37v1.422h2.194v.766H22.37V33h3.186v.769h-2.187v1.251h1.845v.77zm1.815 2.188h-.998V33h.998v4.977z" fill="#FFF"/><g fill="#FFF"><path d="M47.957 24.11a10.67 10.67 0 0 0-.58-1.39 80.825 80.825 0 0 0 2.897-.985v-3.476h1.565v2.78c1.196-.54 2.413-1.254 3.65-2.143l.926 1.101a30.68 30.68 0 0 1-4.576 2.607v.695c-.04.695.308 1.024 1.042.985h1.217c.617.039 1.004-.232 1.158-.811.077-.348.135-.85.174-1.506.54.193 1.043.347 1.506.463a30.1 30.1 0 0 1-.347 1.796c-.194.966-.908 1.43-2.144 1.39h-2.143c-1.39.078-2.066-.58-2.028-1.97v-.405c-.695.27-1.468.56-2.317.87zm-4.808 4.635v-1.449h6.083V25.79h1.564v1.506h6.14v1.449h-6.14v3.186h-1.564v-3.186h-6.083zm.463-5.04a8.313 8.313 0 0 0-.579-1.622c1.544-1.004 2.858-2.356 3.94-4.055l1.506.579a29.35 29.35 0 0 1-1.565 2.085v5.272H45.35v-3.708c-.502.503-1.081.985-1.738 1.449zM67.387 27.991a41.852 41.852 0 0 0-1.68-1.853c-.232-.27-.406-.464-.521-.58l1.1-.926a68.664 68.664 0 0 1 2.317 2.2l-1.216 1.16zm-5.851-6.72a20.368 20.368 0 0 0-1.97-2.143l1.159-.927c.232.194.58.521 1.043.985.463.425.81.753 1.042.985l-1.274 1.1zm-1.97 10.718a3.445 3.445 0 0 1-.29-.348 16.575 16.575 0 0 0-.926-1.043c3.282-1.93 5.02-4.46 5.213-7.589h-4.866v-1.506h5.04c.116-1.12.174-2.278.174-3.476h1.738c-.078 1.584-.155 2.743-.232 3.476H71.5c-.039.657-.097 1.816-.174 3.476a357.122 357.122 0 0 1-.174 3.823c-.039 1.854-.984 2.781-2.838 2.781-.889.038-1.835.058-2.839.058a12.45 12.45 0 0 0-.405-1.622c.927.078 1.796.116 2.607.116 1.235.078 1.853-.522 1.853-1.796 0-.348.02-.927.058-1.738.077-1.66.135-2.858.174-3.592h-4.46c-.31 3.824-2.222 6.817-5.736 8.98zM74.767 18.954h11.297v1.564H74.767v-1.564zm-1.216 5.851v-1.564h13.845v1.564h-6.952c-.965 1.353-2.163 2.859-3.591 4.519 1.274 0 3.495-.077 6.662-.232a25.494 25.494 0 0 0-1.912-2.433l1.333-.81c.579.656 1.467 1.737 2.664 3.243.618.773 1.062 1.293 1.333 1.564l-1.449.927-.869-1.159c-1.313.038-3.398.135-6.256.29-.618.038-1.082.058-1.39.058-.734.038-1.372.116-1.912.232l-.753-1.564c.501-.27 1.004-.696 1.506-1.275a28.995 28.995 0 0 0 2.491-3.36h-4.75z"/></g></g></svg>