<?xml version="1.0" encoding="UTF-8"?>
<svg width="200px" height="100px" viewBox="0 0 200 100" version="1.1" xmlns="http://www.w3.org/2000/svg" xmlns:xlink="http://www.w3.org/1999/xlink">
    <!-- Generator: Sketch 54 (76480) - https://sketchapp.com -->
    <title>矩形复制 8</title>
    <desc>Created with Sketch.</desc>
    <g id="页面1" stroke="none" stroke-width="1" fill="none" fill-rule="evenodd">
        <g id="1复制" transform="translate(-765.000000, -222.000000)">
            <g id="编组-23" transform="translate(765.000000, 222.000000)">
                <path d="M62.3872189,69.923796 L43.7369232,69.923796 C40.6142719,69.9196603 37.6216788,68.7051583 35.4196701,66.5483552 C33.2176613,64.3915521 31.987281,61.4697753 32.0000992,58.4279205 L32.0000992,58.1381743 C31.9979644,55.1945637 33.1974145,52.3709182 35.3341325,50.2894706 C37.4708505,48.2080231 40.3694747,47.0395992 43.3912496,47.0416787 L45.7466533,47.4410586 C45.7466533,41.1223364 51.0050076,36 57.4915163,36 C63.9748853,36.0043228 69.2283418,41.1253933 69.2283403,47.4410586 L69.2283403,48.6078743 C73.8026778,48.9827023 77.0438238,50.1557623 78.9517781,52.1270545 C81.8137096,55.0839927 81.2254,60.9724823 79.9065656,64.3470769 C78.2627402,68.5532489 72.4229579,70.4121553 62.3872189,69.923796 Z" id="路径复制" fill="#ABBAC4" opacity="0.425571987"></path>
                <path d="M130.59779,45.0572632 L130.59779,50.8842105 L151.937017,29.5393684 L130.403315,8 L130.403315,15.5157895 L66.6077348,15.5157895 C53.2969114,15.5157671 42.4995169,26.2962224 42.4751381,39.6105263 L42.3779006,63.9616842 L42.3779006,64.5894737 C42.4109063,67.975331 41.0905288,71.2341252 38.7101985,73.6416477 C36.3298681,76.0491702 33.0867818,77.4059714 29.7016575,77.4105263 C22.134441,77.4105263 16,71.274471 16,63.7052632 C16,56.1360553 22.134441,50 29.7016575,50 L32.9281768,50 L32.9281768,46.3747368 C32.9379365,36.1622014 41.2199821,27.8898505 51.4298343,27.8947368 C62.4291495,27.8947368 71.3458564,36.8137902 71.3458564,47.816 L71.3458564,48.5498947 L73.3171271,48.5498947 C80.3521973,48.5498947 86.0552486,54.2544468 86.0552486,61.2913684 L86.0552486,63.1570526 C86.045495,69.5668803 80.8479278,74.7579022 74.439779,74.7578947 L56.2209945,74.7578947 C55.1652698,74.7602493 54.152107,74.3417961 53.405595,73.5950877 C52.6590831,72.8483793 52.24074,71.8349499 52.2430939,70.7789474 C52.24074,69.7229449 52.6590831,68.7095154 53.405595,67.962807 C54.152107,67.2160987 55.1652698,66.7976455 56.2209945,66.8 C57.2767192,66.7976455 58.289882,67.2160987 59.0363939,67.962807 C59.7829058,68.7095154 60.2012489,69.7229449 60.198895,70.7789474 L60.198895,75.9162105 C60.198895,78.2065063 62.0550581,80.0631579 64.3447514,80.0631579 L126.541436,80.0631579" id="路径" stroke="#404042" stroke-width="1.76"></path>
                <path d="M153.480497,81.7022079 L136.946524,81.7022079 C134.178213,81.6985048 131.525201,80.6110209 129.573063,78.679786 C127.620925,76.7485511 126.530161,74.132347 126.541524,71.4086231 L126.541524,71.1491798 C126.539632,68.5134253 127.602976,65.9850894 129.497232,64.121329 C131.391488,62.2575687 133.961194,61.2113438 136.640076,61.2132059 L142.840315,61.2132059 C143.850876,61.2132041 144.819943,61.6086644 145.533849,62.3123922 C146.247755,63.0161201 146.647872,63.9703245 146.64598,64.9646145 C146.64598,65.9576903 146.245027,66.9100922 145.531326,67.6123028 C144.817626,68.3145134 143.84964,68.7090112 142.840315,68.7090112 L142.533867,68.7090112 C141.524542,68.7090112 140.556556,68.3145134 139.842856,67.6123028 C139.129155,66.9100922 138.728202,65.9576903 138.728202,64.9646145 L138.728202,61.5708168 C138.728202,55.9129351 143.38987,51.3263158 149.140329,51.3263158 C154.888004,51.3301865 159.54533,55.9156723 159.545329,61.5708168 L159.545329,62.6156017 C163.600598,62.9512284 166.473958,64.0016045 168.165409,65.7667301 C170.702586,68.4144183 170.181034,73.6870631 169.011853,76.7087274 C167.554559,80.4749989 162.377441,82.1394924 153.480497,81.7022079 Z" id="路径" fill="#ABBAC4" opacity="0.570033482"></path>
                <path d="M157.480663,85.7044211 L136.972376,85.7044211 C133.538638,85.6997514 130.247915,84.3284342 127.826536,81.893147 C125.405157,79.4578598 124.052203,76.1588264 124.066298,72.7242105 L124.066298,72.3970526 C124.063951,69.0733662 125.382893,65.8851346 127.732477,63.5349328 C130.08206,61.1847309 133.269453,59.8654414 136.592265,59.8677895 L144.282873,59.8677895 C145.536345,59.8677873 146.73835,60.3664626 147.623859,61.2538635 C148.509368,62.1412643 149.005662,63.344516 149.003315,64.5983158 L149.003315,64.5983158 C149.003315,65.8505843 148.505984,67.0515632 147.620729,67.9370507 C146.735475,68.8225383 145.534812,69.32 144.282873,69.32 L143.902762,69.32 C142.650823,69.32 141.45016,68.8225383 140.564906,67.9370507 C139.679651,67.0515632 139.18232,65.8505843 139.18232,64.5983158 L139.18232,60.3187368 C139.18232,53.184148 144.964526,47.4004211 152.097238,47.4004211 L152.097238,47.4004211 C159.226497,47.4053021 165.003317,53.1875997 165.003315,60.3187368 L165.003315,61.6362105 L168.981215,61.6362105 C176.875531,61.6362105 183.275138,68.0375018 183.275138,75.9338947 L183.275138,75.9338947 C183.275138,84.8069597 176.08399,92 167.21326,92 L151.301657,92" id="路径" stroke="#404042" stroke-width="1.76"></path>
                <path d="M120.775691,60.8138947 L93.3480663,60.8138947 L93.3480663,70.0096842 L76.9060773,55.3317895 L92.879558,39.416 L92.879558,48.2581053 L99.0674033,48.2581053 L99.0674033,39.5486316 C99.0674033,36.0570293 101.897162,33.2265263 105.387845,33.2265263 L124.630939,33.2265263 L124.630939,37.6475789 L132.144751,30.1317895 L124.630939,22.616 L124.630939,26.5418947 L108.81768,26.5418947 L108.81768,39.3187368 C108.815329,40.8484436 109.421802,42.316174 110.503184,43.3978412 C111.584567,44.4795085 113.051911,45.0861411 114.581215,45.0837895 L131.455249,45.0837895" id="路径" stroke="#ff9d00" stroke-width="1.76"></path>
                <path d="M108.81768,11.0947368 L122.961326,11.0947368" id="路径" stroke="#404042" stroke-width="1.76"></path>
                <path d="M138.917127,91.5578947 L100.022099,91.5578947" id="路径" stroke="#404042" stroke-width="1.76"></path>
                <path d="M75.2265193,43.8105263 L82.2983425,43.8105263" id="路径" stroke="#404042" stroke-width="1.76"></path>
                <path d="M98.2099448,8.44210526 L105.281768,8.44210526" id="路径" stroke="#404042" stroke-width="1.76"></path>
                <path d="M118,51.7684211 L127.723757,51.7684211" id="路径" stroke="#404042" stroke-width="1.76"></path>
                <rect id="矩形复制-8" x="0" y="0" width="200" height="100"></rect>
            </g>
        </g>
    </g>
</svg>