<?xml version="1.0" encoding="UTF-8"?>
<svg width="200px" height="100px" viewBox="0 0 200 100" version="1.1" xmlns="http://www.w3.org/2000/svg" xmlns:xlink="http://www.w3.org/1999/xlink">
    <!-- Generator: Sketch 54 (76480) - https://sketchapp.com -->
    <title>矩形复制 9</title>
    <desc>Created with Sketch.</desc>
    <g id="页面1" stroke="none" stroke-width="1" fill="none" fill-rule="evenodd">
        <g id="1复制" transform="translate(-1069.000000, -222.000000)">
            <g id="编组-59" transform="translate(1069.000000, 222.000000)">
                <rect id="矩形复制-9" x="0" y="0" width="200" height="100"></rect>
                <g id="智能数据分析&amp;AI应用" transform="translate(13.000000, 8.000000)">
                    <g id="编组-5">
                        <path d="M152.364258,10.120003 L144.633508,10.120003 L144.633508,7.2 C144.633508,3.2235498 141.409958,-1.98982497e-13 137.433508,-2.30038211e-13 L65.6118301,-8.08242362e-14 C61.6353799,-7.30301796e-14 58.4118301,3.2235498 58.4118301,7.2 L58.4118301,60.6248874 C58.4118301,65.6901291 62.5428599,69.7963189 67.6387435,69.7963189 L96.8046026,69.7963189 C97.6655891,69.7963189 98.4913118,70.1362878 99.1001212,70.7414364 C99.7089306,71.346585 100.050956,72.1673426 100.050956,73.023152 L100.050956,73.1052597 C100.06441,73.9919817 99.7165336,74.8464259 99.0864401,75.4742771 C98.4563465,76.1021283 97.5975939,76.4500189 96.7054773,76.4388328 L89.8493107,76.4388328 C88.3720803,76.4385871 87.1669083,77.6145991 87.1398858,79.0827012 L87.0820627,81.6690941 C87.0709629,82.2162245 87.2818857,82.7447677 87.6672804,83.1355684 C88.0526751,83.526369 88.5801002,83.7465305 89.1306523,83.7464192 L89.312382,83.7464192 C89.8256961,83.7465388 90.3174103,83.541084 90.6764714,83.1764568 C91.0355325,82.8118296 91.2316547,82.3187852 91.220544,81.8086772 L91.220544,81.7265695 C91.2069465,80.6356012 90.3108992,79.759603 89.2132567,79.7641952 L53.404242,79.7641952 C52.6185004,79.7641982 51.8650607,79.4533796 51.310233,78.9003475 C50.7554052,78.3473154 50.4448091,77.5975422 50.4470039,76.8165283 L50.4470039,49.4664493 C50.4470039,47.8430325 49.1230033,46.5269932 47.4897658,46.5269932 L36.0242727,46.5269932 C35.2407219,46.5269901 34.4893833,46.8369437 33.9361047,47.3884359 C33.382826,47.9399282 33.0731002,48.687613 33.075295,49.4664493 L33.075295,71.5698455 C33.075295,73.3429068 34.5213404,74.780257 36.3051277,74.780257 L50.3478786,74.780257 C52.2457188,74.780257 53.7842223,73.2510046 53.7842223,71.3645762 L53.7842223,48.867063 C53.7842223,45.7472005 51.2397742,43.2180523 48.1010385,43.2180523 L35.0743219,43.2180523 C33.6568709,43.2180523 32.2974749,43.7777468 31.2951857,44.7740092 C30.2928964,45.7702716 29.7298162,47.1214935 29.7298162,48.5304213 L29.7298162,57.2831035 C29.7298162,64.5930137 23.7681151,70.5188667 16.4139842,70.5188667 L16.0587852,70.5188667 C12.0723727,70.5319538 8.24448097,68.9681718 5.41945447,66.172455 C2.59442797,63.3767383 0,59.9542244 0,53.0556641 C0,46.1571037 3.00438945,39.8713973 11.2695313,35.8105263 C18.5427387,32.2370175 29.7298162,31.992408 29.7298162,35.8105263 C29.7298162,38.0367473 28.4589844,39.307373 26.2988281,38.8671875 C24.1386719,38.427002 23.0734863,35.9306641 23.5976562,30.4975586 C24.1218262,25.0644531 28.7832031,14.9319454 40.8979333,14.9319454 C48.9744201,14.9319454 54.0626416,17.1968991 56.1625977,21.7268066" id="路径" stroke="#404042" stroke-width="1.44"></path>
                        <path d="M59.5340314,84.1047526 L77.004596,84.1047526" id="路径复制-5" stroke="#404042" stroke-width="1.44"></path>
                        <path d="M85.0008641,32.1262105 C83.4737555,24.0718028 90.3674608,19.4502875 98.7145012,18.6598409 C105.716175,17.9967976 111.347554,22.5145631 110.469895,28.4118703 C109.592237,34.3091775 103.048063,36.0090879 99.1570681,37.5178324 C94.9953751,39.131541 89.8801123,40.6478458 87.4256381,39.7819112 C86.2992771,39.3845328 85.6180674,38.0036686 86.0513283,36.7571615 C86.7933074,34.6224611 88.9789911,34.5905914 90.3334322,35.6255595 C91.4933351,36.5118752 91.8451034,38.0860427 92.3843805,40.8518716 C93.3094027,45.5960994 92.7158021,51.7470079 94.6544503,53.529541 C99.0430745,57.564759 113.646351,59.130249 115.875707,56.5955239 C118.105064,54.0607988 116.776231,47.7423147 116.776231,46.1214193 C116.776231,44.5005238 116.364612,43.0473792 119.025373,43.0473792 C121.686133,43.0473792 120.990077,41.9079875 119.025373,35.1635911 C117.060669,28.4191948 116.913161,14.0133715 104.586978,12.3322881 C92.2607941,10.6512047 73.5023572,17.3294412 76.317069,33.3770106 C79.1317807,49.42458 86.4289328,50.9518497 89.454968,56.5955239 C92.4810032,62.2391981 92.745357,66.0784728 79.1317807,66.0784728 C65.5182045,66.0784728 65.5182045,79.8590598 76.317069,79.8590598 C77.853528,79.8590598 87.9125212,79.9604019 106.494049,80.1630859" id="路径-8复制" stroke="#404042" stroke-width="1.44"></path>
                        <path d="M85.0008641,32.1262105 C83.4737555,24.0718028 90.3674608,19.4502875 98.7145012,18.6598409 C105.716175,17.9967976 111.347554,22.5145631 110.469895,28.4118703 C109.592237,34.3091775 103.048063,36.0090879 99.1570681,37.5178324 C94.9953751,39.131541 89.8801123,40.6478458 87.4256381,39.7819112 C86.2992771,39.3845328 85.6180674,38.0036686 86.0513283,36.7571615 C86.7933074,34.6224611 88.9789911,34.5905914 90.3334322,35.6255595 C91.4933351,36.5118752 91.8451034,38.0860427 92.3843805,40.8518716 C93.3094027,45.5960994 92.7158021,51.7470079 94.6544503,53.529541" id="路径-8复制" stroke="#ff9d00" stroke-width="1.44"></path>
                        <path d="M125,76.0208333 L131.535522,76.0208333 L131.535522,65.5295493 C131.535522,64.9772646 131.983237,64.5295493 132.535522,64.5295493 L135.674181,64.5295493 L135.674181,72.0208558 C135.674181,73.005305 136.472235,73.8033588 137.456685,73.8033588 L137.456685,73.8033588 C138.441134,73.8033588 139.239188,73.005305 139.239188,72.0208558 L139.239188,62.5746173 L143.394804,62.5746173 L143.394804,72.3197185 C143.394804,73.1391105 144.059052,73.8033588 144.878444,73.8033588 L144.878444,73.8033588 C145.697836,73.8033588 146.362084,73.1391105 146.362084,72.3197185 L146.362084,59.8286133 L150.446517,59.8286133 L150.446517,73.5989019 C150.446517,74.4725033 151.154711,75.1806973 152.028312,75.1806973 L152.028312,75.1806973 C152.901913,75.1806973 153.610107,74.4725033 153.610107,73.5989019 L153.610107,67.5104167 L156.685791,67.5104167 C157.238076,67.5104167 157.685791,67.9581319 157.685791,68.5104167 L157.685791,74.4014736" id="路径复制-3" stroke="#ff9d00" stroke-width="1.44"></path>
                        <path d="M140.041245,28.2909241 L140.041245,10.3130859 C140.041245,7.33074829 137.623583,4.91308594 134.641245,4.91308594 L68.8967426,4.91308594 C65.9144049,4.91308594 63.4967426,7.33074829 63.4967426,10.3130859 L63.4967426,42.5380859" id="路径" stroke="#404042" stroke-width="1.44"></path>
                        <path d="M63.4967426,47.7687378 L63.4967426,56.8714193" id="路径" stroke="#404042" stroke-width="1.44"></path>
                        <path d="M140.041245,25.1552734 C140.041245,35.40625 140.041245,40.5982259 140.041245,40.7312012 C134.286791,42.6655747 129.991194,47.6101781 129.991194,52.9549352 L129.991194,56.2137137 L124.368184,56.2137137 C119.779674,56.2196995 116.061294,61.4363016 116.055906,66.5331789 C116.061294,71.6300562 119.779674,75.7603988 124.368184,75.7663846 L125.790527,75.7663846" id="路径复制-4" stroke="#404042" stroke-width="1.44"></path>
                        <rect id="矩形" fill="#ABBAC4" fill-rule="nonzero" opacity="0.570033482" x="35.069579" y="48.3089193" width="13" height="24" rx="1.62"></rect>
                    </g>
                    <g id="编组-24复制" transform="translate(101.000000, 10.000000)">
                        <path d="M40,6 L56,6 C57.1045695,6 58,6.8954305 58,8 L58,18 C58,19.1045695 57.1045695,20 56,20 L40,20 L40,6 Z" id="矩形复制-2" fill="#ABBAC4" fill-rule="nonzero" opacity="0.570033482"></path>
                        <path d="M43.6660156,4 L59.1786425,4 C59.5524898,4 59.9110252,4.1668852 60.1753751,4.4639429 C60.4397251,4.7610005 60.5882353,5.1638971 60.5882353,5.584 L60.5882353,18.526 C60.5882353,20.4446372 59.2041266,22 57.4967421,22 L53.3800905,22" id="路径" stroke="#404042" stroke-width="1.44"></path>
                        <path d="M0.768993864,70.120003 L60.0184452,70.1199995 C63.4111949,70.1225043 66.6657094,68.7818086 69.0647464,66.3933801 C71.4637835,64.0049515 72.810434,60.7648284 72.807918,57.3870813 C72.810434,54.0093342 71.4637835,50.7692111 69.0647464,48.3807825 C66.6657094,45.992354 63.4111949,44.6516583 60.0184452,44.6541631 L54.8079192,44.6541631 C53.2382679,44.6541631 51.9658141,45.9209902 51.9658141,47.4837005 C51.9658141,49.0464108 53.2382679,50.3132379 54.8079192,50.3132379 C56.3775705,50.3132379 57.6500243,49.0464108 57.6500243,47.4837005 L57.6500243,43.2676898 C57.6500446,37.2727058 52.7768792,32.4084329 46.7552881,32.3928345 C44.9397248,32.3928345 43.4679199,30.9275379 43.4679199,29.120003 C43.8653464,27.0815698 44.9611358,26.0623533 46.7552881,26.0623533 C50.8012142,26.0623533 54.8471403,26.0623533 58.8930664,26.0623533 L58.8930664,26.0623533 C61.6544902,26.0623533 63.8930664,23.823777 63.8930664,21.0623533 L63.8930664,5.120003 C63.8930664,2.3585792 61.6544902,0.120003 58.8930664,0.120003 L43.6335079,0.120003" id="路径复制-8" stroke="#404042" stroke-width="1.6"></path>
                    </g>
                </g>
            </g>
        </g>
    </g>
</svg>