<?xml version="1.0" encoding="UTF-8"?>
<svg width="140px" height="140px" viewBox="0 0 140 140" version="1.1" xmlns="http://www.w3.org/2000/svg" xmlns:xlink="http://www.w3.org/1999/xlink">
    <!-- Generator: Sketch 63.1 (92452) - https://sketch.com -->
    <title> illustration04</title>
    <desc>Created with Sketch.</desc>
    <defs>
        <rect id="path-1" x="0" y="0" width="140" height="140"></rect>
    </defs>
    <g id="页面-1" stroke="none" stroke-width="1" fill="none" fill-rule="evenodd">
        <g id="切图" transform="translate(-928.000000, -1270.000000)">
            <g id="-illustration04" transform="translate(928.000000, 1270.000000)">
                <mask id="mask-2" fill="white">
                    <use xlink:href="#path-1"></use>
                </mask>
                <use id="矩形" stroke="#979797" fill="#D8D8D8" opacity="0" xlink:href="#path-1"></use>
                <g id="编组" mask="url(#mask-2)">
                    <g transform="translate(3.000000, 29.000000)">
                        <path d="M61.2868217,52.8468447 L61.2868217,68.7056521 C61.2868217,72.5332447 64.4092282,75.6356589 68.2592911,75.6356589 L83.2481997,75.6356589 C84.4625443,75.6356589 85.4454236,74.6581859 85.4454236,73.453378 C85.4454236,72.2478955 84.4625443,71.2704225 83.2481997,71.2704225 L68.4249144,71.2704225 C66.9078321,71.2704225 65.6792331,70.0487499 65.6792331,68.5424027 C65.6792331,67.0353809 66.9078321,65.8137083 68.4249144,65.8137083 L92.5007047,65.8137083 C96.4872032,65.8137083 99.7209302,62.6013368 99.7209302,58.6381528 L99.7209302,36.0852713 C99.7209302,34.9807018 98.8254997,34.0852713 97.7209302,34.0852713 L94.5271318,34.0852713 L94.5271318,34.0852713 L85.152905,30.1793435 C83.2826409,29.4000668 81.1269769,29.8265114 79.6942942,31.2591942 L72.9985826,37.9549058 C72.3990472,38.5544411 72.3990472,39.52648 72.9985826,40.1260154 C73.0700685,40.1975013 73.1484409,40.2617513 73.2325581,40.3178295 C74.1567181,40.9339361 75.3760429,40.8688015 76.2293078,40.1577474 L81.0232558,36.1627907 L81.0232558,36.1627907" id="Stroke-1" stroke="#404042" stroke-width="2" fill="none"></path>
                        <path d="M22.8527132,75.6356589 L3.90827026,75.6356589 C1.85384352,75.6356589 0.188980076,73.9567735 0.188980076,71.8858777" id="路径" stroke="#404042" stroke-width="2" fill="none"></path>
                        <polyline id="路径-2" stroke="#ff9d00" stroke-width="2" fill="none" points="89.3333333 50.7054264 94.5271318 49.6666667 99.7209302 49.6666667"></polyline>
                        <path d="M0.0319164961,28.2064 C0.0248239414,26.2808637 0.0141851094,23.3925593 0,19.5414867 C0,17.8206967 1.38258092,16.4263566 3.08968617,16.4263566 L13.503876,16.4263566 L13.503876,11.751938 C13.503876,9.17032787 15.5966845,7.07751938 18.1782946,7.07751938 C20.7599047,7.07751938 22.8527132,9.17032787 22.8527132,11.751938 L22.8527132,16.4263566 L37.3953488,16.4263566 L37.3953488,11.751938 C37.3953488,9.17032787 39.4881573,7.07751938 42.0697674,7.07751938 C44.6513776,7.07751938 46.744186,9.17032787 46.744186,11.751938 L46.744186,16.4263566 L58.1971355,16.4263566 C59.8426262,16.4263566 61.1876058,17.7228794 61.2815769,19.3584141 L61.2868217,19.5414867 L61.2868217,46.6882671 L65.4418605,46.5503876 L75.116582,55.5801277 C78.4111671,58.6550738 83.5497757,58.5665034 86.7364341,55.379845 C89.9211008,52.1951783 90.0039378,47.0579471 86.9236046,43.7722583 L80.4267531,36.8422834 L79.9844961,37.2015504 M77.4213441,34.1588345 C76.1704681,33.437101 74.7402908,33.0465116 73.2680254,33.0465116 L61.2868217,33.0465116" id="形状" stroke="#404042" stroke-width="2" fill="none"></path>
                        <path d="M99.7209302,58.6381528 L99.7209302,36.0852713 C99.7209302,34.9807018 98.8254997,34.0852713 97.7209302,34.0852713 L94.5271318,34.0852713 L94.5271318,34.0852713 L85.152905,30.1793435 C83.2826409,29.4000668 81.1269769,29.8265114 79.6942942,31.2591942 L72.9985826,37.9549058 C72.3990472,38.5544411 72.3990472,39.52648 72.9985826,40.1260154 C73.0700685,40.1975013 73.1484409,40.2617513 73.2325581,40.3178295 C74.1567181,40.9339361 75.3760429,40.8688015 76.2293078,40.1577474 L81.0232558,36.1627907 L81.0232558,36.1627907" id="Stroke-1" stroke="#ff9d00" stroke-width="2" fill="none"></path>
                        <path d="M61.2759123,68.3643411 L61.2868214,42.2558958 C61.2876502,40.2722638 59.7149272,38.6455311 57.7323974,38.5794076 C55.8329315,38.5160546 54.2417523,40.0045182 54.1783993,41.9039841 C54.1771244,41.9422077 54.1764868,41.98045 54.1764868,42.0186949 L54.1764868,60.788733 C54.1764868,62.8718122 52.4878175,64.5604815 50.4047383,64.5604815 C48.3216592,64.5604815 46.6329899,62.8718122 46.6329899,60.788733 L46.6329899,47.7237169 C46.6329899,45.8300086 45.0978359,44.2948547 43.2041276,44.2948547 C41.3104193,44.2948547 39.7752654,45.8300086 39.7752654,47.7237169 L39.7752654,61.1316192 C39.7752654,63.0253276 38.2401114,64.5604815 36.3464031,64.5604815 C34.4526948,64.5604815 32.9175409,63.0253276 32.9175409,61.1316192 L32.9175409,41.7017468 C32.9175409,39.6186677 31.2288716,37.9299983 29.1457924,37.9299983 C27.0627132,37.9299983 25.3740439,39.6186677 25.3740439,41.7017468 L25.3740439,61.1316192 C25.3740439,63.0253276 23.83889,64.5604815 21.9451817,64.5604815 C20.0514733,64.5604815 18.5163194,63.0253276 18.5163194,61.1316192 L18.5163194,32.6632213 C18.5163194,30.5801422 16.8276501,28.8914729 14.7445709,28.8914729 C12.6614918,28.8914729 10.9728225,30.5801422 10.9728225,32.6632213 L10.9728225,53.5881223 C10.9728225,59.6479889 6.06032993,64.5604815 0.000463275207,64.5604815 L0.000463275207,64.5604815 L0.000463275207,64.5604815" id="形状" stroke="#404042" stroke-width="2" fill="none" transform="translate(30.643642, 48.627907) scale(-1, 1) translate(-30.643642, -48.627907) "></path>
                        <polyline id="直线-3" stroke="#ff9d00" stroke-width="2" fill="none" transform="translate(24.930233, 30.968992) rotate(7.000000) translate(-24.930233, -30.968992) " points="14.5426357 38.2403101 35.3178295 23.6976744 29.3221362 23.6976744"></polyline>
                        <path d="M123.76223,43.4341085 C128,44 127.767442,38.5913069 127.767442,36.3188364 L127.767442,19.9346057 C127.767442,17.6614533 125.973925,15.2515655 123.76223,15.2515655 L111.836866,15.2515655 L106.992248,15.2515655" id="Stroke-21" stroke="#404042" stroke-width="2" fill="none"></path>
                        <path d="M76.8682171,15.2515655 L107.37109,15.2515655 C108.882697,15.2515655 110.108527,16.4766439 110.108527,17.9890028 C110.108527,19.5006096 108.882697,20.7264401 107.37109,20.7264401 C105.858731,20.7264401 104.632148,19.5006096 104.632148,17.9890028 L104.632148,11.3488372" id="Stroke-17" stroke="#404042" stroke-width="2" fill="none" transform="translate(93.488372, 16.037639) scale(-1, 1) translate(-93.488372, -16.037639) "></path>
                        <path d="M87.9162668,7.71308528 C89.4297884,6.27781493 90.372093,4.26080257 90.372093,2.02719884 L90.372093,0 L86.9258464,0 C85.5337845,0 84.1993301,0.545618412 83.2148966,1.51536708 L82.5658996,1.51536708 C81.5814661,0.545618412 80.2470117,0 78.8549498,0 L75.8294574,0 L75.8294574,2.02719884 C75.8294574,2.69789973 75.9147749,3.34919128 76.0744719,3.97100936 C76.2866721,4.79842279 76.6323176,5.57335908 77.0866155,6.27281457 L77.2783977,6.55460959 C78.7258796,8.58612162 81.1206054,9.91386497 83.8303498,9.91386497 L83.8383711,13.7454146" id="形状" stroke="#404042" stroke-width="2" fill="none" transform="translate(83.100775, 6.872707) scale(-1, 1) translate(-83.100775, -6.872707) "></path>
                        <path d="M113.224806,45.5116279 C113.224806,44.3642436 114.279485,43.4341085 115.582006,43.4341085 L124.651163,43.4341085" id="Stroke-23" stroke="#404042" stroke-width="2" fill="none"></path>
                        <path d="M104.992248,35.2403101 C103.703147,35.2403101 102.658155,34.6133147 102.658155,33.8398543 L102.658155,20.0212341 C102.658155,19.2471504 103.703147,18.620155 104.992248,18.620155 L122.31707,18.620155 C123.606171,18.620155 124.651163,19.2471504 124.651163,20.0212341 L124.651163,33.8398543 C124.651163,34.6133147 123.606171,35.2403101 122.31707,35.2403101 L104.992248,35.2403101 Z" id="Fill-27" stroke="none" fill="#D5DCE1" fill-rule="evenodd"></path>
                        <path d="M92.4496124,74.5968992 L124.897185,74.5968992 C129.924636,74.5968992 134,70.5557181 134,65.5704357 C134,60.5851533 129.924636,56.5439722 124.897185,56.5439722 L123.885761,56.5439722 L121.18863,56.5439722 C120.071344,56.5439722 119.165783,57.4419382 119.165783,58.549853 C119.165783,59.6577678 120.071344,60.5557338 121.18863,60.5557338 C122.305917,60.5557338 123.211478,59.6577678 123.211478,58.549853 L123.211478,55.5644338 C123.211478,51.3052802 119.729483,47.8518222 115.433628,47.8518222 C114.143726,47.8518222 113.097239,46.8147818 113.097239,45.5350298 L113.097239,45.5116279" id="Stroke-25" stroke="#404042" stroke-width="2" fill="none"></path>
                        <path d="M92,20.6976744 L123.489735,20.6976744 C124.131594,20.6976744 124.651163,21.2290519 124.651163,21.8839899 L124.651163,33.6714713 C124.651163,35.1116597 123.508244,36.2790698 122.098269,36.2790698 L105,36" id="Stroke-29" stroke="#404042" stroke-width="2" fill="none"></path>
                        <line x1="58.1705426" y1="75.1162791" x2="37.3953488" y2="75.1162791" id="Stroke-9" stroke="#404042" stroke-width="2" fill="none"></line>
                        <line x1="33.2403101" y1="75.6356589" x2="25.9689922" y2="75.6356589" id="Stroke-15" stroke="#404042" stroke-width="2" fill="none"></line>
                    </g>
                </g>
            </g>
        </g>
    </g>
</svg>