<?xml version="1.0" encoding="UTF-8"?>
<svg width="48px" height="48px" viewBox="0 0 48 48" version="1.1" xmlns="http://www.w3.org/2000/svg" xmlns:xlink="http://www.w3.org/1999/xlink">
    <!-- Generator: Sketch 63.1 (92452) - https://sketch.com -->
    <title>icon/5G</title>
    <desc>Created with Sketch.</desc>
    <g id="页面-1" stroke="none" stroke-width="1" fill="none" fill-rule="evenodd">
        <g id="切图" transform="translate(-455.000000, -263.000000)">
            <g id="icon/5G" transform="translate(455.000000, 263.000000)">
                <circle id="Oval" fill="#ABBAC4" cx="32" cy="28.8" r="12.8"></circle>
                <path d="M24,19 L23.5925565,21.1207448 L16.3197047,21.1207448 L15.8804132,23.8655868 L19.6389177,23.8655868 C19.6389177,23.8655868 21.684553,23.9204888 22.4698008,24.5398775 C22.4698008,24.5398775 23.8608854,25.4066681 23.1774212,27.7181148 C22.4939571,30.0295615 20.7126195,30.559382 20.7126195,30.559382 C20.7126195,30.559382 19.1996262,31.06502 17.4179334,30.9927772 C15.6362405,30.9205345 12,31 12,31 L12.3906083,28.8258007 L18.442952,28.8499985 C18.442952,28.8499985 19.6143908,28.8019687 20.0049991,28.2963307 C20.3956074,27.7906927 20.4929737,27.4537378 20.4197636,26.8997196 C20.3465535,26.3457014 20.0291553,26.032929 19.4924975,26.032929 L13.0004917,26.032929 L14.0741934,19.0003505 L24,19 Z M29.3564168,23.8220006 L29.0534355,25.9524955 L32.3388736,25.9524955 L31.8780486,28.7533958 L28.8471921,28.7533958 C28.8471921,28.7533958 27.1013667,28.9447908 26.8587699,26.838385 C26.6161731,24.7319792 27.6345763,22.6011206 27.6345763,22.6011206 C27.6345763,22.6011206 28.3005398,21.2365694 29.5800772,21.2365694 L35.5879123,21.2365694 L36,19.0083998 L30.6897708,19.0083998 C30.6897708,19.0083998 28.8468392,18.8906357 27.7316826,19.5369973 C27.7316826,19.5369973 26.4466822,19.9919639 25.6948761,21.0929284 C24.9430699,22.193893 24.2884008,23.4388621 24.0701726,25.2824387 C23.8519444,27.1260153 24.1672942,28.8015134 24.6764881,29.3520033 C25.1856821,29.9024931 26.0342262,30.8023664 27.6833136,30.9391897 C29.3324011,31.0760129 34.0363147,30.9391897 34.0363147,30.9391897 L35.1518242,23.8220157 L29.3564168,23.8220006 Z" id="形状" fill="#ff9d00" fill-rule="nonzero"></path>
                <path d="M39.9496978,13.3077853 C36.503085,8.17658333 30.6458641,4.8 24,4.8 C16.7513165,4.8 10.4408341,8.8169168 7.17312807,14.7461753 M4.8,24 C4.8,34.6038672 13.3961328,43.2 24,43.2 C34.6038672,43.2 43.2,34.6038672 43.2,24" id="形状" stroke="#252B3A" stroke-width="2"></path>
                <path d="M34.5827273,14.8341914 C32.0157428,11.8729655 28.2265986,10 24,10 C19.7411104,10 15.9263851,11.9016935 13.3586521,14.9022524" id="路径" stroke="#252B3A" stroke-width="2.2"></path>
            </g>
        </g>
    </g>
</svg>