<?xml version="1.0" encoding="UTF-8"?>
<svg width="48px" height="48px" viewBox="0 0 48 48" version="1.1" xmlns="http://www.w3.org/2000/svg" xmlns:xlink="http://www.w3.org/1999/xlink">
    <!-- Generator: Sketch 63.1 (92452) - https://sketch.com -->
    <title>icon/cloud computing</title>
    <desc>Created with Sketch.</desc>
    <g id="页面-1" stroke="none" stroke-width="1" fill="none" fill-rule="evenodd">
        <g id="切图" transform="translate(-691.000000, -263.000000)">
            <g id="icon/cloud-computing" transform="translate(694.000000, 266.000000)">
                <path d="M2,30.6 C2,35.2391919 5.7608081,39 10.4,39 L41,39 L41,39 L41,23.8 C41,18.2771525 36.5228475,13.8 31,13.8 L28.4642857,13.8 L28.4642857,13.8 C28.4642857,8.38760945 24.0766763,4 18.6642857,4 L13.1428571,4 L13.1428571,4 L13.1428571,12.4 L13.1428571,13.8 L11.0535714,13.8 L10.4,13.8 C5.7608081,13.8 2,17.5608081 2,22.2 L2,22.2 L2,22.2" id="Path-6" stroke="#252B3A" stroke-width="2.2"></path>
                <path d="M13.1428571,13.8 L11.0535714,13.8 L10.4,13.8 C5.7608081,13.8 2,17.5608081 2,22.2 L2,22.2 L2,22.2" id="Path-6" stroke="#ABBAC4" stroke-width="2.2"></path>
                <g id="编组-4" transform="translate(12.533333, 8.888889)">
                    <path d="M0.60952381,5.53968254 C0.60952381,8.06463492 4.69100952,10.1111111 8.74047619,10.1111111 C12.7899429,10.1111111 15.9309524,8.06463492 15.9309524,5.53968254 L15.9309524,0.444444444" id="Stroke-1570" stroke="#ff9d00" stroke-width="2.2" transform="translate(8.270238, 5.277778) scale(-1, 1) translate(-8.270238, -5.277778) "></path>
                    <ellipse id="椭圆形" fill="#ABBAC4" cx="8" cy="7" rx="6" ry="3"></ellipse>
                    <g id="编组-7" transform="translate(1.609524, 6.444444)" fill="#7F1625" fill-rule="nonzero">
                        <path d="M0.430835431,0.204608757 C1.23621011,1.5294436 3.4362472,2.56666667 6.19047619,2.56666667 C8.75865778,2.56666667 11.1709128,1.67864725 12.3910667,0.579665809 C12.3634244,2.22589376 9.68750943,3.55555556 6.39047619,3.55555556 C3.07676769,3.55555556 0.39047619,2.2124098 0.39047619,0.555555556 C0.39047619,0.463508097 0.398767214,0.372428875 0.414996229,0.282494404 Z" id="形状结合"></path>
                    </g>
                    <path d="M0.466666667,18.8730159 C0.466666667,21.3979683 3.75053333,23.4444444 7.8,23.4444444 C11.8494667,23.4444444 15.9309524,21.3979683 15.9309524,18.8730159 L15.9309524,11.4444444" id="Stroke-1570备份" stroke="#ff9d00" stroke-width="2.2"></path>
                    <path d="M15.9309524,11.4444444 C15.9309524,14.3902222 12.6470857,16.7777778 8.59761905,16.7777778 C4.54815238,16.7777778 0.466666667,14.3902222 0.466666667,11.4444444" id="Stroke-1572" stroke="#ff9d00" stroke-width="2.2" transform="translate(8.198810, 14.111111) scale(-1, 1) translate(-8.198810, -14.111111) "></path>
                    <line x1="15.9309524" y1="11.4444444" x2="15.9309524" y2="3.77777778" id="Stroke-1574" stroke="#ff9d00" stroke-width="2.2"></line>
                </g>
            </g>
        </g>
    </g>
</svg>