<?xml version="1.0" encoding="UTF-8"?>
<svg width="48px" height="48px" viewBox="0 0 48 48" version="1.1" xmlns="http://www.w3.org/2000/svg" xmlns:xlink="http://www.w3.org/1999/xlink">
    <!-- Generator: Sketch 63.1 (92452) - https://sketch.com -->
    <title>icon/database</title>
    <desc>Created with Sketch.</desc>
    <g id="页面-1" stroke="none" stroke-width="1" fill="none" fill-rule="evenodd">
        <g id="切图" transform="translate(-1057.000000, -262.000000)">
            <g id="icon/database" transform="translate(1057.000000, 263.000000)">
                <rect id="矩形" stroke="#979797" fill="#D8D8D8" opacity="0" x="0" y="0" width="48" height="48"></rect>
                <g id="数据库" transform="translate(2.880000, 0.960000)">
                    <g>
                        <g id="编组-29" stroke-width="2.2">
                            <path d="M26.2727795,2.91194684 L38.7684271,10.1263123 C39.5407668,10.5722229 40.0165476,11.3962995 40.0165476,12.2881205 L40.0165476,31.8718795 C40.0165476,32.7637005 39.5407668,33.5877771 38.7684271,34.0336877 M33.9629487,36.8081319 L21.8083944,43.8255671 C21.0360547,44.2714776 20.0844929,44.2714776 19.3121533,43.8255671 L2.35212055,34.0336877 C1.57978086,33.5877771 1.104,32.7637005 1.104,31.8718795" id="形状" stroke="#252B3A"></path>
                            <path d="M1.104,21.4703203 C1.104,19.8585194 1.104,16.7977862 1.104,12.2881205 C1.104,11.3962995 1.57978086,10.5722229 2.35212055,10.1263123 L19.3121533,0.334432893 C20.0844929,-0.111477631 21.0360547,-0.111477631 21.8083944,0.334432893" id="形状" stroke="#ABBAC4" stroke-linejoin="round"></path>
                            <path d="M1.12,29.04 C1.12,27.8024524 1.104,24.9067738 1.104,24.288 L1.12,29.04 Z" id="路径" stroke="#ff9d00"></path>
                        </g>
                        <path d="M21.6645132,13.5371358 L28.209744,17.3742449 C28.5159039,17.5537296 28.704,17.882036 28.704,18.2369285 L28.704,25.9230715 C28.704,26.277964 28.5159039,26.6062704 28.209744,26.7857551 L21.6645132,30.6228642 C21.3589213,30.8020159 20.9813551,30.806128 20.6719339,30.6336744 L13.7611647,26.7820085 C13.4443672,26.6054438 13.248,26.2711933 13.248,25.9085147 L13.248,18.2514853 C13.248,17.8888067 13.4443672,17.5545562 13.7611647,17.3779915 L20.6719339,13.5263256 C20.9813551,13.353872 21.3589213,13.3579841 21.6645132,13.5371358 Z" id="多边形" stroke="#ff9d00" stroke-width="2.2"></path>
                        <path d="M17.2485132,13.5371358 L23.793744,17.3742449 C24.0999039,17.5537296 24.288,17.882036 24.288,18.2369285 L24.288,25.9230715 C24.288,26.277964 24.0999039,26.6062704 23.793744,26.7857551 L17.2485132,30.6228642 C16.9429213,30.8020159 16.5653551,30.806128 16.2559339,30.6336744 L9.34516472,26.7820085 C9.02836722,26.6054438 8.832,26.2711933 8.832,25.9085147 L8.832,18.2514853 C8.832,17.8888067 9.02836722,17.5545562 9.34516472,17.3779915 L16.2559339,13.5263256 C16.5653551,13.353872 16.9429213,13.3579841 17.2485132,13.5371358 Z" id="多边形" fill="#ABBAC4"></path>
                        <path d="M17.802,13.8627285 L20.011,15.1577285 L14.352,18.3125837 L14.352,25.8474163 L20.013,29.0017285 L17.802,30.2977285 L13.2770677,27.7760906 C12.6275423,27.4140824 12.2072965,26.7518664 12.1505753,26.0179503 L12.144,25.8474163 L12.144,18.3125837 C12.144,17.5117894 12.5775788,16.7737643 13.2770677,16.3839094 L13.2770677,16.3839094 L17.802,13.8627285 Z" id="形状结合" fill="#7F000C" fill-rule="nonzero"></path>
                    </g>
                </g>
            </g>
        </g>
    </g>
</svg>