<?xml version="1.0" encoding="UTF-8"?>
<svg width="286px" height="248px" viewBox="0 0 286 248" version="1.1" xmlns="http://www.w3.org/2000/svg" xmlns:xlink="http://www.w3.org/1999/xlink">
    <!-- Generator: Sketch 54 (76480) - https://sketchapp.com -->
    <title>编组 71</title>
    <desc>Created with Sketch.</desc>
    <g id="页面1" stroke="none" stroke-width="1" fill="none" fill-rule="evenodd">
        <g id="画板" transform="translate(-1490.000000, -375.000000)">
            <g id="编组-71" transform="translate(1490.000000, 371.000000)">
                <g id="编组-68复制" transform="translate(211.000000, 114.000000)">
                    <path d="M7.58876808,5.1706883 C10.8109535,2.56438215 14.115759,6.85217615 24.1127958,6.01143222 C34.357693,5.1706883 38.7365604,0.0421503812 42.2892263,2.64845654 C44.9330708,4.66624195 44.8504506,9.20625913 44.7678305,14.4188714 C44.6025902,20.976674 42.8675673,22.9944594 42.2892263,29.552262 C41.8761256,34.0922792 42.3718465,37.2030317 43.1154277,42.1634209 C48.072636,75.6250289 47.4116749,73.4390947 48.072636,75.7931777 C50.7991006,86.2184024 54.7648673,95.6347343 53.0298444,103.537727 C52.6993638,105.051066 51.8731624,108.918488 48.8988374,110.263679 C48.7335972,110.347753 46.5854735,111.272571 44.7678305,110.263679 C42.7849472,109.086637 42.4544666,106.228108 42.2892263,105.219215 C41.1325444,96.4754782 37.9929791,87.9839646 37.332018,79.1561534 C35.5969951,55.279026 24.9389972,40.902305 24.1127958,25.3485424 C24.0301757,24.3396497 23.8649354,20.3040789 23.2865944,20.3040789 C22.6256333,20.2200045 21.7994319,25.3485424 21.6341917,26.1892863 C19.8165486,37.3711805 22.3777729,47.7123307 22.460393,48.0486283 C27.5002215,68.2264824 31.3007479,109.33886 25.7651986,111.104422 C24.6911368,111.44072 23.1213542,110.347753 21.6341917,109.422935 C21.6341917,109.422935 18.5772465,107.405149 16.6769833,103.537727 C12.6285965,95.2143623 14.3636195,69.9079703 11.719775,50.5708601 C11.0588139,45.6945453 10.8109535,46.3671405 8.41496947,32.0744938 C5.02754378,11.8125653 4.94492364,7.27254811 7.58876808,5.1706883" id="路径" fill="#FFFFFF" fill-rule="nonzero"></path>
                    <path d="M29.5909091,5.75 L30.6244019,7.78419811 C32.6052632,11.6084906 36.5669856,14.0495283 41.0454545,14.375" id="路径" stroke="#252B3A" stroke-width="2" stroke-linecap="round"></path>
                    <path d="M20.0454545,5.75 L22.9090909,19.1666667" id="路径" stroke="#252B3A" stroke-linecap="round"></path>
                    <polygon id="路径" fill="#B9C1C9" fill-rule="nonzero" points="47.6663443 130.333333 54.4090909 128.854762 53.0280464 121.708333 46.7727273 122.365476"></polygon>
                    <polygon id="路径" fill="#B9C1C9" fill-rule="nonzero" points="19.0909091 129.375 25.7727273 129.375 25.7727273 122.419674 19.7197861 121.708333"></polygon>
                    <path d="M7.35923754,-3.55271368e-14 L7.35923754,53.4766921 L14.4721408,114.330859 C15.0648827,118.606441 18.7060117,121.708333 23.0245601,121.708333 L27.6818182,121.708333 L26.0729472,55.0695559 L26.0729472,40.4461276" id="路径" stroke="#252B3A" stroke-width="2" stroke-linecap="round"></path>
                    <path d="M45.404804,6.16846971 L46.1457567,16.6302124 L43.7582424,26.2550157 L46.8867094,55.8366772 L55.2841734,115.180206 C55.86047,118.611657 53.2259715,121.708333 49.8505203,121.708333 L44.4991952,121.708333 L29.4331568,56.7573105 L23.5055351,23.3257278 C20.5417243,22.8235641 18.15421,20.4801338 17.5779135,17.4671518 L15.2727273,5.75" id="路径" stroke="#252B3A" stroke-width="2" stroke-linecap="round"></path>
                    <path d="M26.9893417,127.174138 L28.6363636,136.453448 C28.6363636,137.312644 27.9775549,138 27.1540439,138 L1.46050202,138 C-0.0218177093,138 -0.515924284,136.023851 0.636991057,135.250575 L18.1777745,125.541667 L26.9893417,127.174138 Z" id="路径" fill="#252B3A" fill-rule="nonzero"></path>
                    <path d="M46.71484,127.096296 L43.9948544,135.955556 C43.6651592,136.977778 44.3245496,138 45.3136353,138 L61.5511251,138 C62.7050584,138 63.3644488,136.722222 62.7874822,135.785185 L54.9572206,126.5 L46.71484,127.096296 Z" id="路径" fill="#252B3A" fill-rule="nonzero"></path>
                    <path d="M34.3636364,57.2353587 L34.3636364,57.2353587 C37.2272727,57.7209431 40.177686,57.5128355 42.8677686,56.8191435 L43.9090909,56.5416667" id="路径" stroke="#E8EDEF" stroke-width="2"></path>
                    <path d="M11.4545455,54.625 C11.4545455,54.625 13.8991131,61.1842593 18.1363636,62.2916667" id="路径" stroke="#E8EDEF" stroke-width="2"></path>
                    <path d="M21.0968044,76.6666667 C21.7099111,81.2294776 18.8742927,85.6263682 19.1042077,90.2721393 C19.1042077,90.6039801 19.180846,90.9358209 19.2574843,91.1847015 C19.870591,92.5120647 21.9398261,92.0143035 22.7062094,93.1757463 C23.1660394,93.9223881 22.7828478,95.0008706 22.1697411,95.7475124 C21.5566344,96.4941542 20.790251,96.825995 20.1771444,97.5726368 C19.640676,98.2363184 19.3341227,99.3977612 19.870591,100.144403 C20.4070594,100.808085 21.4033577,100.808085 21.8631877,101.471766 C22.4762944,102.384328 21.7865494,103.628731 21.1734427,104.458333" id="路径" stroke="#E8EDEF" stroke-width="2"></path>
                    <path d="M40.0909091,77.625 C40.9793706,82.375 41.9486014,87.2916667 44.6947552,91.2083333 C45.7447552,92.7916667 47.1986014,94.2916667 47.6832168,96.125 C48.0870629,97.625 47.8447552,99.2083333 47.0370629,100.541667 C46.5524476,101.291667 45.9870629,101.958333 45.5832168,102.708333 C45.1793706,103.458333 45.0178322,104.458333 45.4216783,105.208333 C46.3909091,106.791667 48.8947552,105.708333 50.5909091,106.375" id="路径" stroke="#E8EDEF" stroke-width="2"></path>
                    <path d="M48.6818182,129.902083 C49.98,129.902083 51.2018182,129.902083 52.5,129.80625" id="路径" stroke="#C8CCCE" stroke-linecap="round"></path>
                    <path d="M49.6363636,132.96875 C50.8794926,132.777083 52.2114165,132.68125 53.4545455,132.489583" id="路径" stroke="#C8CCCE" stroke-linecap="round"></path>
                    <path d="M15.2727273,128.416667 C15.96,129.400219 16.5709091,130.383772 17.1818182,131.291667" id="路径" stroke="#C8CCCE" stroke-linecap="round"></path>
                    <path d="M12.4090909,130.333333 C12.7272727,131.265766 13.0454545,132.275901 13.3636364,133.208333" id="路径" stroke="#C8CCCE" stroke-linecap="round"></path>
                    <path d="M30.5454545,21.0833333 C32.0936807,23.4563492 34.7012195,24.9166667 37.2272727,24.9166667" id="路径" stroke="#E8EDEF" stroke-width="2"></path>
                    <path d="M10.5,23.9583333 C11.5413223,24.9823059 13.0165289,25.4549087 14.5785124,25.69121 C16.053719,25.8487443 17.6157025,25.7699772 19.0909091,25.69121 C17.4421488,27.4240868 15.5330579,29.3144977 13.1033058,29.7083333" id="路径" stroke="#E8EDEF" stroke-width="2"></path>
                </g>
                <g id="编组-66复制">
                    <g id="编组-50复制" transform="translate(175.043478, 16.291667)">
                        <g id="编组-47">
                            <path d="M14.6728503,16.9541192 L12.4476787,4.27536919 C11.9341775,1.42911919 9.19550477,-0.468380815 6.37124848,0.221619185 L0.722735894,1.60161919 L1.57857113,6.34536919 L5.17307914,26.3553692 C5.68658029,29.3741192 8.51083658,31.4441192 11.5062599,31.0991192 L16.9836055,30.4091192 L14.6728503,16.9541192 Z" id="路径复制-4" fill="#B9C1C9" fill-rule="nonzero"></path>
                            <path d="M6.11449791,8.50161919 C5.17307914,7.72536919 3.37582514,6.77661919 1.57857113,6.34536919 L5.17307914,26.3553692 C5.68658029,29.3741192 8.51083658,31.4441192 11.5062599,31.0991192 L16.9836055,30.4091192 L14.6728503,16.9541192 C10.6504247,15.6603692 10.3936741,11.9516192 6.11449791,8.50161919" id="路径复制-6" fill="#848E96" fill-rule="nonzero"></path>
                            <path d="M5.25866267,26.3553692 C5.77216381,29.3741192 8.5964201,31.4441192 11.5918434,31.0991192 L17.069189,30.4091192 L12.5332622,4.27536919 C12.0197611,1.42911919 9.2810883,-0.468380815 6.456832,0.221619185 L0.808319418,1.60161919" id="路径复制-8" stroke="#FFFFFF" stroke-width="2"></path>
                            <path d="M46.7666718,54.6453692 C40.8614087,58.8716192 32.2174727,58.9578692 32.2174727,58.9578692 C27.852713,59.0441192 25.7131249,59.0441192 23.6591203,58.0953692 C19.9790288,56.3703692 19.8078618,53.8691192 14.2449327,46.0203692 C10.1369235,40.3278692 9.2810883,40.3278692 6.54241553,35.6703692 C4.48841095,32.2203692 1.74973818,30.1503692 0.979486466,26.6141192 C-1.16010163,16.6953692 3.37582514,11.6066192 3.97490981,11.5203692 C5.77216381,11.2616192 4.74516152,15.1428692 4.40282743,18.8516192 C4.23166038,21.2666192 4.74516152,23.9403692 5.25866267,24.0266192 C5.68658029,24.1128692 4.83074505,22.5603692 5.25866267,21.4391192 C6.02891438,19.5416192 7.99733544,17.4716192 8.25408601,17.5578692 C10.05134,17.9891192 8.68200363,19.9728692 7.82616839,22.3016192 C7.1415002,24.1991192 6.7991661,26.4416192 7.39825077,27.0453692 C7.82616839,27.4766192 7.82616839,26.0966192 8.68200363,24.8891192 C9.70900592,23.4228692 11.677427,22.1291192 12.1053446,22.3016192 C13.0467634,22.8191192 11.0783423,24.8028692 10.3936741,26.6141192 C9.88017297,28.0803692 10.6504247,29.5466192 10.8215917,29.6328692 C11.2495093,29.8916192 13.9881821,25.6653692 14.2449327,26.1828692 C15.5286856,28.3391192 12.9611798,30.0641192 13.8170151,33.5141192 C15.5286856,40.5866192 24.5149556,45.1578692 26.2266261,48.6078692 C26.3122096,48.7803692 26.5689602,49.3841192 27.0824613,49.4703692 C27.852713,49.6428692 39.4920723,44.7266192 43.3433309,43.4328692 C46.9378389,42.2253692 49.4197611,51.0228692 47.6225071,53.7828692 C47.3657565,54.2141192 47.0234224,54.4728692 46.7666718,54.6453692" id="路径复制-12" fill="#FFFFFF" fill-rule="nonzero"></path>
                            <path d="M45.7396695,55.4216192 L28.1950471,59.9928692 C25.3707908,60.7691192 22.2897839,59.6478692 20.4925299,57.3191192 L7.56941782,40.3278692 L1.49298761,28.0803692" id="路径复制-28" stroke="#252B3A" stroke-width="2" stroke-linecap="round"></path>
                            <polyline id="路径复制-29" stroke="#252B3A" stroke-width="2" stroke-linecap="round" points="0.979486466 24.0266192 0.979486466 18.8516192 2.69115695 12.8141192"></polyline>
                            <path d="M4.40282743,24.8891192 L4.40282743,24.8891192 C5.0019121,22.6466192 5.94333086,20.4903692 7.39825077,18.5928692 L7.82616839,17.9891192" id="路径复制-30" stroke="#252B3A" stroke-width="2" stroke-linecap="round"></path>
                            <path d="M6.97033315,28.3391192 L10.3936741,22.3016192" id="路径复制-31" stroke="#252B3A" stroke-width="2" stroke-linecap="round"></path>
                            <polyline id="路径复制-32" stroke="#252B3A" stroke-width="2" stroke-linecap="round" points="36.3478261 47.091904 27.0824613 50.1603692 14.4160997 36.8778692 13.3035139 33.9453692"></polyline>
                            <path d="M10.7360082,30.4953692 L12.9611798,26.6141192" id="路径复制-53" stroke="#252B3A" stroke-width="2" stroke-linecap="round"></path>
                        </g>
                    </g>
                    <g id="编组-65" transform="translate(90.869565, 0.000000)">
                        <g id="编组-55" transform="translate(0.000000, 4.791667)">
                            <g id="编组-43复制">
                                <path d="M41.7987042,18.6875 C41.7987042,22.6166667 45.0508781,25.875 48.9726172,25.875 C52.8943563,25.875 56.1465302,22.6166667 56.1465302,18.6875 C56.1465302,14.7583333 52.8943563,11.5 48.9726172,11.5 C44.9552259,11.5 41.7987042,14.7583333 41.7987042,18.6875 M48.5900085,17.3458333 C48.5900085,15.6208333 49.9291389,14.2791667 51.6508781,14.2791667 C53.3726172,14.2791667 54.7117476,15.6208333 54.7117476,17.3458333 C54.7117476,19.0708333 53.3726172,20.4125 51.6508781,20.4125 C50.0247911,20.4125 48.5900085,18.975 48.5900085,17.3458333" id="形状" fill="#FCCB00" fill-rule="nonzero"></path>
                                <path d="M38.9291389,18.6875 C38.9291389,13.1291667 43.4247911,8.625 48.9726172,8.625 C54.5204433,8.625 59.0160955,13.1291667 59.0160955,18.6875 C59.0160955,24.2458333 54.5204433,28.75 48.9726172,28.75 C45.3378346,28.75 42.1813129,26.8333333 40.4595737,23.9583333" id="路径" stroke="#252B3A" stroke-width="2"></path>
                                <path d="M110.950325,60.6145833 C107.562703,47.1834979 101.518714,42.7100379 92.8183586,47.1942032 C79.7678257,53.9204513 76.3140505,50.508827 77.8370174,40.4679552 C79.3599843,30.4270833 73.5085171,28.7887504 60.282616,33.4604323 C57.1334495,34.5727879 49.9840339,36.4970256 47.6434471,37.4313619 C36.8767476,41.6358756 31.1423098,43.9717166 22.8332265,43.9717166 C14.6411726,43.9717166 10.4281163,40.2343711 8.78970547,36.9641938 C8.20455876,35.7962733 7.97050007,32.7596801 8.78970547,31.1245914 C9.72594021,29.3727107 10.5451456,28.9055425 11.1302923,28.7887504 C12.4176151,28.4383743 13.8219672,29.0223345 14.6411726,29.9566709 C15.811466,31.3581755 15.6944367,33.5772244 14.6411726,34.6283528 C12.3005857,36.9641938 8.20455876,34.5115608 6.44911863,33.4604323 C1.76794494,30.5406312 -0.33858322,23.6499004 1.76794494,18.2774662 C3.0552677,15.0072889 6.0980306,13.1386161 7.61941205,12.4378638 C20.3756103,6.24788532 33.3658673,21.7812276 53.2608555,19.4453867 C55.835501,19.0950105 63.2083496,18.0438821 66.1340831,13.6057843 C66.1340831,13.6057843 68.2406113,10.9195672 66.1340831,6.59826146 C63.7934963,1.92657957 55.6014423,0.758659099 55.6014423,0.758659099 C55.6014423,0.758659099 49.7499752,-0.409261374 45.0688015,0.758659099 L44.3666255,1.45941138" id="路径" stroke="#252B3A" stroke-width="2"></path>
                                <path d="M40.126087,4.79166667 C42.6130435,4.79166667 42.6130435,0.958333333 40.126087,0.958333333 C37.6391304,0.958333333 37.6391304,4.79166667 40.126087,4.79166667" id="路径" fill="#252B3A" fill-rule="nonzero"></path>
                            </g>
                        </g>
                        <g id="编组-60" transform="translate(175.043478, 73.791667)" stroke="#252B3A">
                            <path d="M10.5217391,21.0833333 L10.5217391,21.0833333 C11.7626322,22.4540654 13.8566392,23.2017374 15.9506463,22.9525134 L16.2608696,22.8902074" id="路径" stroke-width="1.5" stroke-linecap="round"></path>
                            <polyline id="路径" stroke-width="2" points="1.25233157e-13 14.3534749 5.73913043 21.5625 8.60869565 47.9166667"></polyline>
                            <path d="M7.14455658,54.5796351 C7.14455658,56.6437377 7.06108552,58.9460059 5.47513533,60.375 C4.80736684,59.8192801 6.05943277,58.9460059 6.64373021,58.3108974 C5.72554852,57.9139546 4.72389577,57.5170118 4.2230694,56.6437377 C3.72224302,55.8498521 3.80571409,54.9765779 3.88918515,54.0239152 C3.97265621,52.9918639 4.13959834,52.0392012 4.30654046,51.0865385 C4.39001152,50.7689842 4.47348259,50.45143 4.64042471,50.2132643 C4.80736684,49.9750986 5.05778002,49.8163215 5.22472215,49.7369329 L9.56521739,46.9583333" id="路径" stroke-width="1.424" stroke-linecap="round"></path>
                            <path d="M15.6774771,45.0416667 C15.9141809,46.5714006 17.1766011,49.3249218 17.8078112,51.0076291 C18.4390213,52.6903365 18.2023175,54.5260172 17.4922061,56.1322379 C17.1766011,56.8206182 16.7031935,57.5089984 16.0719834,57.8149452 C15.5985758,58.0444053 15.1251682,58.0444053 14.7306619,58.3503521 C13.862748,58.885759 13.6260442,60.2625196 12.6003278,60.2625196 C12.2058215,60.2625196 11.8113152,60.0330595 11.4168089,60.0330595 C10.8645,60.0330595 10.3910924,60.3390063 9.99658612,60.6449531 C9.6020798,60.9508998 9.12867222,61.3333333 8.57636338,61.3333333 C8.02405453,61.3333333 7.47174569,60.8744131 7.70844948,60.3390063" id="路径" stroke-width="2"></path>
                            <path d="M10.8086957,56.5416667 C10.9043478,56.2421875 11.0956522,55.8828125 11.1913043,55.5833333" id="路径" stroke-width="1.424" stroke-linecap="round"></path>
                            <path d="M13.7550755,55.5833333 C14.042032,54.9444444 14.042032,54.3055556 13.8507276,53.6666667" id="路径" stroke-width="1.424" stroke-linecap="round"></path>
                            <polyline id="路径" stroke-width="2" points="2.86956522 0 16.2608696 17.7780612 16.1843478 43.125"></polyline>
                        </g>
                        <g id="编组-63" transform="translate(158.293425, 37.167507) rotate(9.000000) translate(-158.293425, -37.167507) translate(131.293425, 4.667507)">
                            <path d="M26.2160014,44.5815427 C27.5551319,44.2940427 28.7368889,43.7958333 29.9803671,43.125 C30.3629758,43.6041667 30.0760193,44.3708333 29.6934106,44.85 C29.3653374,45.3430418 27.0781934,50.722183 24.7382083,53.9594679 C22.9847528,56.3853103 20.9875701,56.5197535 20.9359137,58.4609111 C20.815322,62.9925423 28.3733969,65.6219972 20.3450409,64.6978953 C19.1183974,64.5567028 19.1451841,55.157501 18.8173775,55.0343407 C18.2434645,54.8426741 22.228529,52.6799795 22.1328768,52.0091462 C23.4650245,49.8883123 21.9415725,48.0799795 23.0893985,46.9299795 C24.0459203,45.6841462 24.9077176,45.6692372 26.3425002,45.3817372 L26.2160014,44.5815427 Z" id="路径" fill="#DFE5ED" fill-rule="nonzero"></path>
                            <g id="编组-70" transform="translate(26.747433, 27.564428) rotate(14.000000) translate(-26.747433, -27.564428) translate(5.247433, 4.564428)">
                                <path d="M16.5007289,16.6089259 C15.5829729,16.4048914 11.9605772,16.1232779 9.74687464,15.4365063 C7.44656916,14.7228672 6.56202424,13.5849093 6.10592608,12.3552131 C4.88543754,9.11001462 6.22201267,6.68516053 8.84884991,6.26832241 C10.4429084,6.01537018 12.6877295,7.76250505 14.4052482,6.53049787 C16.1227669,5.2984907 15.3698394,5.43063719 17.1757416,4.13541118 C18.9816438,2.84018516 20.9051534,2.1347984 23.7412145,3.09357298 C29.6091893,5.07733318 26.9697946,9.04444243 30.9021109,10.0134536 C34.424281,10.1867687 31.7941238,8.66052532 33.5841737,7.99484358 C34.3978327,7.57879249 37.0863024,7.0397509 38.1440591,8.4543246 C40.747768,12.032364 40.2595726,18.5227609 39.5272795,23.1825331 C39.3645477,24.0978455 37.8015427,32.5094795 35.9301269,32.4262693 C36.2911198,32.3689853 36.4799727,31.1792947 37.1308999,30.4304027 C37.6190953,29.9311414 35.2962525,28.3415666 36.2726434,27.9255155 C37.5744978,27.343044 37.1676683,24.0978455 37.1676683,23.2657433 C37.1676683,23.0993229 36.7608388,21.2686981 35.1335207,20.6862266 C34.075764,20.2701755 32.4484459,21.8511696 31.553421,23.0161127 C31.1465915,23.515374 30.4142983,23.3489536 30.1702006,22.766482 C28.9497121,19.7709142 25.1350758,16.0011703 22.0485507,15.7285731 C20.6653304,16.3942548 17.9653152,16.9417668 16.5007289,16.6089259 Z" id="路径复制-19" fill="#252B3A" fill-rule="nonzero"></path>
                                <path d="M35.5416228,33.2515283 C36.7730877,31.6130153 38.7434314,27.9263612 39.4823104,23.3385249 C40.4674823,17.6037296 40.6316776,11.6231574 37.4298689,9.08346233 C36.3625994,8.18228021 33.9817673,7.11724679 32.6682048,7.93650326 C32.0114235,8.3461315 31.1083493,8.01842891 30.8620563,7.36302373 C30.1231774,5.5606595 27.2256271,-1.43569598 19.3409011,0.263909541 C18.3476088,0.478020355 15.5259381,0.869284696 13.8793697,3.25888845 C13.3046861,4.48777316 11.9911236,5.06125269 10.7596587,4.7335501 C10.0207798,4.56969881 6.69353317,2.27084968 1.85889231,5.16635083 C-2.97574855,8.06185199 2.54700751,17.8568286 7.86059805,18.8310229" id="路径复制-20" stroke="#252B3A" stroke-width="2"></path>
                                <path d="M34.9339743,35.4590792 C33.4372594,37.9090015 32.7348867,39.6660556 32.8268561,40.7302415 C32.9188256,41.7944274 34.3853104,43.1137319 37.2263106,44.6881549" id="路径复制" stroke="#ff9d00" stroke-width="1.4" transform="translate(35.022590, 40.073617) rotate(-15.000000) translate(-35.022590, -40.073617) "></path>
                                <path d="M40.7369713,26.3907643 C37.5807737,24.8591197 34.520648,22.4650391 30.6940304,22.5626718 C30.5981849,22.9460019 30.5023847,23.2335108 30.4065393,23.6168409 C30.9802534,24.1914963 27.5338926,29.3674715 30.4038219,29.3661128 C31.360465,29.3656599 31.3626389,24.7662424 34.2324776,24.9565261 C35.2847397,25.0518491 36.049556,26.1055199 35.8577292,27.1596437 L35.4738944,29.651176 C35.3459797,30.417806 34.0697611,31.8876682 31.6452387,34.0607627 C30.8798789,34.1569462 30.2099117,34.8280116 30.0182208,35.5946718 L29.7308202,36.4571984 C30.7830824,36.5525215 31.8353445,36.6478445 32.7920781,36.4557492 C36.0448458,36.0709245 38.7247146,33.3866629 39.204576,30.1285157 C39.4921124,28.9785254 39.7795582,28.0201776 40.2582874,27.1575604 L40.7369713,26.3907643 Z" id="路径" fill="#252B3A" fill-rule="nonzero" transform="translate(34.992074, 29.563384) rotate(-15.000000) translate(-34.992074, -29.563384) "></path>
                                <path d="M12.3034891,25.9442152 C11.1276628,28.4648973 9.92641692,31.4059866 10.3035882,34.1112507 C10.810986,37.7505661 13.9529076,42.7381153 15.2920794,42.8784717 C18.9990802,43.2669965 20.7586257,42.44899 22.6686702,41.5804253 C24.1175419,40.9215722 25.6256198,40.066685 27.192904,39.0157637" id="路径" stroke="#252B3A" stroke-width="1.4" transform="translate(18.712939, 34.461005) rotate(-15.000000) translate(-18.712939, -34.461005) "></path>
                                <path d="M16.6869338,38.193021 C16.6869338,38.193021 19.1913051,38.2692591 20.5133903,36.2761438" id="路径复制-27" stroke="#252B3A" transform="translate(18.600162, 37.234775) rotate(-5.000000) translate(-18.600162, -37.234775) "></path>
                                <path d="M17.1686556,26.75091 C16.4211765,27.8388815 13.4153518,31.7977104 13.1278606,32.8518794 C12.9361999,33.5546588 14.0093465,34.1185946 16.3473003,34.5436868" id="路径" stroke="#252B3A" stroke-width="1.4" transform="translate(15.137367, 30.647298) rotate(-15.000000) translate(-15.137367, -30.647298) "></path>
                                <path d="M24.9489564,29.6349584 L17.0099057,27.3390087 L15.9580965,26.2854737 C15.3843824,25.7108183 14.6191132,25.6153594 13.9493272,25.90314 L12.6097551,26.4787013 L8.01845701,25.2351996 C7.06194979,24.9481889 6.39275252,23.9902939 6.68024364,22.9361249 L7.54280757,19.5819754 C8.30957132,16.5153347 11.8500113,14.6930562 15.4848021,15.6495472 L24.6674436,18.0407293 C27.7283391,18.8058496 29.6403119,21.5837586 28.9693936,24.2670691 L28.0110295,27.9087276 C27.6277382,29.2504055 26.2880756,30.0176091 24.9489564,29.6349584 Z" id="路径" stroke="#252B3A" stroke-width="1.4" transform="translate(17.858201, 22.563737) rotate(-15.000000) translate(-17.858201, -22.563737) "></path>
                            </g>
                            <path d="M42.7939805,31.3972049 L41.7407673,33.314127 C38.5845698,31.7824824 35.5244441,29.3884017 31.6978265,29.4860345 C32.1769179,27.8568477 32.2732616,26.4194845 32.1782313,25.078033 C35.8127957,26.5136299 39.9255911,28.1406428 42.7939805,31.3972049" id="路径" fill="#FFFFFF" fill-rule="nonzero" transform="translate(37.245903, 29.196080) rotate(-15.000000) translate(-37.245903, -29.196080) "></path>
                            <path d="M24.4715739,46.5490507 C24.379152,46.9903936 23.9860043,48.390354 23.8566929,48.8810271 C23.2755001,51.0863687 21.4628008,52.6444629 18.418595,53.5553099" id="路径" stroke="#ff9d00" stroke-width="1.4" transform="translate(21.445084, 50.052180) rotate(-15.000000) translate(-21.445084, -50.052180) "></path>
                        </g>
                        <g id="编组-61" transform="translate(150.817830, 88.892553) rotate(14.000000) translate(-150.817830, -88.892553) translate(114.317830, 53.892553)">
                            <path d="M26.6703007,45.6992598 C32.2853255,44.9043289 36.5695298,46.6291108 38.975969,41.8595255 C40.5802618,37.8848711 28.2057323,37.0157075 34.6229035,33.835984 C46.4946701,26.3636337 48.4558111,15.4187647 51.6643967,3.89226701 C49.1777429,2.62037761 46.6108744,1.58696747 43.9637913,0.712543512 L43.4825035,0.553557336 C41.3969229,5.16415641 33.8647115,15.8738352 29.0518331,15.0789043 C27.8067509,14.8673816 26.3920604,13.6628548 26.269838,11.2655195 C26.1164635,8.25714878 25.8794848,5.05242383 25.8794848,5.05242383 L25.510868,4.89758653 C22.4627117,4.89758653 21.9266352,5.6590059 17.749763,6.98160145 C14.9651815,7.86333182 9.12517246,10.5754624 0.229735829,15.1179931 L3.04910922,25.6470296 C3.12932386,28.3497946 4.54483467,28.6602294 4.66411627,29.1395479 L15.4153444,23.6641577 C15.4153444,23.6641577 15.8966323,28.433743 16.2174908,38.2113928 C16.3779201,43.0604711 19.7786432,57.6382424 18.9764968,62.8847862 C25.0728094,62.3283346 40.3704998,59.4487697 44.8625196,56.9049909 C51.3599054,54.4407052 28.9473804,51.8906445 27.3430876,45.5311975 L26.6703007,45.6992598 Z" id="路径" fill="#DD0D18" fill-rule="nonzero"></path>
                            <path d="M56.6075548,3.1578878 C49.7739871,-0.681543794 46.2640466,1.86484155 44.0452463,0.749496904 C40.7962887,12.3012808 40.9565059,26.8335071 29.2285615,34.3222497 C22.8891321,37.5089487 40.1590897,36.8679425 38.5742324,40.8513163 C36.1969463,45.6313648 26.8512754,44.6790215 21.3042747,45.4756962 C22.8891321,51.8490942 41.7665087,56.6422403 35.4270792,59.0322645 C30.9894786,61.5019562 24.9670207,61.1832863 18.9445627,61.8206261 C18.3106198,65.9633348 20.2298959,68.7502657 22.6864248,69.307938 C31.1753631,71.3160379 39.8086188,67.4683938 51.9249569,64.4417299 C57.0845644,63.1528589 60.8416876,66.7892121 61.0835026,65.1485324 C61.0013995,62.2389547 60.8741429,60.2676754 60.7017328,59.2346943 C60.3808551,57.3121826 59.76818,54.8502229 58.8637074,51.8488152 L56.6778892,28.0627173 L57.7080465,29.4967318 C58.4212323,30.532409 59.8476039,30.7714114 60.9570041,30.0544042 L66.2662762,26.4693678 L70.3076625,23.7606737 C72.2094913,22.4063266 72.6849485,19.6976324 71.3378197,17.785613 C65.1568761,9.10185827 57.2141492,4.0446748 56.6075548,3.1578878 Z" id="路径" fill="#ff9d00" fill-rule="nonzero"></path>
                            <path d="M18.173913,12.4583333 C18.173913,12.4583333 16.2608696,13.8383333 16.2608696,23.9583333" id="路径" stroke="#FFFFFF" stroke-width="1.5" stroke-linecap="round"></path>
                            <path d="M55.378767,13.4166667 C56.2748768,17.1123932 55.215838,20.6508547 54.5641218,22.3021368 C54.4011927,22.7739316 54.7270508,23.2457265 55.215838,23.2457265 C56.4378058,23.2457265 58.3929544,23.4029915 59.0446706,24.0320513 C59.9407804,24.8970085 58.2300254,28.75 58.2300254,28.75" id="路径" stroke="#FFFFFF" stroke-width="1.3" stroke-linecap="round"></path>
                            <path d="M10.9806242,12.6631253 L11.550954,17.7034306 C11.6222452,18.2818263 11.0519154,18.6123381 10.6954593,18.2818263 L6.77444174,14.3983124" id="路径" stroke="#FFFFFF" stroke-width="1.5" stroke-linecap="round"></path>
                            <path d="M43.5986977,48.875 C40.2041377,51.2795408 36.3569696,53.1580883 32.3589322,54.3603588 C31.0765428,54.7360683 31.4537162,56.6146158 32.7361055,56.5394739 C36.8850123,56.3140482 40.9584843,55.712913 44.9565217,54.7360683" id="路径" stroke="#FFFFFF" stroke-width="1.4" stroke-linecap="round"></path>
                        </g>
                    </g>
                    <g id="编组-64" transform="translate(0.000000, 91.625000)">
                        <path d="M219.644567,105.207688 L219.962584,108.232332 C217.503511,109.688823 215.040687,111.165737 212.550362,112.628734 C189.877147,125.93363 164.557253,130.309066 138.619801,127.898112 C113.035239,125.487157 86.6566743,118.432883 64.4245726,105.038692 C53.2202991,98.3415968 42.9864745,90.126493 31.8704236,83.1615137 C26.7535113,80.0362024 21.7248216,77.2680696 15.7256831,76.4644181 C12.2850007,76.0179451 9.72654451,76.732302 6.72697523,78.4288995 C2.84517969,80.6612647 0.904281916,85.572468 5.66830372,88.4298955 C12.2850007,92.3588582 21.4601538,86.5547087 25.9595077,81.8220946 C30.7235295,76.9108912 33.9877666,70.5709741 36.5462228,64.3203516 C41.4334806,52.1304119 43.9897601,38.7171306 53.9509715,29.5262552 L55.1842367,31.9927311 C45.4123568,41.5451674 43.2603924,55.5944268 37.9577848,67.7135467 C33.4584309,77.9824265 26.3123982,88.7870739 14.8434568,91.5552067 C10.5205481,92.626742 5.13896796,92.4481528 1.96295343,88.6977793 C-0.595502725,85.6617626 -0.771947977,81.0184431 2.13939868,78.2503103 C10.1676576,70.4816795 21.3719311,73.7855799 29.8413032,78.6967833 C42.5453614,86.1082357 53.8378575,95.4841694 66.453693,102.984916 C79.6870869,110.842842 94.1555975,116.021929 108.976999,119.861597 C137.649352,127.183755 169.056607,129.148236 196.934957,117.539937 C204.9089,114.214045 212.251854,109.654886 219.644567,105.207688 Z M238.522545,95.1439582 C239.988411,94.5281552 241.475192,93.9541487 242.987167,93.4303934 C251.984701,90.2900965 259.000679,90.2900965 266.869565,84.1873372 C271.194884,80.8328115 268.489403,69.8773072 255.933785,63.8180745 C241.367295,56.7884123 206.373068,49.8841159 202.926794,47.6528532 C199.48052,45.4215904 196.255445,44.319765 197.1509,39.421402 C198.046355,34.523039 212.803287,34.9503621 217.286197,36.2218882 C217.656125,36.3268141 217.475469,37.5918884 217.749745,38.1807861 C218.024021,38.7696838 209.936322,37.3365122 205.560282,37.5918884 C201.184241,37.8472646 198.841496,39.8555464 199.535199,41.4917857 C201.054051,45.0743052 206.646293,47.2958208 213.478558,48.875 C220.310823,50.4541792 240.909201,54.7767949 255.391304,61.1873372 C263.970257,64.9848341 268.298837,70.4911447 269.73913,73.0841471 C272.608696,78.2503103 270.900255,85.0174871 265.913043,88.0295769 C260.925832,91.0416667 255.039227,92.8480165 251.368317,93.7875719 C246.936394,94.9228605 242.733525,96.4531314 238.667636,98.245251 L238.522545,95.1439582 Z" id="形状结合" fill="#ff9d00" fill-rule="nonzero"></path>
                        <g id="编组-48" transform="translate(47.497283, 0.000000)">
                            <path d="M147.431386,84.1873372 L147.431386,75.8520659 C147.431386,72.0633062 144.561821,69.0322985 140.974864,69.0322985 L114.550951,68.6534225 L45.0835598,67.8956706" id="路径" stroke="#252B3A" stroke-width="2" stroke-linecap="round"></path>
                            <path d="M122.572981,99.0504102 L135.389276,98.794399 C142.903052,99.0504102 147.670076,80.9329685 132.257767,80.9329685 L129.512826,79.4883236 C127.603302,77.2009692 129.274136,73.7097441 132.257767,73.7097441 C133.45122,73.7097441 134.764018,74.3116795 135.360744,75.2747761 C136.912233,77.6825175 135.241399,80.9329685 132.377113,80.9329685 L40.3619167,80.9329685 C34.3946536,80.9329685 28.9047716,77.5621304 26.2791759,72.1447122 L0.500599569,16.6462718 C-0.454162517,14.7200787 0.977980612,12.3123372 3.12619531,12.3123372 L68.7660887,12.3123372 L76.4041854,12.3123372 C77.597638,12.3123372 78.6717454,13.0346597 79.1491264,14.1181433 L103.972941,68.2923259" id="路径" stroke="#252B3A" stroke-width="2"></path>
                            <g id="编组-52" transform="translate(92.782609, 0.000000)">
                                <path d="M1.05533975,44.1029294 L0.0153910784,41.3618066 C11.4488244,42.7077329 25.1475338,47.3166258 26.9670088,32.030093 C27.1072961,30.2121912 29.9130406,30.2121912 29.6324661,32.030093 C28.93103,38.1829911 25.4238494,43.9163735 19.2512115,45.454598 C15.3095481,46.4547219 7.81658537,44.7177768 1.05533975,44.1029294 Z" id="形状结合" fill="#ff9d00" fill-rule="nonzero"></path>
                                <path d="M9.61778469,30.625 L35.8695652,30.625 C41.3924127,30.625 45.8695652,26.1478475 45.8695652,20.625 L45.8695652,1.94618187 L20.9154409,1.64108776 C20.8979646,1.64088335 20.8979646,1.64088335 20.8804879,1.64071596 C14.8056043,1.58574977 9.8363792,6.46585703 9.78141301,12.5407406 L9.61778469,30.625 Z" id="矩形" stroke="#252B3A" stroke-width="2"></path>
                                <path d="M22.4208918,11.9187862 L22.4208918,13.6354528 L16.0460606,16.2521195 L22.4208918,18.8687862 L22.4208918,20.5854528 L13.7201087,16.9521195 L13.7201087,15.5521195 L22.4208918,11.9187862 Z M29.7433331,8.73730469 L31.4318019,8.73730469 L25.453244,24.070638 L23.7475459,24.070638 L29.7433331,8.73730469 Z M32.758456,11.9187862 L41.4592391,15.5521195 L41.4592391,16.9521195 L32.758456,20.5854528 L32.758456,18.8687862 L39.1332872,16.2521195 L32.758456,13.6354528 L32.758456,11.9187862 Z" id="&lt;/&gt;" fill="#ff9d00" fill-rule="nonzero"></path>
                            </g>
                            <path d="M14.4748641,21.8956706 L67.6944995,21.8956706 C69.2388192,21.8956706 70.783139,22.8481958 71.3771082,24.2769837 L88.127038,61.1873372 L41.2034756,61.1873372 C36.4517225,61.1873372 32.0563508,58.4488271 30.0368557,54.1624635 L14.4748641,21.8956706 Z" id="路径" fill="#DFE5ED" fill-rule="nonzero"></path>
                            <path d="M8.7357337,17.1040039 L64.1304673,17.1040039 C66.8882138,17.1040039 69.4061562,18.6959021 70.7250785,21.2674298 L71.8041966,23.3491428 C72.6435108,24.9410409 71.4444906,26.9003002 69.6459603,26.9003002 L69.0464502,26.9003002 C68.087234,26.9003002 67.3678219,26.4104854 66.8882138,25.5533095 C66.0488996,23.9614113 67.2479199,22.0021521 69.0464502,22.0021521 L71.3245886,22.0021521 C74.082335,22.0021521 76.7201795,23.5940502 77.9191997,26.2880317 L93.8661685,61.1873372" id="路径" stroke="#252B3A" stroke-width="2"></path>
                            <path d="M37.4313859,36.2706706 L69.8608757,36.2706706 C71.5612984,36.2706706 73.1402624,37.2290039 73.8690149,38.7862956 L81.2779995,53.4008789 C81.7638346,54.3592122 81.035082,55.4373372 79.9419531,55.4373372 L50.9133086,55.4373372 C48.6055921,55.4373372 46.4193344,54.1196289 45.4476643,52.0831706 L37.4313859,36.2706706 Z" id="路径" fill="#CE2C3C" fill-rule="nonzero"></path>
                            <path d="M23.0835598,31.4790039 L18.6771113,31.4790039 C17.3874191,31.4790039 16.3126756,30.6740039 15.6678294,29.3323372 L13.5183424,24.7706706 L19.3219574,24.7706706 C19.7518548,24.7706706 20.0742779,25.0390039 20.2892266,25.4415039 L23.0835598,31.4790039 Z" id="路径" fill="#FCCB00" fill-rule="nonzero"></path>
                            <path d="M35.5183424,27.1665039 L63.2574728,27.1665039" id="路径" stroke="#ff9d00" stroke-width="2"></path>
                            <path d="M39.3444293,30.9998372 L58.4748641,30.9998372" id="路径" stroke="#ff9d00" stroke-width="2"></path>
                        </g>
                        <g id="编组-54" transform="translate(138.366848, 85.291667)">
                            <path d="M6.16428539,24.7795769 C3.39037234,24.7795769 1.09472017,22.4795769 1.09472017,19.7004102 L1.09472017,1.77957687 L25.6773289,1.77957687 C28.4512419,1.77957687 30.7468941,4.07957687 30.7468941,6.85874354 L30.7468941,24.7795769 L6.16428539,24.7795769 Z" id="路径复制-42" fill="#FFFFFF" fill-rule="nonzero"></path>
                            <path d="M25.6773289,2.73791021 C27.972981,2.73791021 29.7903723,4.55874354 29.7903723,6.85874354 L29.7903723,23.8212435 L6.16428539,23.8212435 C3.86863321,23.8212435 2.05124191,22.0004102 2.05124191,19.7004102 L2.05124191,2.73791021 L25.6773289,2.73791021 M25.6773289,0.821243539 L0.138198429,0.821243539 L0.138198429,19.7004102 C0.138198429,23.0545769 2.8164593,25.7379102 6.16428539,25.7379102 L31.7034158,25.7379102 L31.7034158,6.85874354 C31.7034158,3.50457687 29.025155,0.821243539 25.6773289,0.821243539" id="形状复制-3" fill="#252B3A" fill-rule="nonzero"></path>
                            <path d="M19.172981,17.5920769 L25.0077636,17.5920769" id="路径复制-47" stroke="#707070" stroke-width="2" stroke-linecap="round"></path>
                            <path d="M19.172981,13.7587435 L25.0077636,13.7587435" id="路径复制-49" stroke="#707070" stroke-width="2" stroke-linecap="round"></path>
                            <path d="M19.172981,9.92541021 L25.0077636,9.92541021" id="路径复制-51" stroke="#707070" stroke-width="2" stroke-linecap="round"></path>
                            <path d="M19.172981,17.5920769 L25.0077636,17.5920769" id="路径复制-46" fill="#252B3A" fill-rule="nonzero"></path>
                            <path d="M11.5208071,7.72124354 C12.0947202,7.72124354 12.572981,8.20041021 12.572981,8.77541021 L12.572981,13.2795769 L8.17298104,13.2795769 C7.59906799,13.2795769 7.12080712,12.8004102 7.12080712,12.2254102 L7.12080712,7.72124354 L11.5208071,7.72124354 M11.5208071,5.80457687 L5.20776365,5.80457687 L5.20776365,12.2254102 C5.20776365,13.8545769 6.54689408,15.1962435 8.17298104,15.1962435 L14.4860245,15.1962435 L14.4860245,8.77541021 C14.4860245,7.14624354 13.1468941,5.80457687 11.5208071,5.80457687" id="形状复制-4" fill="#ff9d00" fill-rule="nonzero"></path>
                            <path d="M19.172981,13.7587435 L25.0077636,13.7587435" id="路径复制-48" fill="#252B3A" fill-rule="nonzero"></path>
                            <path d="M19.172981,9.92541021 L25.0077636,9.92541021" id="路径复制-50" fill="#252B3A" fill-rule="nonzero"></path>
                            <rect id="矩形复制-9" fill="#545F68" fill-rule="nonzero" x="29.7903723" y="23.8212435" width="1.91304348" height="1.91666667"></rect>
                        </g>
                    </g>
                </g>
            </g>
        </g>
    </g>
</svg>